<mxfile host="Electron" modified="2023-09-29T08:50:14.286Z" agent="Mozilla/5.0 (Macintosh; Intel Mac OS X 10_15_7) AppleWebKit/537.36 (KHTML, like Gecko) draw.io/21.8.2 Chrome/114.0.5735.289 Electron/25.8.1 Safari/537.36" etag="9l4Nfq2Ui3538J4IxjG7" version="21.8.2" type="device">
  <diagram name="Page-1" id="e31NR95F0K2P4T_IhLYS">
    <mxGraphModel dx="12712" dy="6739" grid="0" gridSize="10" guides="1" tooltips="1" connect="1" arrows="1" fold="1" page="0" pageScale="1" pageWidth="850" pageHeight="1100" math="0" shadow="0">
      <root>
        <mxCell id="0" />
        <mxCell id="1" parent="0" />
        <mxCell id="E5_EzEregts5peD-AZ1d-39" value="" style="rounded=0;whiteSpace=wrap;html=1;fontFamily=IBM Plex Sans;fontSource=fonts%2FIBMPlexSans-Regular.woff;fontSize=14;spacingBottom=-28;spacingTop=0;labelPosition=-100;verticalLabelPosition=top;align=center;verticalAlign=bottom;spacingLeft=9;spacing=0;expand=0;recursiveResize=0;spacingRight=0;container=1;collapsible=0;strokeColor=#1192E8;fillColor=none;strokeWidth=2;" parent="1" vertex="1">
          <mxGeometry x="-9826" y="-5437" width="816" height="1206" as="geometry">
            <mxRectangle width="670" as="alternateBounds" />
          </mxGeometry>
        </mxCell>
        <mxCell id="E5_EzEregts5peD-AZ1d-40" value="" style="rounded=0;whiteSpace=wrap;html=1;strokeColor=none;fillColor=#1192E8;" parent="E5_EzEregts5peD-AZ1d-39" vertex="1">
          <mxGeometry width="7" height="37" as="geometry" />
        </mxCell>
        <mxCell id="E5_EzEregts5peD-AZ1d-41" value="IBM Cloud" style="text;html=1;strokeColor=none;fillColor=none;align=left;verticalAlign=middle;whiteSpace=wrap;rounded=0;fontFamily=IBM Plex Sans;fontSource=fonts%2FIBMPlexSans-Regular.woff;fontSize=14;" parent="E5_EzEregts5peD-AZ1d-39" vertex="1">
          <mxGeometry x="51" y="8" width="163" height="20" as="geometry" />
        </mxCell>
        <mxCell id="E5_EzEregts5peD-AZ1d-42" value="" style="shape=image;aspect=fixed;image=data:image/svg+xml,PD94bWwgdmVyc2lvbj0iMS4wIiBlbmNvZGluZz0iVVRGLTgiPz4KPHN2ZyB3aWR0aD0iMzNweCIgaGVpZ2h0PSIzMXB4IiB2aWV3Qm94PSIwIDAgMzMgMzEiIHZlcnNpb249IjEuMSIgeG1sbnM9Imh0dHA6Ly93d3cudzMub3JnLzIwMDAvc3ZnIiB4bWxuczp4bGluaz0iaHR0cDovL3d3dy53My5vcmcvMTk5OS94bGluayI+CiAgICA8IS0tIEdlbmVyYXRvcjogU2tldGNoIDUzICg3MjUyMCkgLSBodHRwczovL3NrZXRjaGFwcC5jb20gLS0+CiAgICA8dGl0bGU+SUJNIENsb3VkIEJsYWNrPC90aXRsZT4KICAgIDxkZXNjPkNyZWF0ZWQgd2l0aCBTa2V0Y2guPC9kZXNjPgogICAgPGcgaWQ9IlBhZ2UtMSIgc3Ryb2tlPSJub25lIiBzdHJva2Utd2lkdGg9IjEiIGZpbGw9Im5vbmUiIGZpbGwtcnVsZT0iZXZlbm9kZCI+CiAgICAgICAgPGcgaWQ9IklCTS1DbG91ZC1CbGFjayIgdHJhbnNmb3JtPSJ0cmFuc2xhdGUoMC43ODQ3MjIsIDAuNTAwMTI1KSIgZmlsbD0iIzAwMDAwMCI+CiAgICAgICAgICAgIDxwYXRoIGQ9Ik0yNy4xMDIxLDI3LjAxMDYgQzI1Ljg3MDEsMjcuODc5NiAyNC4zNjExLDI4LjI2NzYgMjIuODUzMSwyOC4yNjc2IEw3LjAwNDEsMjguMjY3NiBDNC4xMTIxLDI4LjI3NDYgMS43NjIxLDI1LjkzNDYgMS43NTUxLDIzLjA0MjYgQzEuNzQ5MSwyMC40MTA2IDMuNjk3MSwxOC4xODM2IDYuMzA1MSwxNy44Mzg2IEM2LjQxMTEsMTkuMTYxNiA2Ljc4NzEsMjAuNDQ5NiA3LjQwOTEsMjEuNjIxNiBDNy41OTUxLDIxLjk5MTYgOC4wNDYxLDIyLjE0MDYgOC40MTYxLDIxLjk1NDYgQzguNzg2MSwyMS43Njc2IDguOTM1MSwyMS4zMTc2IDguNzQ4MSwyMC45NDc2IEw4LjczMDEsMjAuOTEyNiBDNy4xMzIxLDE3LjkzNTYgNy40MjkxLDE0LjIxNzYgOS42NzIxLDExLjY4OTYgQzEzLjQ4NjEsNy4zOTI2IDE5Ljc4NzEsOC4wNTI2IDIyLjc1NzEsMTIuMjgxNiBDMjAuMzM0MSwxMi4zNDc2IDE4LjA0NzEsMTMuNDE1NiAxNi40NDExLDE1LjIzMDYgQzE2LjE2MTEsMTUuNTM1NiAxNi4xODExLDE2LjAxMDYgMTYuNDg1MSwxNi4yOTA2IEMxNi43ODkxLDE2LjU3MTYgMTcuMjY0MSwxNi41NTI2IDE3LjU0NTEsMTYuMjQ3NiBMMTcuNTY2MSwxNi4yMjI2IEMxOS41OTUxLDEzLjkyMzYgMjIuODg0MSwxMy4wNTI2IDI1LjcwMzEsMTQuMjYzNiBDMzEuMTY1MSwxNi42MDk2IDMxLjgxMDEsMjMuNjkyNiAyNy4xMDIxLDI3LjAxMDYgTTI0LjU4NTEsMTIuOTE3NiBDMjIuMDU0MSw4LjE3NTYgMTYuMTU5MSw2LjM4MjYgMTEuNDE2MSw4LjkxMzYgQzguNDY1MSwxMC40ODg2IDYuNTI5MSwxMy40Njg2IDYuMjkwMSwxNi44MDY2IEMyLjU4NDEsMTcuMjA0NiAtMC4wOTc5LDIwLjUzMjYgMC4zMDExLDI0LjIzOTYgQzAuNjY5MSwyNy42NjU2IDMuNTU5MSwzMC4yNjM2IDcuMDA0MSwzMC4yNjc2IEwyMy4wMDQxLDMwLjI2NzYgQzI3LjgzNTEsMzAuMjcwNiAzMS43NTMxLDI2LjM1NzYgMzEuNzU2MSwyMS41MjY2IEMzMS43NTkxLDE3LjMwMTYgMjguNzQxMSwxMy42Nzg2IDI0LjU4NTEsMTIuOTE3NiIgaWQ9IkZpbGwtMSI+PC9wYXRoPgogICAgICAgICAgICA8ZyBpZD0iR3JvdXAtNSIgdHJhbnNmb3JtPSJ0cmFuc2xhdGUoMjcuMDAwMDAwLCA4LjI2NzcwMCkiPgogICAgICAgICAgICAgICAgPHBhdGggZD0iTTQuOTAyOCwwLjkxOTcgQzQuNjkzOCwwLjU1NjcgNC4yMjk4LDAuNDMyNyAzLjg2NjgsMC42NDE3IEMzLjg2NjgsMC42NDE3IDMuODY2OCwwLjY0MTcgMy44NjY4LDAuNjQyNyBMMC44NDY4LDIuMzg1NyBDMC40Nzg4LDIuNTg2NyAwLjM0MzgsMy4wNDc3IDAuNTQ0OCwzLjQxNTcgQzAuNzQ1OCwzLjc4MzcgMS4yMDY4LDMuOTE4NyAxLjU3NDgsMy43MTc3IEMxLjU4NDgsMy43MTE3IDEuNTk0OCwzLjcwNTcgMS42MDQ4LDMuNjk5NyBMNC42MjQ4LDEuOTU2NyBDNC45ODc4LDEuNzQ2NyA1LjExMTgsMS4yODI3IDQuOTAyOCwwLjkxOTciIGlkPSJGaWxsLTMiPjwvcGF0aD4KICAgICAgICAgICAgPC9nPgogICAgICAgICAgICA8cGF0aCBkPSJNMjIuNjgxMiw2LjgwMjYgQzIzLjA0MzIsNy4wMTI2IDIzLjUwNzIsNi44ODg2IDIzLjcxNzIsNi41MjU2IEwyMy43MTcyLDYuNTI1NiBMMjUuNDYxMiwzLjUwNTYgQzI1LjY2ODIsMy4xNDA2IDI1LjU0MDIsMi42Nzc2IDI1LjE3NjIsMi40NzA2IEMyNC44MTUyLDIuMjY2NiAyNC4zNTcyLDIuMzg4NiAyNC4xNDcyLDIuNzQ2NiBMMjIuNDAzMiw1Ljc2NjYgQzIyLjE5NDIsNi4xMjk2IDIyLjMxODIsNi41OTM2IDIyLjY4MTIsNi44MDI2IiBpZD0iRmlsbC02Ij48L3BhdGg+CiAgICAgICAgICAgIDxwYXRoIGQ9Ik0xNi4wMDQ0LDUuMDE0MSBDMTYuNDIzNCw1LjAxNDEgMTYuNzYzNCw0LjY3NDEgMTcuMzM1NCw0LjI1NTEgTDE3LjMzNTQsMC43NjcxIEMxNi43Njg0LDAuMzQ4MSAxNi40MzI0LDAuMDA1MSAxNi4wMTM0LDAuMDAwMSBDMTUuNTk0NCwtMC4wMDQ5IDE1LjI1MTQsMC4zMzExIDE1LjMzNTQsMC43NTAxIEwxNS4zMzU0LDAuNzY3MSBMMTUuMzM1NCw0LjI1NTEgQzE1LjI0NjQsNC42NzQxIDE1LjU4NTQsNS4wMTQxIDE2LjAwNDQsNS4wMTQxIiBpZD0iRmlsbC04Ij48L3BhdGg+CiAgICAgICAgICAgIDxwYXRoIGQ9Ik04LjI5Miw2LjUyNDggQzguNTA0LDYuODg1OCA4Ljk2OSw3LjAwNjggOS4zMzEsNi43OTQ4IEM5LjY4OCw2LjU4NDggOS44MTEsNi4xMjY4IDkuNjA2LDUuNzY1OCBMNy44NjIsMi43NDU4IEM3LjY1NSwyLjM4MTggNy4xOTIsMi4yNTM4IDYuODI4LDIuNDYwOCBDNi40NjMsMi42Njc4IDYuMzM1LDMuMTMwOCA2LjU0MiwzLjQ5NDggQzYuNTQ0LDMuNDk4OCA2LjU0NiwzLjUwMTggNi41NDgsMy41MDQ4IEw4LjI5Miw2LjUyNDggWiIgaWQ9IkZpbGwtMTAiPjwvcGF0aD4KICAgICAgICAgICAgPGcgaWQ9Ikdyb3VwLTE0IiB0cmFuc2Zvcm09InRyYW5zbGF0ZSgwLjAwMDAwMCwgOC4yNjc3MDApIj4KICAgICAgICAgICAgICAgIDxwYXRoIGQ9Ik00LjE2MzEsMi4zODYgTDEuMTQzMSwwLjY0MiBDMC43ODIxLDAuNDMgMC4zMTcxLDAuNTUxIDAuMTA0MSwwLjkxMiBDLTAuMTA3OSwxLjI3MyAwLjAxMzEsMS43MzkgMC4zNzQxLDEuOTUgQzAuMzc4MSwxLjk1MiAwLjM4MTEsMS45NTQgMC4zODQxLDEuOTU2IEwzLjQwNTEsMy43IEMzLjc2NjEsMy45MTIgNC4yMzExLDMuNzkxIDQuNDQzMSwzLjQzIEM0LjY1NTEsMy4wNjkgNC41MzUxLDIuNjA0IDQuMTczMSwyLjM5MiBDNC4xNzAxLDIuMzkgNC4xNjYxLDIuMzg4IDQuMTYzMSwyLjM4NiBaIiBpZD0iRmlsbC0xMiI+PC9wYXRoPgogICAgICAgICAgICA8L2c+CiAgICAgICAgPC9nPgogICAgPC9nPgo8L3N2Zz4=;" parent="E5_EzEregts5peD-AZ1d-39" vertex="1">
          <mxGeometry x="20" y="7" width="21" height="19.73" as="geometry" />
        </mxCell>
        <mxCell id="E5_EzEregts5peD-AZ1d-9" value="" style="shape=mxgraph.ibm.box;prType=services;fontStyle=0;verticalAlign=top;align=center;spacingLeft=0;spacingTop=4;fillColor=#FFFFFF;rounded=0;whiteSpace=wrap;html=1;strokeColor=#4376BB;strokeWidth=1;dashed=0;container=0;spacing=-4;collapsible=0;expand=0;recursiveResize=0;labelBackgroundColor=none;fontSize=12;fontFamily=IBM Plex Sans;fontSource=fonts%2FIBMPlexSans-Regular.woff;" parent="E5_EzEregts5peD-AZ1d-39" vertex="1">
          <mxGeometry x="695" y="188" width="110" height="783" as="geometry" />
        </mxCell>
        <mxCell id="E5_EzEregts5peD-AZ1d-10" value="&lt;b&gt;SECURITY&lt;/b&gt;" style="shape=mxgraph.ibm.box;prType=services;fontStyle=0;verticalAlign=top;align=center;spacingLeft=0;spacingTop=4;fillColor=none;rounded=0;whiteSpace=wrap;html=1;strokeColor=#4376BB;strokeWidth=1;dashed=0;container=0;spacing=-4;collapsible=0;expand=0;recursiveResize=0;labelBackgroundColor=none;fontSize=12;fontFamily=IBM Plex Sans;fontSource=fonts%2FIBMPlexSans-Regular.woff;" parent="E5_EzEregts5peD-AZ1d-39" vertex="1">
          <mxGeometry x="704" y="368" width="90" height="170" as="geometry" />
        </mxCell>
        <mxCell id="E5_EzEregts5peD-AZ1d-14" value="&lt;b&gt;STORAGE&lt;/b&gt;" style="shape=mxgraph.ibm.box;prType=services;fontStyle=0;verticalAlign=top;align=center;spacingLeft=0;spacingTop=4;fillColor=none;rounded=0;whiteSpace=wrap;html=1;strokeColor=#4376BB;strokeWidth=1;dashed=0;container=0;spacing=-4;collapsible=0;expand=0;recursiveResize=0;labelBackgroundColor=none;fontSize=12;fontFamily=IBM Plex Sans;fontSource=fonts%2FIBMPlexSans-Regular.woff;" parent="E5_EzEregts5peD-AZ1d-39" vertex="1">
          <mxGeometry x="704" y="548" width="90" height="93" as="geometry" />
        </mxCell>
        <mxCell id="E5_EzEregts5peD-AZ1d-16" value="" style="rounded=0;whiteSpace=wrap;html=1;strokeColor=none;fillColor=#1192E8;" parent="E5_EzEregts5peD-AZ1d-39" vertex="1">
          <mxGeometry x="695" y="188" width="5" height="37" as="geometry" />
        </mxCell>
        <mxCell id="E5_EzEregts5peD-AZ1d-17" value="Cloud Services" style="text;html=1;strokeColor=none;fillColor=none;align=left;verticalAlign=middle;whiteSpace=wrap;rounded=0;fontFamily=IBM Plex Sans;fontSource=fonts%2FIBMPlexSans-Regular.woff;fontSize=14;fontStyle=1" parent="E5_EzEregts5peD-AZ1d-39" vertex="1">
          <mxGeometry x="736.5" y="191" width="66.5" height="32" as="geometry" />
        </mxCell>
        <mxCell id="E5_EzEregts5peD-AZ1d-18" value="" style="shape=image;aspect=fixed;image=data:image/svg+xml,PD94bWwgdmVyc2lvbj0iMS4wIiBlbmNvZGluZz0iVVRGLTgiPz4KPHN2ZyB3aWR0aD0iMzNweCIgaGVpZ2h0PSIyNnB4IiB2aWV3Qm94PSIwIDAgMzMgMjYiIHZlcnNpb249IjEuMSIgeG1sbnM9Imh0dHA6Ly93d3cudzMub3JnLzIwMDAvc3ZnIiB4bWxuczp4bGluaz0iaHR0cDovL3d3dy53My5vcmcvMTk5OS94bGluayI+CiAgICA8IS0tIEdlbmVyYXRvcjogU2tldGNoIDUzICg3MjUyMCkgLSBodHRwczovL3NrZXRjaGFwcC5jb20gLS0+CiAgICA8dGl0bGU+Q2xvdWQgU2VydmljZXMgQmxhY2s8L3RpdGxlPgogICAgPGRlc2M+Q3JlYXRlZCB3aXRoIFNrZXRjaC48L2Rlc2M+CiAgICA8ZyBpZD0iUGFnZS0xIiBzdHJva2U9Im5vbmUiIHN0cm9rZS13aWR0aD0iMSIgZmlsbD0ibm9uZSIgZmlsbC1ydWxlPSJldmVub2RkIj4KICAgICAgICA8ZyBpZD0iQ2xvdWQtU2VydmljZXMtQmxhY2siIHRyYW5zZm9ybT0idHJhbnNsYXRlKDAuMDYyNTAwLCAtMS4wMDAwMDApIiBmaWxsPSIjMDAwMDAwIj4KICAgICAgICAgICAgPGcgaWQ9Ikdyb3VwLTMiIHRyYW5zZm9ybT0idHJhbnNsYXRlKDAuMDAwMDAwLCAwLjAwMjAwMCkiPgogICAgICAgICAgICAgICAgPHBhdGggZD0iTTI1LjgyMzEsOS4xMjQgQzI0Ljc4NzEsMy43IDE5LjU1MTEsMC4xNDIgMTQuMTI2MSwxLjE3NyBDMTAuMDk4MSwxLjk0NiA2Ljk0ODEsNS4wOTYgNi4xNzkxLDkuMTI0IEMwLjA5MjEsMTAuMjExIC0yLjk1NzksMTguMzYzIDMuOTY0MSwyMy42MzIgQzQuMjg1MSwyMy44NzcgNC42ODkxLDI0IDUuMDkzMSwyNCBMOC4wMDExLDI0IEw4LjAwMTEsMjIgTDUuNDQ4MSwyMiBDNS4xMDQxLDIyIDQuNzYyMSwyMS44NzcgNC41MTExLDIxLjY0MiBDLTAuMzUzOSwxNy4wODYgMi41ODYxLDExLjMzIDcuMTI0MSwxMS4wMiBMNy45NjExLDEwLjk2MyBMOC4zNTYxLDcuMjk4IEM4LjQwNzEsNi44MzIgOC42MTMxLDYuMzg2IDguOTU3MSw2LjA2NyBDMTUuNjAxMSwtMC4wOTQgMjMuMjc2MSwzLjkzNyAyMy45NTIxLDEwLjEzIEwyNC4wNDIxLDEwLjk2MyBMMjYuOTI2MSwxMS4xNiBDMjcuMjY5MSwxMS4xODQgMjcuNjAxMSwxMS4zMyAyNy44MzUxLDExLjU4MiBDMzIuMzc5MSwxNi40NiAyOS4wNTAxLDIyLjAwMyAyNC41MDExLDIyIEwyNC4wMDExLDIyIEwyNC4wMDExLDI0IEwyNy4yMTUxLDI0IEMyNy42NjExLDI0IDI4LjEwMzEsMjMuODQ4IDI4LjQzNzEsMjMuNTUyIEMzNC45MTQxLDE3LjgxNiAzMS42NjgxLDEwLjE2OCAyNS44MjMxLDkuMTI0IiBpZD0iRmlsbC0xIj48L3BhdGg+CiAgICAgICAgICAgIDwvZz4KICAgICAgICAgICAgPHBhdGggZD0iTTE1LjU3NCwyMi44MjU3IEMxMy45MTcsMjIuODI1NyAxMi41NzQsMjEuNDgyNyAxMi41NzQsMTkuODI1NyBDMTIuNTc0LDE4LjE2ODcgMTMuOTE3LDE2LjgyNTcgMTUuNTc0LDE2LjgyNTcgQzE3LjIzMSwxNi44MjU3IDE4LjU3NCwxOC4xNjg3IDE4LjU3NCwxOS44MjU3IEMxOC41NzIsMjEuNDgxNyAxNy4yMywyMi44MjM3IDE1LjU3NCwyMi44MjU3IEwxNS41NzQsMjIuODI1NyBaIE0yMy4wMDEsMjEuMDAxNyBMMjMuMDAxLDE5LjAwMTcgTDIwLjksMTkuMDAxNyBDMjAuNzcxLDE4LjM3NTcgMjAuNTIzLDE3Ljc4MDcgMjAuMTY4LDE3LjI0ODcgTDIxLjY1OCwxNS43NTk3IEwyMC4yNDQsMTQuMzQ1NyBMMTguNzU0LDE1LjgzNDcgQzE4LjIyMiwxNS40ODA3IDE3LjYyNywxNS4yMzE3IDE3LjAwMSwxNS4xMDI3IEwxNy4wMDEsMTMuMDAxNyBMMTUuMDAxLDEzLjAwMTcgTDE1LjAwMSwxNS4xMDI3IEMxNC4zNzUsMTUuMjMxNyAxMy43OCwxNS40ODA3IDEzLjI0OCwxNS44MzQ3IEwxMS43NTgsMTQuMzQ0NyBMMTAuMzQ1LDE1Ljc1ODcgTDExLjgzNCwxNy4yNDg3IEMxMS40OCwxNy43ODA3IDExLjIzMSwxOC4zNzU3IDExLjEwMiwxOS4wMDE3IEw5LjAwMSwxOS4wMDE3IEw5LjAwMSwyMS4wMDE3IEwxMS4xMDIsMjEuMDAxNyBDMTEuMjMxLDIxLjYyNzcgMTEuNDgsMjIuMjIyNyAxMS44MzQsMjIuNzU0NyBMMTAuMzQ0LDI0LjI0NDcgTDExLjc1OCwyNS42NTg3IEwxMy4yNDgsMjQuMTY4NyBDMTMuNzgsMjQuNTIzNyAxNC4zNzUsMjQuNzcxNyAxNS4wMDEsMjQuOTAwNyBMMTUuMDAxLDI3LjAwMTcgTDE3LjAwMSwyNy4wMDE3IEwxNy4wMDEsMjQuOTAwNyBDMTcuNjI3LDI0Ljc3MTcgMTguMjIyLDI0LjUyMzcgMTguNzU0LDI0LjE2ODcgTDIwLjI0NCwyNS42NTg3IEwyMS42NTgsMjQuMjQ0NyBMMjAuMTY4LDIyLjc1NDcgQzIwLjUyMywyMi4yMjI3IDIwLjc3MSwyMS42Mjc3IDIwLjksMjEuMDAxNyBMMjMuMDAxLDIxLjAwMTcgWiIgaWQ9IkZpbGwtNCI+PC9wYXRoPgogICAgICAgIDwvZz4KICAgIDwvZz4KPC9zdmc+;" parent="E5_EzEregts5peD-AZ1d-39" vertex="1">
          <mxGeometry x="703.5" y="196" width="25" height="19.71" as="geometry" />
        </mxCell>
        <mxCell id="E5_EzEregts5peD-AZ1d-31" value="&lt;b&gt;LOGGING&lt;/b&gt;" style="shape=mxgraph.ibm.box;prType=services;fontStyle=0;verticalAlign=top;align=center;spacingLeft=0;spacingTop=4;fillColor=none;rounded=0;whiteSpace=wrap;html=1;strokeColor=#4376BB;strokeWidth=1;dashed=0;container=0;spacing=-4;collapsible=0;expand=0;recursiveResize=0;labelBackgroundColor=none;fontSize=12;fontFamily=IBM Plex Sans;fontSource=fonts%2FIBMPlexSans-Regular.woff;" parent="E5_EzEregts5peD-AZ1d-39" vertex="1">
          <mxGeometry x="704" y="233" width="90" height="128" as="geometry" />
        </mxCell>
        <mxCell id="E5_EzEregts5peD-AZ1d-37" value="" style="group" parent="E5_EzEregts5peD-AZ1d-39" vertex="1" connectable="0">
          <mxGeometry x="704" y="648" width="90" height="303" as="geometry" />
        </mxCell>
        <mxCell id="E5_EzEregts5peD-AZ1d-15" value="&lt;b&gt;NETWORK&lt;/b&gt;" style="shape=mxgraph.ibm.box;prType=services;fontStyle=0;verticalAlign=top;align=center;spacingLeft=0;spacingTop=4;fillColor=none;rounded=0;whiteSpace=wrap;html=1;strokeColor=#4376BB;strokeWidth=1;dashed=0;container=0;spacing=-4;collapsible=0;expand=0;recursiveResize=0;labelBackgroundColor=none;fontSize=12;fontFamily=IBM Plex Sans;fontSource=fonts%2FIBMPlexSans-Regular.woff;" parent="E5_EzEregts5peD-AZ1d-37" vertex="1">
          <mxGeometry width="90" height="303" as="geometry" />
        </mxCell>
        <mxCell id="QTtVWzLK6MqBhSYwqH0o-49" value="Management VPC Flow Logs" style="rounded=1;whiteSpace=wrap;html=1;fillColor=#b0e3e6;strokeColor=#0e8088;shadow=0;sketch=1;curveFitting=1;jiggle=2;labelPosition=center;verticalLabelPosition=bottom;align=center;verticalAlign=top;" parent="E5_EzEregts5peD-AZ1d-37" vertex="1">
          <mxGeometry x="25" y="26" width="40" height="36" as="geometry" />
        </mxCell>
        <mxCell id="QTtVWzLK6MqBhSYwqH0o-50" value="Workload&amp;nbsp;&amp;nbsp; VPC Flow Logs" style="rounded=1;whiteSpace=wrap;html=1;fillColor=#b0e3e6;strokeColor=#0e8088;shadow=0;sketch=1;curveFitting=1;jiggle=2;labelPosition=center;verticalLabelPosition=bottom;align=center;verticalAlign=top;" parent="E5_EzEregts5peD-AZ1d-37" vertex="1">
          <mxGeometry x="25" y="116" width="40" height="36" as="geometry" />
        </mxCell>
        <mxCell id="QTtVWzLK6MqBhSYwqH0o-44" value="&lt;font color=&quot;#000000&quot;&gt;Transit Gateway&lt;/font&gt;" style="rounded=1;whiteSpace=wrap;html=1;fillColor=#0050ef;strokeColor=#001DBC;shadow=0;sketch=1;curveFitting=1;jiggle=2;fontColor=#ffffff;labelPosition=center;verticalLabelPosition=bottom;align=center;verticalAlign=top;" parent="E5_EzEregts5peD-AZ1d-37" vertex="1">
          <mxGeometry x="25" y="220" width="40" height="36" as="geometry" />
        </mxCell>
        <mxCell id="E5_EzEregts5peD-AZ1d-256" value="" style="endArrow=classic;html=1;rounded=0;entryX=0;entryY=0.5;entryDx=0;entryDy=0;strokeWidth=1;dashed=1;" parent="E5_EzEregts5peD-AZ1d-39" target="QTtVWzLK6MqBhSYwqH0o-44" edge="1">
          <mxGeometry width="50" height="50" relative="1" as="geometry">
            <mxPoint x="671" y="886" as="sourcePoint" />
            <mxPoint x="725" y="840" as="targetPoint" />
          </mxGeometry>
        </mxCell>
        <mxCell id="QTtVWzLK6MqBhSYwqH0o-45" value="&lt;font color=&quot;#000000&quot;&gt;Activity Tracker Event Routing&lt;/font&gt;" style="rounded=1;whiteSpace=wrap;html=1;fillColor=#b0e3e6;strokeColor=#0e8088;shadow=0;sketch=1;curveFitting=1;jiggle=2;labelPosition=center;verticalLabelPosition=bottom;align=center;verticalAlign=top;" parent="E5_EzEregts5peD-AZ1d-39" vertex="1">
          <mxGeometry x="730" y="258" width="38" height="36" as="geometry" />
        </mxCell>
        <mxCell id="QTtVWzLK6MqBhSYwqH0o-46" value="&lt;font color=&quot;#000000&quot;&gt;KMS&lt;/font&gt;" style="rounded=1;whiteSpace=wrap;html=1;fillColor=#e51400;strokeColor=#B20000;shadow=0;sketch=1;curveFitting=1;jiggle=2;fontColor=#ffffff;labelPosition=center;verticalLabelPosition=bottom;align=center;verticalAlign=top;" parent="E5_EzEregts5peD-AZ1d-39" vertex="1">
          <mxGeometry x="729" y="396" width="38" height="36" as="geometry" />
        </mxCell>
        <mxCell id="QTtVWzLK6MqBhSYwqH0o-47" value="&lt;font color=&quot;#000000&quot;&gt;Secrets Manager&lt;/font&gt;" style="rounded=1;whiteSpace=wrap;html=1;fillColor=#e51400;strokeColor=#B20000;shadow=0;sketch=1;curveFitting=1;jiggle=2;fontColor=#ffffff;labelPosition=center;verticalLabelPosition=bottom;align=center;verticalAlign=top;" parent="E5_EzEregts5peD-AZ1d-39" vertex="1">
          <mxGeometry x="730" y="458" width="38" height="36" as="geometry" />
        </mxCell>
        <mxCell id="QTtVWzLK6MqBhSYwqH0o-48" value="&lt;font color=&quot;#000000&quot;&gt;Object Storage&lt;/font&gt;" style="rounded=1;whiteSpace=wrap;html=1;fillColor=#0050ef;strokeColor=#001DBC;shadow=0;sketch=1;curveFitting=1;jiggle=2;fontColor=#ffffff;labelPosition=center;verticalLabelPosition=bottom;align=center;verticalAlign=top;" parent="E5_EzEregts5peD-AZ1d-39" vertex="1">
          <mxGeometry x="727" y="569" width="40" height="36" as="geometry" />
        </mxCell>
        <mxCell id="E5_EzEregts5peD-AZ1d-43" value="" style="rounded=0;whiteSpace=wrap;html=1;fontFamily=IBM Plex Sans;fontSource=fonts%2FIBMPlexSans-Regular.woff;fontSize=14;fillColor=none;spacingBottom=-28;spacingTop=0;labelPosition=-100;verticalLabelPosition=top;align=center;verticalAlign=bottom;spacingLeft=9;spacing=0;expand=0;recursiveResize=0;spacingRight=0;container=1;collapsible=0;strokeColor=#FA4D56;strokeWidth=1;" parent="1" vertex="1">
          <mxGeometry x="-9788" y="-5396" width="608" height="641" as="geometry">
            <mxRectangle width="670" as="alternateBounds" />
          </mxGeometry>
        </mxCell>
        <mxCell id="E5_EzEregts5peD-AZ1d-44" value="" style="rounded=0;whiteSpace=wrap;html=1;strokeColor=none;fillColor=#FA4D56;" parent="E5_EzEregts5peD-AZ1d-43" vertex="1">
          <mxGeometry width="7" height="37" as="geometry" />
        </mxCell>
        <mxCell id="E5_EzEregts5peD-AZ1d-45" value="Management Resource Group" style="text;html=1;strokeColor=none;fillColor=none;align=left;verticalAlign=middle;whiteSpace=wrap;rounded=0;fontFamily=IBM Plex Sans;fontSource=fonts%2FIBMPlexSans-Regular.woff;fontSize=14;" parent="E5_EzEregts5peD-AZ1d-43" vertex="1">
          <mxGeometry x="50.33" y="8" width="189.67" height="20" as="geometry" />
        </mxCell>
        <mxCell id="E5_EzEregts5peD-AZ1d-46" value="" style="shape=image;aspect=fixed;image=data:image/svg+xml,PD94bWwgdmVyc2lvbj0iMS4wIiBlbmNvZGluZz0iVVRGLTgiPz4KPHN2ZyB3aWR0aD0iMjlweCIgaGVpZ2h0PSIyOHB4IiB2aWV3Qm94PSIwIDAgMjkgMjgiIHZlcnNpb249IjEuMSIgeG1sbnM9Imh0dHA6Ly93d3cudzMub3JnLzIwMDAvc3ZnIiB4bWxuczp4bGluaz0iaHR0cDovL3d3dy53My5vcmcvMTk5OS94bGluayI+CiAgICA8IS0tIEdlbmVyYXRvcjogU2tldGNoIDUzICg3MjUyMCkgLSBodHRwczovL3NrZXRjaGFwcC5jb20gLS0+CiAgICA8dGl0bGU+UmVzb3VyY2UgR3JvdXAgQmxhY2s8L3RpdGxlPgogICAgPGRlc2M+Q3JlYXRlZCB3aXRoIFNrZXRjaC48L2Rlc2M+CiAgICA8ZGVmcz4KICAgICAgICA8cG9seWdvbiBpZD0icGF0aC0xIiBwb2ludHM9IjAgMCAyOCAwIDI4IDI4IDAgMjgiPjwvcG9seWdvbj4KICAgIDwvZGVmcz4KICAgIDxnIGlkPSJQYWdlLTEiIHN0cm9rZT0ibm9uZSIgc3Ryb2tlLXdpZHRoPSIxIiBmaWxsPSJub25lIiBmaWxsLXJ1bGU9ImV2ZW5vZGQiPgogICAgICAgIDxnIGlkPSJSZXNvdXJjZS1Hcm91cC1CbGFjayIgdHJhbnNmb3JtPSJ0cmFuc2xhdGUoMC4zNzUwMDAsIDAuMDAwMDAwKSI+CiAgICAgICAgICAgIDxtYXNrIGlkPSJtYXNrLTIiIGZpbGw9IndoaXRlIj4KICAgICAgICAgICAgICAgIDx1c2UgeGxpbms6aHJlZj0iI3BhdGgtMSI+PC91c2U+CiAgICAgICAgICAgIDwvbWFzaz4KICAgICAgICAgICAgPGcgaWQ9IkNsaXAtMiI+PC9nPgogICAgICAgICAgICA8cGF0aCBkPSJNOCwyMCBMMjAsMjAgTDIwLDggTDgsOCBMOCwyMCBaIE0yMCwyMiBMOCwyMiBDNi44OTYsMjEuOTk5IDYuMDAxLDIxLjEwNCA2LDIwIEw2LDggQzYuMDAxLDYuODk2IDYuODk2LDYuMDAxIDgsNiBMMjAsNiBDMjEuMTA0LDYuMDAxIDIxLjk5OSw2Ljg5NiAyMiw4IEwyMiwyMCBDMjEuOTk5LDIxLjEwNCAyMS4xMDQsMjEuOTk5IDIwLDIyIEwyMCwyMiBaIiBpZD0iRmlsbC0xIiBmaWxsPSIjMDAwMDAwIiBtYXNrPSJ1cmwoI21hc2stMikiPjwvcGF0aD4KICAgICAgICAgICAgPHBhdGggZD0iTTUuOTk5OCwyOCBMMS45OTk4LDI4IEMwLjg5NTgsMjcuOTk5IDAuMDAwOCwyNy4xMDQgLTAuMDAwMiwyNiBMLTAuMDAwMiwyIEMwLjAwMDgsMC44OTYgMC44OTU4LDAuMDAxIDEuOTk5OCwwIEw1Ljk5OTgsMCBMNS45OTk4LDIgTDEuOTk5OCwyIEwxLjk5OTgsMjYgTDUuOTk5OCwyNiBMNS45OTk4LDI4IFoiIGlkPSJGaWxsLTMiIGZpbGw9IiMwMDAwMDAiIG1hc2s9InVybCgjbWFzay0yKSI+PC9wYXRoPgogICAgICAgICAgICA8cGF0aCBkPSJNMjYuMDAwMywyOCBMMjIuMDAwMywyOCBMMjIuMDAwMywyNiBMMjYuMDAwMywyNiBMMjYuMDAwMywyIEwyMi4wMDAzLDIgTDIyLjAwMDMsMCBMMjYuMDAwMywwIEMyNy4xMDQzLDAuMDAxIDI3Ljk5OTMsMC44OTYgMjguMDAwMywyIEwyOC4wMDAzLDI2IEMyNy45OTkzLDI3LjEwNCAyNy4xMDQzLDI3Ljk5OSAyNi4wMDAzLDI4IiBpZD0iRmlsbC00IiBmaWxsPSIjMDAwMDAwIiBtYXNrPSJ1cmwoI21hc2stMikiPjwvcGF0aD4KICAgICAgICA8L2c+CiAgICA8L2c+Cjwvc3ZnPg==;" parent="E5_EzEregts5peD-AZ1d-43" vertex="1">
          <mxGeometry x="20" y="8.840000000000055" width="20" height="19.31" as="geometry" />
        </mxCell>
        <mxCell id="E5_EzEregts5peD-AZ1d-48" value="" style="rounded=0;whiteSpace=wrap;html=1;fontFamily=IBM Plex Sans;fontSource=fonts%2FIBMPlexSans-Regular.woff;fontSize=14;spacingBottom=-28;spacingTop=0;labelPosition=-100;verticalLabelPosition=top;align=center;verticalAlign=bottom;spacingLeft=9;spacing=0;expand=0;recursiveResize=0;spacingRight=0;container=1;collapsible=0;strokeColor=#1192E8;fillColor=none;" parent="E5_EzEregts5peD-AZ1d-43" vertex="1">
          <mxGeometry x="26" y="37" width="562" height="595" as="geometry">
            <mxRectangle width="670" as="alternateBounds" />
          </mxGeometry>
        </mxCell>
        <mxCell id="E5_EzEregts5peD-AZ1d-49" value="" style="rounded=0;whiteSpace=wrap;html=1;strokeColor=none;fillColor=#1192E8;" parent="E5_EzEregts5peD-AZ1d-48" vertex="1">
          <mxGeometry width="7" height="37" as="geometry" />
        </mxCell>
        <mxCell id="E5_EzEregts5peD-AZ1d-50" value="Management VPC" style="text;html=1;strokeColor=none;fillColor=none;align=left;verticalAlign=middle;whiteSpace=wrap;rounded=0;fontFamily=IBM Plex Sans;fontSource=fonts%2FIBMPlexSans-Regular.woff;fontSize=14;" parent="E5_EzEregts5peD-AZ1d-48" vertex="1">
          <mxGeometry x="51" y="8" width="163" height="20" as="geometry" />
        </mxCell>
        <mxCell id="E5_EzEregts5peD-AZ1d-51" value="" style="shape=image;aspect=fixed;image=data:image/svg+xml,PD94bWwgdmVyc2lvbj0iMS4wIiBlbmNvZGluZz0iVVRGLTgiPz4KPHN2ZyB3aWR0aD0iMjlweCIgaGVpZ2h0PSIyOHB4IiB2aWV3Qm94PSIwIDAgMjkgMjgiIHZlcnNpb249IjEuMSIgeG1sbnM9Imh0dHA6Ly93d3cudzMub3JnLzIwMDAvc3ZnIiB4bWxuczp4bGluaz0iaHR0cDovL3d3dy53My5vcmcvMTk5OS94bGluayI+CiAgICA8IS0tIEdlbmVyYXRvcjogU2tldGNoIDUzICg3MjUyMCkgLSBodHRwczovL3NrZXRjaGFwcC5jb20gLS0+CiAgICA8dGl0bGU+SUJNIFZQQyBCbGFjazwvdGl0bGU+CiAgICA8ZGVzYz5DcmVhdGVkIHdpdGggU2tldGNoLjwvZGVzYz4KICAgIDxnIGlkPSJQYWdlLTEiIHN0cm9rZT0ibm9uZSIgc3Ryb2tlLXdpZHRoPSIxIiBmaWxsPSJub25lIiBmaWxsLXJ1bGU9ImV2ZW5vZGQiPgogICAgICAgIDxnIGlkPSJJQk0tVlBDLUJsYWNrIiB0cmFuc2Zvcm09InRyYW5zbGF0ZSgwLjc1MDAwMCwgLTEuMDAwMDAwKSIgZmlsbD0iIzAwMDAwMCI+CiAgICAgICAgICAgIDxwYXRoIGQ9Ik0wLjAwMDksMS4wMDAyIEwwLjAwMDksOS4wMDAyIEw2LjU4NjksOS4wMDAyIEwyMC4wMDA5LDIyLjQxNDIgTDIwLjAwMDksMjkuMDAwMiBMMjguMDAwOSwyOS4wMDAyIEwyOC4wMDA5LDIxLjAwMDIgTDIxLjQxNTksMjEuMDAwMiBMOC4wMDA5LDcuNTg1MiBMOC4wMDA5LDEuMDAwMiBMMC4wMDA5LDEuMDAwMiBaIE0yLjAwMDksNy4wMDAyIEw2LjAwMDksNy4wMDAyIEw2LjAwMDksMy4wMDAyIEwyLjAwMDksMy4wMDAyIEwyLjAwMDksNy4wMDAyIFogTTIyLjAwMDksMjcuMDAxMiBMMjYuMDAxOSwyNy4wMDEyIEwyNi4wMDE5LDIzLjAwMDIgTDIyLjAwMDksMjMuMDAwMiBMMjIuMDAwOSwyNy4wMDEyIFoiIGlkPSJGaWxsLTEiPjwvcGF0aD4KICAgICAgICAgICAgPGcgaWQ9Ikdyb3VwLTgiIHRyYW5zZm9ybT0idHJhbnNsYXRlKDAuMDAwMDAwLCAwLjAwMTkwMCkiPgogICAgICAgICAgICAgICAgPGcgaWQ9Ikdyb3VwLTQiIHRyYW5zZm9ybT0idHJhbnNsYXRlKDExLjAwMDAwMCwgMC4wMDAwMDApIj4KICAgICAgICAgICAgICAgICAgICA8cGF0aCBkPSJNMTIuNjQ2Nyw2LjgxNzkgQzExLjU0MjcsNi44MTc5IDEwLjY0NjcsNS45MjI5IDEwLjY0NjcsNC44MTc5IEMxMC42NDY3LDMuNzEzOSAxMS41NDI3LDIuODE3OSAxMi42NDY3LDIuODE3OSBDMTMuNzUwNywyLjgxNzkgMTQuNjQ2NywzLjcxMzkgMTQuNjQ2Nyw0LjgxNzkgQzE0LjY0NTcsNS45MjE5IDEzLjc1MDcsNi44MTY5IDEyLjY0NjcsNi44MTc5IE0xNi43MzM3LDMuNTE4OSBDMTYuMzU2NywyLjQ5ODkgMTUuNTMxNywxLjY2NzkgMTQuNTE1NywxLjI4MDkgQzEyLjEyNzcsMC4zNzA5IDkuNzE3NywxLjc1NTkgOS4xNDI3LDMuOTk3OSBMMC4wMDA3LDMuOTk3OSBMMC4wMDA3LDUuOTk3OSBMOS4xNDI3LDUuOTk3OSBDOS41MDc3LDcuMzk3OSAxMC42MDE3LDguNDkwOSAxMi4wMDA3LDguODU1OSBMMTIuMDAwNywxNy45OTc5IEwxNC4wMDA3LDE3Ljk5NzkgTDE0LjAwMDcsOC44NTU5IEMxNi4yMjk3LDguMjgxOSAxNy42MTE3LDUuODk2OSAxNi43MzM3LDMuNTE4OSIgaWQ9IkZpbGwtMiI+PC9wYXRoPgogICAgICAgICAgICAgICAgPC9nPgogICAgICAgICAgICAgICAgPGcgaWQ9Ikdyb3VwLTciIHRyYW5zZm9ybT0idHJhbnNsYXRlKDAuMDAwMDAwLCAxMS4wMDAwMDApIj4KICAgICAgICAgICAgICAgICAgICA8cGF0aCBkPSJNMy42NDY3LDE1LjgxNzkgQzIuNTQyNywxNS44MTc5IDEuNjQ2NywxNC45MjI5IDEuNjQ2NywxMy44MTc5IEMxLjY0NjcsMTIuNzEzOSAyLjU0MjcsMTEuODE3OSAzLjY0NjcsMTEuODE3OSBDNC43NTA3LDExLjgxNzkgNS42NDY3LDEyLjcxMzkgNS42NDY3LDEzLjgxNzkgQzUuNjQ1NywxNC45MjE5IDQuNzUwNywxNS44MTY5IDMuNjQ2NywxNS44MTc5IEwzLjY0NjcsMTUuODE3OSBaIE0xNy4wMDA3LDEyLjk5NzkgTDcuODU4NywxMi45OTc5IEM3LjQ5MzcsMTEuNTk3OSA2LjQwMDcsMTAuNTA0OSA1LjAwMDcsMTAuMTM5OSBMNS4wMDA3LDAuOTk3OSBMMy4wMDA3LDAuOTk3OSBMMy4wMDA3LDEwLjEzOTkgQzAuNDg3NywxMC43ODQ5IC0wLjg1MTMsMTMuNjgzOSAwLjU5NDcsMTYuMTE5OSBDMS4xNTA3LDE3LjA1NTkgMi4xMTE3LDE3LjcyODkgMy4xODI3LDE3LjkyNjkgQzUuNDAyNywxOC4zMzc5IDcuMzUzNywxNi45Njk5IDcuODU4NywxNC45OTc5IEwxNy4wMDA3LDE0Ljk5NzkgTDE3LjAwMDcsMTIuOTk3OSBaIiBpZD0iRmlsbC01Ij48L3BhdGg+CiAgICAgICAgICAgICAgICA8L2c+CiAgICAgICAgICAgIDwvZz4KICAgICAgICA8L2c+CiAgICA8L2c+Cjwvc3ZnPg==;" parent="E5_EzEregts5peD-AZ1d-48" vertex="1">
          <mxGeometry x="20" y="6.849999999999909" width="20" height="19.31" as="geometry" />
        </mxCell>
        <mxCell id="KKKXftk5tRnuejTm1d72-2" value="" style="rounded=0;whiteSpace=wrap;html=1;fillColor=#fff2cc;strokeColor=#d6b656;gradientColor=none;fillStyle=solid;opacity=20;strokeWidth=7;" parent="1" vertex="1">
          <mxGeometry x="-10551" y="-5039" width="430" height="380" as="geometry" />
        </mxCell>
        <mxCell id="E5_EzEregts5peD-AZ1d-35" value="Cloud services" parent="0" />
        <mxCell id="E5_EzEregts5peD-AZ1d-36" value="Consumer" parent="0" />
        <mxCell id="E5_EzEregts5peD-AZ1d-47" value="Management" style="" parent="0" />
        <mxCell id="E5_EzEregts5peD-AZ1d-65" value="" style="rounded=0;whiteSpace=wrap;html=1;fontFamily=IBM Plex Sans;fontSource=fonts%2FIBMPlexSans-Regular.woff;fontSize=14;spacingBottom=-28;spacingTop=0;labelPosition=-100;verticalLabelPosition=top;align=center;verticalAlign=bottom;spacingLeft=9;spacing=0;expand=0;recursiveResize=0;spacingRight=0;container=1;collapsible=0;strokeColor=#36393d;fillColor=none;" parent="E5_EzEregts5peD-AZ1d-47" vertex="1">
          <mxGeometry x="-9560" y="-5315" width="160" height="540" as="geometry">
            <mxRectangle width="670" as="alternateBounds" />
          </mxGeometry>
        </mxCell>
        <mxCell id="E5_EzEregts5peD-AZ1d-66" value="" style="rounded=0;whiteSpace=wrap;html=1;strokeColor=none;fillColor=#878d96;" parent="E5_EzEregts5peD-AZ1d-65" vertex="1">
          <mxGeometry width="7" height="37" as="geometry" />
        </mxCell>
        <mxCell id="E5_EzEregts5peD-AZ1d-67" value="Zone 2" style="text;html=1;strokeColor=none;fillColor=none;align=left;verticalAlign=middle;whiteSpace=wrap;rounded=0;fontFamily=IBM Plex Sans;fontSource=fonts%2FIBMPlexSans-Regular.woff;fontSize=14;" parent="E5_EzEregts5peD-AZ1d-65" vertex="1">
          <mxGeometry x="51" y="8" width="168" height="20" as="geometry" />
        </mxCell>
        <mxCell id="E5_EzEregts5peD-AZ1d-68" value="" style="shape=image;aspect=fixed;image=data:image/svg+xml,PD94bWwgdmVyc2lvbj0iMS4wIiBlbmNvZGluZz0iVVRGLTgiPz4KPHN2ZyB3aWR0aD0iMjlweCIgaGVpZ2h0PSIyNnB4IiB2aWV3Qm94PSIwIDAgMjkgMjYiIHZlcnNpb249IjEuMSIgeG1sbnM9Imh0dHA6Ly93d3cudzMub3JnLzIwMDAvc3ZnIiB4bWxuczp4bGluaz0iaHR0cDovL3d3dy53My5vcmcvMTk5OS94bGluayI+CiAgICA8IS0tIEdlbmVyYXRvcjogU2tldGNoIDUzICg3MjUyMCkgLSBodHRwczovL3NrZXRjaGFwcC5jb20gLS0+CiAgICA8dGl0bGU+Wm9uZSBCbGFjazwvdGl0bGU+CiAgICA8ZGVzYz5DcmVhdGVkIHdpdGggU2tldGNoLjwvZGVzYz4KICAgIDxnIGlkPSJQYWdlLTEiIHN0cm9rZT0ibm9uZSIgc3Ryb2tlLXdpZHRoPSIxIiBmaWxsPSJub25lIiBmaWxsLXJ1bGU9ImV2ZW5vZGQiPgogICAgICAgIDxnIGlkPSJab25lLUJsYWNrIiB0cmFuc2Zvcm09InRyYW5zbGF0ZSgwLjEyNTAwMCwgMC4wMDAwMDApIiBmaWxsPSIjMDAwMDAwIj4KICAgICAgICAgICAgPGcgaWQ9Ikdyb3VwLTMiPgogICAgICAgICAgICAgICAgPHBhdGggZD0iTTI2LjAwMDEsMjQuMDAwMSBMMjEuMDAwMSwyNC4wMDAxIEwyMS4wMDAxLDIwLjAwMDEgTDIzLjAwMDEsMjAuMDAwMSBMMjMuMDAwMSwxOC4wMDAxIEwyMS4wMDAxLDE4LjAwMDEgTDIxLjAwMDEsMTYuMDAwMSBMMjMuMDAwMSwxNi4wMDAxIEwyMy4wMDAxLDE0LjAwMDEgTDIxLjAwMDEsMTQuMDAwMSBMMjEuMDAwMSwxMi4wMDAxIEwyMy4wMDAxLDEyLjAwMDEgTDIzLjAwMDEsMTAuMDAwMSBMMjEuMDAwMSwxMC4wMDAxIEwyMS4wMDAxLDguMDAwMSBMMjYuMDAwMSw4LjAwMDEgTDI2LjAwMDEsMjQuMDAwMSBaIE05LjAwMDEsMjQuMDAwMSBMMTkuMDAwMSwyNC4wMDAxIEwxOS4wMDAxLDIuMDAwMSBMOS4wMDAxLDIuMDAwMSBMOS4wMDAxLDI0LjAwMDEgWiBNMi4wMDAxLDI0LjAwMDEgTDIuMDAwMSw4LjAwMDEgTDcuMDAwMSw4LjAwMDEgTDcuMDAwMSwxMC4wMDAxIEw1LjAwMDEsMTAuMDAwMSBMNS4wMDAxLDEyLjAwMDEgTDcuMDAwMSwxMi4wMDAxIEw3LjAwMDEsMTQuMDAwMSBMNS4wMDAxLDE0LjAwMDEgTDUuMDAwMSwxNi4wMDAxIEw3LjAwMDEsMTYuMDAwMSBMNy4wMDAxLDE4LjAwMDEgTDUuMDAwMSwxOC4wMDAxIEw1LjAwMDEsMjAuMDAwMSBMNy4wMDAxLDIwLjAwMDEgTDcuMDAwMSwyNC4wMDAxIEwyLjAwMDEsMjQuMDAwMSBaIE0yNi4wMDAxLDYuMDAwMSBMMjEuMDAwMSw2LjAwMDEgTDIxLjAwMDEsMi4wMDAxIEMyMC45OTkxLDAuODk2MSAyMC4xMDQxLDAuMDAxMSAxOS4wMDAxLDAuMDAwMSBMOS4wMDAxLDAuMDAwMSBDNy44OTYxLDAuMDAxMSA3LjAwMTEsMC44OTYxIDcuMDAwMSwyLjAwMDEgTDcuMDAwMSw2LjAwMDEgTDIuMDAwMSw2LjAwMDEgQzAuODk2MSw2LjAwMTEgMC4wMDExLDYuODk2MSAwLjAwMDEsOC4wMDAxIEwwLjAwMDEsMjQuMDAwMSBDMC4wMDExLDI1LjEwNDEgMC44OTYxLDI1Ljk5OTEgMi4wMDAxLDI2LjAwMDEgTDI2LjAwMDEsMjYuMDAwMSBDMjcuMTA0MSwyNS45OTkxIDI3Ljk5OTEsMjUuMTA0MSAyOC4wMDAxLDI0LjAwMDEgTDI4LjAwMDEsOC4wMDAxIEMyNy45OTkxLDYuODk2MSAyNy4xMDQxLDYuMDAxMSAyNi4wMDAxLDYuMDAwMSBMMjYuMDAwMSw2LjAwMDEgWiIgaWQ9IkZpbGwtMSI+PC9wYXRoPgogICAgICAgICAgICA8L2c+CiAgICAgICAgICAgIDxwb2x5Z29uIGlkPSJGaWxsLTQiIHBvaW50cz0iMTIgNiAxNiA2IDE2IDQgMTIgNCI+PC9wb2x5Z29uPgogICAgICAgICAgICA8cG9seWdvbiBpZD0iRmlsbC02IiBwb2ludHM9IjEyIDEwIDE2IDEwIDE2IDggMTIgOCI+PC9wb2x5Z29uPgogICAgICAgICAgICA8cG9seWdvbiBpZD0iRmlsbC03IiBwb2ludHM9IjEyIDE0IDE2IDE0IDE2IDEyIDEyIDEyIj48L3BvbHlnb24+CiAgICAgICAgPC9nPgogICAgPC9nPgo8L3N2Zz4=;" parent="E5_EzEregts5peD-AZ1d-65" vertex="1">
          <mxGeometry x="20" y="8.07" width="20" height="17.93" as="geometry" />
        </mxCell>
        <mxCell id="E5_EzEregts5peD-AZ1d-69" style="edgeStyle=orthogonalEdgeStyle;rounded=0;orthogonalLoop=1;jettySize=auto;html=1;exitX=0;exitY=0.5;exitDx=0;exitDy=0;entryX=1.009;entryY=0.22;entryDx=0;entryDy=0;entryPerimeter=0;fontFamily=IBM Plex Sans;fontSource=fonts%2FIBMPlexSans-Regular.woff;fontSize=14;startArrow=oval;startFill=1;strokeColor=#198038;" parent="E5_EzEregts5peD-AZ1d-65" edge="1">
          <mxGeometry relative="1" as="geometry" />
        </mxCell>
        <mxCell id="E5_EzEregts5peD-AZ1d-52" value="" style="rounded=0;whiteSpace=wrap;html=1;fontFamily=IBM Plex Sans;fontSource=fonts%2FIBMPlexSans-Regular.woff;fontSize=14;spacingBottom=-28;spacingTop=0;labelPosition=-100;verticalLabelPosition=top;align=center;verticalAlign=bottom;spacingLeft=9;spacing=0;expand=0;recursiveResize=0;spacingRight=0;container=1;collapsible=0;strokeColor=#36393d;fillColor=none;shadow=0;" parent="E5_EzEregts5peD-AZ1d-47" vertex="1">
          <mxGeometry x="-9739" y="-5316" width="177" height="542" as="geometry">
            <mxRectangle width="670" as="alternateBounds" />
          </mxGeometry>
        </mxCell>
        <mxCell id="E5_EzEregts5peD-AZ1d-53" value="" style="rounded=0;whiteSpace=wrap;html=1;strokeColor=none;fillColor=#878d96;" parent="E5_EzEregts5peD-AZ1d-52" vertex="1">
          <mxGeometry y="1" width="7" height="37" as="geometry" />
        </mxCell>
        <mxCell id="E5_EzEregts5peD-AZ1d-54" value="Zone 1" style="text;html=1;strokeColor=none;fillColor=none;align=left;verticalAlign=middle;whiteSpace=wrap;rounded=0;fontFamily=IBM Plex Sans;fontSource=fonts%2FIBMPlexSans-Regular.woff;fontSize=14;" parent="E5_EzEregts5peD-AZ1d-52" vertex="1">
          <mxGeometry x="51" y="8" width="168" height="20" as="geometry" />
        </mxCell>
        <mxCell id="E5_EzEregts5peD-AZ1d-55" value="" style="shape=image;aspect=fixed;image=data:image/svg+xml,PD94bWwgdmVyc2lvbj0iMS4wIiBlbmNvZGluZz0iVVRGLTgiPz4KPHN2ZyB3aWR0aD0iMjlweCIgaGVpZ2h0PSIyNnB4IiB2aWV3Qm94PSIwIDAgMjkgMjYiIHZlcnNpb249IjEuMSIgeG1sbnM9Imh0dHA6Ly93d3cudzMub3JnLzIwMDAvc3ZnIiB4bWxuczp4bGluaz0iaHR0cDovL3d3dy53My5vcmcvMTk5OS94bGluayI+CiAgICA8IS0tIEdlbmVyYXRvcjogU2tldGNoIDUzICg3MjUyMCkgLSBodHRwczovL3NrZXRjaGFwcC5jb20gLS0+CiAgICA8dGl0bGU+Wm9uZSBCbGFjazwvdGl0bGU+CiAgICA8ZGVzYz5DcmVhdGVkIHdpdGggU2tldGNoLjwvZGVzYz4KICAgIDxnIGlkPSJQYWdlLTEiIHN0cm9rZT0ibm9uZSIgc3Ryb2tlLXdpZHRoPSIxIiBmaWxsPSJub25lIiBmaWxsLXJ1bGU9ImV2ZW5vZGQiPgogICAgICAgIDxnIGlkPSJab25lLUJsYWNrIiB0cmFuc2Zvcm09InRyYW5zbGF0ZSgwLjEyNTAwMCwgMC4wMDAwMDApIiBmaWxsPSIjMDAwMDAwIj4KICAgICAgICAgICAgPGcgaWQ9Ikdyb3VwLTMiPgogICAgICAgICAgICAgICAgPHBhdGggZD0iTTI2LjAwMDEsMjQuMDAwMSBMMjEuMDAwMSwyNC4wMDAxIEwyMS4wMDAxLDIwLjAwMDEgTDIzLjAwMDEsMjAuMDAwMSBMMjMuMDAwMSwxOC4wMDAxIEwyMS4wMDAxLDE4LjAwMDEgTDIxLjAwMDEsMTYuMDAwMSBMMjMuMDAwMSwxNi4wMDAxIEwyMy4wMDAxLDE0LjAwMDEgTDIxLjAwMDEsMTQuMDAwMSBMMjEuMDAwMSwxMi4wMDAxIEwyMy4wMDAxLDEyLjAwMDEgTDIzLjAwMDEsMTAuMDAwMSBMMjEuMDAwMSwxMC4wMDAxIEwyMS4wMDAxLDguMDAwMSBMMjYuMDAwMSw4LjAwMDEgTDI2LjAwMDEsMjQuMDAwMSBaIE05LjAwMDEsMjQuMDAwMSBMMTkuMDAwMSwyNC4wMDAxIEwxOS4wMDAxLDIuMDAwMSBMOS4wMDAxLDIuMDAwMSBMOS4wMDAxLDI0LjAwMDEgWiBNMi4wMDAxLDI0LjAwMDEgTDIuMDAwMSw4LjAwMDEgTDcuMDAwMSw4LjAwMDEgTDcuMDAwMSwxMC4wMDAxIEw1LjAwMDEsMTAuMDAwMSBMNS4wMDAxLDEyLjAwMDEgTDcuMDAwMSwxMi4wMDAxIEw3LjAwMDEsMTQuMDAwMSBMNS4wMDAxLDE0LjAwMDEgTDUuMDAwMSwxNi4wMDAxIEw3LjAwMDEsMTYuMDAwMSBMNy4wMDAxLDE4LjAwMDEgTDUuMDAwMSwxOC4wMDAxIEw1LjAwMDEsMjAuMDAwMSBMNy4wMDAxLDIwLjAwMDEgTDcuMDAwMSwyNC4wMDAxIEwyLjAwMDEsMjQuMDAwMSBaIE0yNi4wMDAxLDYuMDAwMSBMMjEuMDAwMSw2LjAwMDEgTDIxLjAwMDEsMi4wMDAxIEMyMC45OTkxLDAuODk2MSAyMC4xMDQxLDAuMDAxMSAxOS4wMDAxLDAuMDAwMSBMOS4wMDAxLDAuMDAwMSBDNy44OTYxLDAuMDAxMSA3LjAwMTEsMC44OTYxIDcuMDAwMSwyLjAwMDEgTDcuMDAwMSw2LjAwMDEgTDIuMDAwMSw2LjAwMDEgQzAuODk2MSw2LjAwMTEgMC4wMDExLDYuODk2MSAwLjAwMDEsOC4wMDAxIEwwLjAwMDEsMjQuMDAwMSBDMC4wMDExLDI1LjEwNDEgMC44OTYxLDI1Ljk5OTEgMi4wMDAxLDI2LjAwMDEgTDI2LjAwMDEsMjYuMDAwMSBDMjcuMTA0MSwyNS45OTkxIDI3Ljk5OTEsMjUuMTA0MSAyOC4wMDAxLDI0LjAwMDEgTDI4LjAwMDEsOC4wMDAxIEMyNy45OTkxLDYuODk2MSAyNy4xMDQxLDYuMDAxMSAyNi4wMDAxLDYuMDAwMSBMMjYuMDAwMSw2LjAwMDEgWiIgaWQ9IkZpbGwtMSI+PC9wYXRoPgogICAgICAgICAgICA8L2c+CiAgICAgICAgICAgIDxwb2x5Z29uIGlkPSJGaWxsLTQiIHBvaW50cz0iMTIgNiAxNiA2IDE2IDQgMTIgNCI+PC9wb2x5Z29uPgogICAgICAgICAgICA8cG9seWdvbiBpZD0iRmlsbC02IiBwb2ludHM9IjEyIDEwIDE2IDEwIDE2IDggMTIgOCI+PC9wb2x5Z29uPgogICAgICAgICAgICA8cG9seWdvbiBpZD0iRmlsbC03IiBwb2ludHM9IjEyIDE0IDE2IDE0IDE2IDEyIDEyIDEyIj48L3BvbHlnb24+CiAgICAgICAgPC9nPgogICAgPC9nPgo8L3N2Zz4=;" parent="E5_EzEregts5peD-AZ1d-52" vertex="1">
          <mxGeometry x="20" y="9.069999999999993" width="20" height="17.93" as="geometry" />
        </mxCell>
        <mxCell id="E5_EzEregts5peD-AZ1d-56" style="edgeStyle=orthogonalEdgeStyle;rounded=0;orthogonalLoop=1;jettySize=auto;html=1;exitX=0;exitY=0.5;exitDx=0;exitDy=0;entryX=1.009;entryY=0.22;entryDx=0;entryDy=0;entryPerimeter=0;fontFamily=IBM Plex Sans;fontSource=fonts%2FIBMPlexSans-Regular.woff;fontSize=14;startArrow=oval;startFill=1;strokeColor=#198038;" parent="E5_EzEregts5peD-AZ1d-52" edge="1">
          <mxGeometry relative="1" as="geometry" />
        </mxCell>
        <mxCell id="E5_EzEregts5peD-AZ1d-90" value="" style="rounded=0;whiteSpace=wrap;html=1;fontFamily=IBM Plex Sans;fontSource=fonts%2FIBMPlexSans-Regular.woff;fontSize=14;spacingBottom=-28;spacingTop=0;labelPosition=-100;verticalLabelPosition=top;align=center;verticalAlign=bottom;spacingLeft=9;spacing=0;expand=0;recursiveResize=0;spacingRight=0;container=1;collapsible=0;strokeColor=#36393d;fillColor=none;" parent="E5_EzEregts5peD-AZ1d-47" vertex="1">
          <mxGeometry x="-9390" y="-5316" width="160" height="541" as="geometry">
            <mxRectangle width="670" as="alternateBounds" />
          </mxGeometry>
        </mxCell>
        <mxCell id="E5_EzEregts5peD-AZ1d-91" value="" style="rounded=0;whiteSpace=wrap;html=1;strokeColor=none;fillColor=#878d96;" parent="E5_EzEregts5peD-AZ1d-90" vertex="1">
          <mxGeometry width="7" height="37" as="geometry" />
        </mxCell>
        <mxCell id="E5_EzEregts5peD-AZ1d-92" value="Zone 3" style="text;html=1;strokeColor=none;fillColor=none;align=left;verticalAlign=middle;whiteSpace=wrap;rounded=0;fontFamily=IBM Plex Sans;fontSource=fonts%2FIBMPlexSans-Regular.woff;fontSize=14;" parent="E5_EzEregts5peD-AZ1d-90" vertex="1">
          <mxGeometry x="51" y="8" width="168" height="20" as="geometry" />
        </mxCell>
        <mxCell id="E5_EzEregts5peD-AZ1d-93" value="" style="shape=image;aspect=fixed;image=data:image/svg+xml,PD94bWwgdmVyc2lvbj0iMS4wIiBlbmNvZGluZz0iVVRGLTgiPz4KPHN2ZyB3aWR0aD0iMjlweCIgaGVpZ2h0PSIyNnB4IiB2aWV3Qm94PSIwIDAgMjkgMjYiIHZlcnNpb249IjEuMSIgeG1sbnM9Imh0dHA6Ly93d3cudzMub3JnLzIwMDAvc3ZnIiB4bWxuczp4bGluaz0iaHR0cDovL3d3dy53My5vcmcvMTk5OS94bGluayI+CiAgICA8IS0tIEdlbmVyYXRvcjogU2tldGNoIDUzICg3MjUyMCkgLSBodHRwczovL3NrZXRjaGFwcC5jb20gLS0+CiAgICA8dGl0bGU+Wm9uZSBCbGFjazwvdGl0bGU+CiAgICA8ZGVzYz5DcmVhdGVkIHdpdGggU2tldGNoLjwvZGVzYz4KICAgIDxnIGlkPSJQYWdlLTEiIHN0cm9rZT0ibm9uZSIgc3Ryb2tlLXdpZHRoPSIxIiBmaWxsPSJub25lIiBmaWxsLXJ1bGU9ImV2ZW5vZGQiPgogICAgICAgIDxnIGlkPSJab25lLUJsYWNrIiB0cmFuc2Zvcm09InRyYW5zbGF0ZSgwLjEyNTAwMCwgMC4wMDAwMDApIiBmaWxsPSIjMDAwMDAwIj4KICAgICAgICAgICAgPGcgaWQ9Ikdyb3VwLTMiPgogICAgICAgICAgICAgICAgPHBhdGggZD0iTTI2LjAwMDEsMjQuMDAwMSBMMjEuMDAwMSwyNC4wMDAxIEwyMS4wMDAxLDIwLjAwMDEgTDIzLjAwMDEsMjAuMDAwMSBMMjMuMDAwMSwxOC4wMDAxIEwyMS4wMDAxLDE4LjAwMDEgTDIxLjAwMDEsMTYuMDAwMSBMMjMuMDAwMSwxNi4wMDAxIEwyMy4wMDAxLDE0LjAwMDEgTDIxLjAwMDEsMTQuMDAwMSBMMjEuMDAwMSwxMi4wMDAxIEwyMy4wMDAxLDEyLjAwMDEgTDIzLjAwMDEsMTAuMDAwMSBMMjEuMDAwMSwxMC4wMDAxIEwyMS4wMDAxLDguMDAwMSBMMjYuMDAwMSw4LjAwMDEgTDI2LjAwMDEsMjQuMDAwMSBaIE05LjAwMDEsMjQuMDAwMSBMMTkuMDAwMSwyNC4wMDAxIEwxOS4wMDAxLDIuMDAwMSBMOS4wMDAxLDIuMDAwMSBMOS4wMDAxLDI0LjAwMDEgWiBNMi4wMDAxLDI0LjAwMDEgTDIuMDAwMSw4LjAwMDEgTDcuMDAwMSw4LjAwMDEgTDcuMDAwMSwxMC4wMDAxIEw1LjAwMDEsMTAuMDAwMSBMNS4wMDAxLDEyLjAwMDEgTDcuMDAwMSwxMi4wMDAxIEw3LjAwMDEsMTQuMDAwMSBMNS4wMDAxLDE0LjAwMDEgTDUuMDAwMSwxNi4wMDAxIEw3LjAwMDEsMTYuMDAwMSBMNy4wMDAxLDE4LjAwMDEgTDUuMDAwMSwxOC4wMDAxIEw1LjAwMDEsMjAuMDAwMSBMNy4wMDAxLDIwLjAwMDEgTDcuMDAwMSwyNC4wMDAxIEwyLjAwMDEsMjQuMDAwMSBaIE0yNi4wMDAxLDYuMDAwMSBMMjEuMDAwMSw2LjAwMDEgTDIxLjAwMDEsMi4wMDAxIEMyMC45OTkxLDAuODk2MSAyMC4xMDQxLDAuMDAxMSAxOS4wMDAxLDAuMDAwMSBMOS4wMDAxLDAuMDAwMSBDNy44OTYxLDAuMDAxMSA3LjAwMTEsMC44OTYxIDcuMDAwMSwyLjAwMDEgTDcuMDAwMSw2LjAwMDEgTDIuMDAwMSw2LjAwMDEgQzAuODk2MSw2LjAwMTEgMC4wMDExLDYuODk2MSAwLjAwMDEsOC4wMDAxIEwwLjAwMDEsMjQuMDAwMSBDMC4wMDExLDI1LjEwNDEgMC44OTYxLDI1Ljk5OTEgMi4wMDAxLDI2LjAwMDEgTDI2LjAwMDEsMjYuMDAwMSBDMjcuMTA0MSwyNS45OTkxIDI3Ljk5OTEsMjUuMTA0MSAyOC4wMDAxLDI0LjAwMDEgTDI4LjAwMDEsOC4wMDAxIEMyNy45OTkxLDYuODk2MSAyNy4xMDQxLDYuMDAxMSAyNi4wMDAxLDYuMDAwMSBMMjYuMDAwMSw2LjAwMDEgWiIgaWQ9IkZpbGwtMSI+PC9wYXRoPgogICAgICAgICAgICA8L2c+CiAgICAgICAgICAgIDxwb2x5Z29uIGlkPSJGaWxsLTQiIHBvaW50cz0iMTIgNiAxNiA2IDE2IDQgMTIgNCI+PC9wb2x5Z29uPgogICAgICAgICAgICA8cG9seWdvbiBpZD0iRmlsbC02IiBwb2ludHM9IjEyIDEwIDE2IDEwIDE2IDggMTIgOCI+PC9wb2x5Z29uPgogICAgICAgICAgICA8cG9seWdvbiBpZD0iRmlsbC03IiBwb2ludHM9IjEyIDE0IDE2IDE0IDE2IDEyIDEyIDEyIj48L3BvbHlnb24+CiAgICAgICAgPC9nPgogICAgPC9nPgo8L3N2Zz4=;" parent="E5_EzEregts5peD-AZ1d-90" vertex="1">
          <mxGeometry x="20" y="8.07" width="20" height="17.93" as="geometry" />
        </mxCell>
        <mxCell id="E5_EzEregts5peD-AZ1d-94" style="edgeStyle=orthogonalEdgeStyle;rounded=0;orthogonalLoop=1;jettySize=auto;html=1;exitX=0;exitY=0.5;exitDx=0;exitDy=0;entryX=1.009;entryY=0.22;entryDx=0;entryDy=0;entryPerimeter=0;fontFamily=IBM Plex Sans;fontSource=fonts%2FIBMPlexSans-Regular.woff;fontSize=14;startArrow=oval;startFill=1;strokeColor=#198038;" parent="E5_EzEregts5peD-AZ1d-90" edge="1">
          <mxGeometry relative="1" as="geometry" />
        </mxCell>
        <mxCell id="E5_EzEregts5peD-AZ1d-82" value="" style="rounded=0;whiteSpace=wrap;html=1;fontFamily=IBM Plex Sans;fontSource=fonts%2FIBMPlexSans-Regular.woff;fontSize=14;spacingBottom=-28;spacingTop=0;labelPosition=-100;verticalLabelPosition=top;align=center;verticalAlign=bottom;spacingLeft=9;spacing=0;expand=0;recursiveResize=0;spacingRight=0;container=1;collapsible=0;strokeColor=#1192E8;fillColor=none;" parent="E5_EzEregts5peD-AZ1d-47" vertex="1">
          <mxGeometry x="-9550" y="-5094" width="140" height="149" as="geometry">
            <mxRectangle width="670" as="alternateBounds" />
          </mxGeometry>
        </mxCell>
        <mxCell id="E5_EzEregts5peD-AZ1d-83" value="" style="rounded=0;whiteSpace=wrap;html=1;strokeColor=none;fillColor=#1192E8;" parent="E5_EzEregts5peD-AZ1d-82" vertex="1">
          <mxGeometry width="7" height="37" as="geometry" />
        </mxCell>
        <mxCell id="E5_EzEregts5peD-AZ1d-84" value="&lt;font style=&quot;font-size: 12px;&quot;&gt;10.20.20.0/24&lt;/font&gt;" style="text;html=1;strokeColor=none;fillColor=none;align=left;verticalAlign=middle;whiteSpace=wrap;rounded=0;fontFamily=IBM Plex Sans;fontSource=fonts%2FIBMPlexSans-Regular.woff;fontSize=14;" parent="E5_EzEregts5peD-AZ1d-82" vertex="1">
          <mxGeometry x="51" y="8" width="99" height="20" as="geometry" />
        </mxCell>
        <mxCell id="E5_EzEregts5peD-AZ1d-85" value="" style="shape=image;aspect=fixed;image=data:image/svg+xml,PD94bWwgdmVyc2lvbj0iMS4wIiBlbmNvZGluZz0iVVRGLTgiPz4KPHN2ZyB3aWR0aD0iMjlweCIgaGVpZ2h0PSIyOXB4IiB2aWV3Qm94PSIwIDAgMjkgMjkiIHZlcnNpb249IjEuMSIgeG1sbnM9Imh0dHA6Ly93d3cudzMub3JnLzIwMDAvc3ZnIiB4bWxuczp4bGluaz0iaHR0cDovL3d3dy53My5vcmcvMTk5OS94bGluayI+CiAgICA8IS0tIEdlbmVyYXRvcjogU2tldGNoIDUzICg3MjUyMCkgLSBodHRwczovL3NrZXRjaGFwcC5jb20gLS0+CiAgICA8dGl0bGU+SUJNIFN1Ym5ldCA6IEFDTCBCbGFjazwvdGl0bGU+CiAgICA8ZGVzYz5DcmVhdGVkIHdpdGggU2tldGNoLjwvZGVzYz4KICAgIDxnIGlkPSJQYWdlLTEiIHN0cm9rZT0ibm9uZSIgc3Ryb2tlLXdpZHRoPSIxIiBmaWxsPSJub25lIiBmaWxsLXJ1bGU9ImV2ZW5vZGQiPgogICAgICAgIDxnIGlkPSJJQk0tU3VibmV0LTotQUNMLUJsYWNrIiB0cmFuc2Zvcm09InRyYW5zbGF0ZSgwLjc1MDAwMCwgMC4wNzQ5NTkpIiBmaWxsPSIjMDAwMDAwIj4KICAgICAgICAgICAgPHBhdGggZD0iTTI0LjAxNjEsMjYuMjIyMSBDMjIuOTEyMSwyNi4yMjIxIDIyLjAxNjEsMjUuMzI2MSAyMi4wMTYxLDI0LjIyMjEgQzIyLjAxNjEsMjMuMTE4MSAyMi45MTIxLDIyLjIyMjEgMjQuMDE2MSwyMi4yMjIxIEMyNS4xMjAxLDIyLjIyMjEgMjYuMDE2MSwyMy4xMTgxIDI2LjAxNjEsMjQuMjIyMSBDMjYuMDEzMSwyNS4zMjUxIDI1LjExOTEsMjYuMjE5MSAyNC4wMTYxLDI2LjIyMjEgTTQuMDE2MSwyNi4yMjIxIEMyLjkxMjEsMjYuMjIyMSAyLjAxNjEsMjUuMzI2MSAyLjAxNjEsMjQuMjIyMSBDMi4wMTYxLDIzLjExODEgMi45MTIxLDIyLjIyMjEgNC4wMTYxLDIyLjIyMjEgQzUuMTIwMSwyMi4yMjIxIDYuMDE2MSwyMy4xMTgxIDYuMDE2MSwyNC4yMjIxIEM2LjAxMzEsMjUuMzI1MSA1LjExOTEsMjYuMjE5MSA0LjAxNjEsMjYuMjIyMSBNNC4wMTYxLDYuMjIyMSBDMi45MTIxLDYuMjIyMSAyLjAxNjEsNS4zMjYxIDIuMDE2MSw0LjIyMjEgQzIuMDE2MSwzLjExODEgMi45MTIxLDIuMjIyMSA0LjAxNjEsMi4yMjIxIEM1LjEyMDEsMi4yMjIxIDYuMDE2MSwzLjExODEgNi4wMTYxLDQuMjIyMSBDNi4wMTMxLDUuMzI1MSA1LjExOTEsNi4yMTkxIDQuMDE2MSw2LjIyMjEgTTI0LjAxNjEsMi4yMjIxIEMyNS4xMjAxLDIuMjIyMSAyNi4wMTYxLDMuMTE4MSAyNi4wMTYxLDQuMjIyMSBDMjYuMDE2MSw1LjMyNjEgMjUuMTIwMSw2LjIyMjEgMjQuMDE2MSw2LjIyMjEgQzIyLjkxMjEsNi4yMjIxIDIyLjAxNjEsNS4zMjYxIDIyLjAxNjEsNC4yMjIxIEMyMi4wMTkxLDMuMTE4MSAyMi45MTMxLDIuMjI1MSAyNC4wMTYxLDIuMjIyMSBNMjQuMDE2MSwyMC4wMDAxIEMyMy4zMDUxLDE5Ljk5ODEgMjIuNjA5MSwyMC4yMDcxIDIyLjAxNjEsMjAuNjAwMSBMMTcuNDMwMSwxNi4wMDAxIEwxNi4wMTYxLDE3LjQxNDEgTDIwLjYxNjEsMjIuMDAwMSBDMjAuNDQwMSwyMi4zMTQxIDIwLjMwNjEsMjIuNjUxMSAyMC4yMTYxLDIzLjAwMDEgTDcuODc0MSwyMy4wMDAxIEM3Ljc3NDEsMjIuNjQ1MSA3LjYyMDEsMjIuMzA3MSA3LjQxNjEsMjIuMDAwMSBMMjIuMDE2MSw3LjQwMDEgQzIzLjgwNzEsOC41ODYxIDI2LjUzNzEsOC4wOTQxIDI3Ljc5NDEsNS4xOTgxIEMyNy45MTAxLDQuOTMyMSAyNy45OTIxLDQuNjQ0MSAyOC4wMTYxLDQuMzU1MSBDMjguMjIxMSwxLjk5NDEgMjYuMzcwMSwwLjAwOTEgMjQuMDQ4MSwwLjAwMDEgQzIyLjIxODEsLTAuMDA2OSAyMC42MTcxLDEuMjI4MSAyMC4xNTkxLDMuMDAwMSBMNy45MTYxLDMuMDAwMSBDNy40MzMxLDEuMjQwMSA1Ljg0MTEsMC4wMTUxIDQuMDE2MSwwLjAwMDEgQzEuNjc0MSwwLjAwMDEgLTAuMTk2OSwyLjAxMjEgMC4wMzYxLDQuNDAyMSBDMC4wNjcxLDQuNzIzMSAwLjE2MzEsNS4wNDExIDAuMjk5MSw1LjMzNTEgQzEuNTgyMSw4LjEwOTEgNC4yNTQxLDguNTY3MSA2LjAxNjEsNy40MDAxIEwxMC42MDIxLDEyLjAwMDEgTDEyLjAxNjEsMTAuNTg2MSBMNy40MTYxLDYuMDAwMSBDNy41OTIxLDUuNjg1MSA3LjcyNjEsNS4zNDkxIDcuODE2MSw1LjAwMDEgTDIwLjE1ODEsNS4wMDAxIEMyMC4yNTgxLDUuMzU1MSAyMC40MTIxLDUuNjkyMSAyMC42MTYxLDYuMDAwMSBMNi4wMTYxLDIwLjYwMDEgQzQuMjI0MSwxOS40MTMxIDEuNDk0MSwxOS45MDcxIDAuMjM3MSwyMi44MDUxIEMwLjEyMjEsMjMuMDcwMSAwLjA0MDEsMjMuMzU3MSAwLjAxNjEsMjMuNjQ1MSBDLTAuMTg3OSwyNi4wMDYxIDEuNjYzMSwyNy45OTExIDMuOTg0MSwyOC4wMDAxIEM1LjgxNDEsMjguMDA3MSA3LjQxNTEsMjYuNzcyMSA3Ljg3MzEsMjUuMDAwMSBMMjAuMTE2MSwyNS4wMDAxIEMyMC43MjkxLDI3LjQxMzEgMjMuNDEyMSwyOC43NTUxIDI1Ljc4NzEsMjcuNjEwMSBDMjcuMTAzMSwyNi45NzUxIDI3Ljk4NzEsMjUuNjA0MSAyOC4wMTgxLDI0LjE0MzEgQzI4LjA2ODEsMjEuNzk1MSAyNi4yMTIxLDIwLjAwNjEgMjQuMDE2MSwyMC4wMDAxIiBpZD0iRmlsbC0xIj48L3BhdGg+CiAgICAgICAgPC9nPgogICAgPC9nPgo8L3N2Zz4=;" parent="E5_EzEregts5peD-AZ1d-82" vertex="1">
          <mxGeometry x="20" y="7" width="20" height="20" as="geometry" />
        </mxCell>
        <mxCell id="QTtVWzLK6MqBhSYwqH0o-35" value="&lt;font color=&quot;#000000&quot;&gt;VPC Endpoint&lt;/font&gt;" style="rounded=1;whiteSpace=wrap;html=1;fillColor=#0050ef;strokeColor=#001DBC;shadow=0;sketch=1;curveFitting=1;jiggle=2;fontColor=#ffffff;labelPosition=center;verticalLabelPosition=bottom;align=center;verticalAlign=top;" parent="E5_EzEregts5peD-AZ1d-82" vertex="1">
          <mxGeometry x="50" y="57" width="40" height="36" as="geometry" />
        </mxCell>
        <mxCell id="E5_EzEregts5peD-AZ1d-57" value="" style="rounded=0;whiteSpace=wrap;html=1;fontFamily=IBM Plex Sans;fontSource=fonts%2FIBMPlexSans-Regular.woff;fontSize=14;spacingBottom=-28;spacingTop=0;labelPosition=-100;verticalLabelPosition=top;align=center;verticalAlign=bottom;spacingLeft=9;spacing=0;expand=0;recursiveResize=0;spacingRight=0;container=1;collapsible=0;strokeColor=#1192E8;fillColor=none;" parent="E5_EzEregts5peD-AZ1d-47" vertex="1">
          <mxGeometry x="-9723" y="-5255" width="140" height="150" as="geometry">
            <mxRectangle width="670" as="alternateBounds" />
          </mxGeometry>
        </mxCell>
        <mxCell id="E5_EzEregts5peD-AZ1d-58" value="" style="rounded=0;whiteSpace=wrap;html=1;strokeColor=none;fillColor=#1192E8;" parent="E5_EzEregts5peD-AZ1d-57" vertex="1">
          <mxGeometry width="7" height="37" as="geometry" />
        </mxCell>
        <mxCell id="E5_EzEregts5peD-AZ1d-59" value="&lt;font style=&quot;font-size: 12px;&quot;&gt;10.10.10.0/24&lt;/font&gt;" style="text;html=1;strokeColor=none;fillColor=none;align=left;verticalAlign=middle;whiteSpace=wrap;rounded=0;fontFamily=IBM Plex Sans;fontSource=fonts%2FIBMPlexSans-Regular.woff;fontSize=14;" parent="E5_EzEregts5peD-AZ1d-57" vertex="1">
          <mxGeometry x="51" y="8" width="99" height="20" as="geometry" />
        </mxCell>
        <mxCell id="E5_EzEregts5peD-AZ1d-60" value="" style="shape=image;aspect=fixed;image=data:image/svg+xml,PD94bWwgdmVyc2lvbj0iMS4wIiBlbmNvZGluZz0iVVRGLTgiPz4KPHN2ZyB3aWR0aD0iMjlweCIgaGVpZ2h0PSIyOXB4IiB2aWV3Qm94PSIwIDAgMjkgMjkiIHZlcnNpb249IjEuMSIgeG1sbnM9Imh0dHA6Ly93d3cudzMub3JnLzIwMDAvc3ZnIiB4bWxuczp4bGluaz0iaHR0cDovL3d3dy53My5vcmcvMTk5OS94bGluayI+CiAgICA8IS0tIEdlbmVyYXRvcjogU2tldGNoIDUzICg3MjUyMCkgLSBodHRwczovL3NrZXRjaGFwcC5jb20gLS0+CiAgICA8dGl0bGU+SUJNIFN1Ym5ldCA6IEFDTCBCbGFjazwvdGl0bGU+CiAgICA8ZGVzYz5DcmVhdGVkIHdpdGggU2tldGNoLjwvZGVzYz4KICAgIDxnIGlkPSJQYWdlLTEiIHN0cm9rZT0ibm9uZSIgc3Ryb2tlLXdpZHRoPSIxIiBmaWxsPSJub25lIiBmaWxsLXJ1bGU9ImV2ZW5vZGQiPgogICAgICAgIDxnIGlkPSJJQk0tU3VibmV0LTotQUNMLUJsYWNrIiB0cmFuc2Zvcm09InRyYW5zbGF0ZSgwLjc1MDAwMCwgMC4wNzQ5NTkpIiBmaWxsPSIjMDAwMDAwIj4KICAgICAgICAgICAgPHBhdGggZD0iTTI0LjAxNjEsMjYuMjIyMSBDMjIuOTEyMSwyNi4yMjIxIDIyLjAxNjEsMjUuMzI2MSAyMi4wMTYxLDI0LjIyMjEgQzIyLjAxNjEsMjMuMTE4MSAyMi45MTIxLDIyLjIyMjEgMjQuMDE2MSwyMi4yMjIxIEMyNS4xMjAxLDIyLjIyMjEgMjYuMDE2MSwyMy4xMTgxIDI2LjAxNjEsMjQuMjIyMSBDMjYuMDEzMSwyNS4zMjUxIDI1LjExOTEsMjYuMjE5MSAyNC4wMTYxLDI2LjIyMjEgTTQuMDE2MSwyNi4yMjIxIEMyLjkxMjEsMjYuMjIyMSAyLjAxNjEsMjUuMzI2MSAyLjAxNjEsMjQuMjIyMSBDMi4wMTYxLDIzLjExODEgMi45MTIxLDIyLjIyMjEgNC4wMTYxLDIyLjIyMjEgQzUuMTIwMSwyMi4yMjIxIDYuMDE2MSwyMy4xMTgxIDYuMDE2MSwyNC4yMjIxIEM2LjAxMzEsMjUuMzI1MSA1LjExOTEsMjYuMjE5MSA0LjAxNjEsMjYuMjIyMSBNNC4wMTYxLDYuMjIyMSBDMi45MTIxLDYuMjIyMSAyLjAxNjEsNS4zMjYxIDIuMDE2MSw0LjIyMjEgQzIuMDE2MSwzLjExODEgMi45MTIxLDIuMjIyMSA0LjAxNjEsMi4yMjIxIEM1LjEyMDEsMi4yMjIxIDYuMDE2MSwzLjExODEgNi4wMTYxLDQuMjIyMSBDNi4wMTMxLDUuMzI1MSA1LjExOTEsNi4yMTkxIDQuMDE2MSw2LjIyMjEgTTI0LjAxNjEsMi4yMjIxIEMyNS4xMjAxLDIuMjIyMSAyNi4wMTYxLDMuMTE4MSAyNi4wMTYxLDQuMjIyMSBDMjYuMDE2MSw1LjMyNjEgMjUuMTIwMSw2LjIyMjEgMjQuMDE2MSw2LjIyMjEgQzIyLjkxMjEsNi4yMjIxIDIyLjAxNjEsNS4zMjYxIDIyLjAxNjEsNC4yMjIxIEMyMi4wMTkxLDMuMTE4MSAyMi45MTMxLDIuMjI1MSAyNC4wMTYxLDIuMjIyMSBNMjQuMDE2MSwyMC4wMDAxIEMyMy4zMDUxLDE5Ljk5ODEgMjIuNjA5MSwyMC4yMDcxIDIyLjAxNjEsMjAuNjAwMSBMMTcuNDMwMSwxNi4wMDAxIEwxNi4wMTYxLDE3LjQxNDEgTDIwLjYxNjEsMjIuMDAwMSBDMjAuNDQwMSwyMi4zMTQxIDIwLjMwNjEsMjIuNjUxMSAyMC4yMTYxLDIzLjAwMDEgTDcuODc0MSwyMy4wMDAxIEM3Ljc3NDEsMjIuNjQ1MSA3LjYyMDEsMjIuMzA3MSA3LjQxNjEsMjIuMDAwMSBMMjIuMDE2MSw3LjQwMDEgQzIzLjgwNzEsOC41ODYxIDI2LjUzNzEsOC4wOTQxIDI3Ljc5NDEsNS4xOTgxIEMyNy45MTAxLDQuOTMyMSAyNy45OTIxLDQuNjQ0MSAyOC4wMTYxLDQuMzU1MSBDMjguMjIxMSwxLjk5NDEgMjYuMzcwMSwwLjAwOTEgMjQuMDQ4MSwwLjAwMDEgQzIyLjIxODEsLTAuMDA2OSAyMC42MTcxLDEuMjI4MSAyMC4xNTkxLDMuMDAwMSBMNy45MTYxLDMuMDAwMSBDNy40MzMxLDEuMjQwMSA1Ljg0MTEsMC4wMTUxIDQuMDE2MSwwLjAwMDEgQzEuNjc0MSwwLjAwMDEgLTAuMTk2OSwyLjAxMjEgMC4wMzYxLDQuNDAyMSBDMC4wNjcxLDQuNzIzMSAwLjE2MzEsNS4wNDExIDAuMjk5MSw1LjMzNTEgQzEuNTgyMSw4LjEwOTEgNC4yNTQxLDguNTY3MSA2LjAxNjEsNy40MDAxIEwxMC42MDIxLDEyLjAwMDEgTDEyLjAxNjEsMTAuNTg2MSBMNy40MTYxLDYuMDAwMSBDNy41OTIxLDUuNjg1MSA3LjcyNjEsNS4zNDkxIDcuODE2MSw1LjAwMDEgTDIwLjE1ODEsNS4wMDAxIEMyMC4yNTgxLDUuMzU1MSAyMC40MTIxLDUuNjkyMSAyMC42MTYxLDYuMDAwMSBMNi4wMTYxLDIwLjYwMDEgQzQuMjI0MSwxOS40MTMxIDEuNDk0MSwxOS45MDcxIDAuMjM3MSwyMi44MDUxIEMwLjEyMjEsMjMuMDcwMSAwLjA0MDEsMjMuMzU3MSAwLjAxNjEsMjMuNjQ1MSBDLTAuMTg3OSwyNi4wMDYxIDEuNjYzMSwyNy45OTExIDMuOTg0MSwyOC4wMDAxIEM1LjgxNDEsMjguMDA3MSA3LjQxNTEsMjYuNzcyMSA3Ljg3MzEsMjUuMDAwMSBMMjAuMTE2MSwyNS4wMDAxIEMyMC43MjkxLDI3LjQxMzEgMjMuNDEyMSwyOC43NTUxIDI1Ljc4NzEsMjcuNjEwMSBDMjcuMTAzMSwyNi45NzUxIDI3Ljk4NzEsMjUuNjA0MSAyOC4wMTgxLDI0LjE0MzEgQzI4LjA2ODEsMjEuNzk1MSAyNi4yMTIxLDIwLjAwNjEgMjQuMDE2MSwyMC4wMDAxIiBpZD0iRmlsbC0xIj48L3BhdGg+CiAgICAgICAgPC9nPgogICAgPC9nPgo8L3N2Zz4=;" parent="E5_EzEregts5peD-AZ1d-57" vertex="1">
          <mxGeometry x="20" y="7" width="20" height="20" as="geometry" />
        </mxCell>
        <mxCell id="QTtVWzLK6MqBhSYwqH0o-31" value="&lt;font color=&quot;#000000&quot;&gt;Virtual Server&lt;/font&gt;" style="rounded=1;whiteSpace=wrap;html=1;fillColor=#60a917;strokeColor=#2D7600;shadow=0;sketch=1;curveFitting=1;jiggle=2;fontColor=#ffffff;labelPosition=center;verticalLabelPosition=bottom;align=center;verticalAlign=top;" parent="E5_EzEregts5peD-AZ1d-57" vertex="1">
          <mxGeometry x="51" y="58" width="38" height="36" as="geometry" />
        </mxCell>
        <mxCell id="E5_EzEregts5peD-AZ1d-70" value="" style="rounded=0;whiteSpace=wrap;html=1;fontFamily=IBM Plex Sans;fontSource=fonts%2FIBMPlexSans-Regular.woff;fontSize=14;spacingBottom=-28;spacingTop=0;labelPosition=-100;verticalLabelPosition=top;align=center;verticalAlign=bottom;spacingLeft=9;spacing=0;expand=0;recursiveResize=0;spacingRight=0;container=1;collapsible=0;strokeColor=#1192E8;fillColor=none;" parent="E5_EzEregts5peD-AZ1d-47" vertex="1">
          <mxGeometry x="-9550" y="-5255" width="140" height="150" as="geometry">
            <mxRectangle width="670" as="alternateBounds" />
          </mxGeometry>
        </mxCell>
        <mxCell id="E5_EzEregts5peD-AZ1d-71" value="" style="rounded=0;whiteSpace=wrap;html=1;strokeColor=none;fillColor=#1192E8;" parent="E5_EzEregts5peD-AZ1d-70" vertex="1">
          <mxGeometry width="7" height="37" as="geometry" />
        </mxCell>
        <mxCell id="E5_EzEregts5peD-AZ1d-72" value="&lt;font style=&quot;font-size: 12px;&quot;&gt;10.20.10.0/24&lt;/font&gt;" style="text;html=1;strokeColor=none;fillColor=none;align=left;verticalAlign=middle;whiteSpace=wrap;rounded=0;fontFamily=IBM Plex Sans;fontSource=fonts%2FIBMPlexSans-Regular.woff;fontSize=14;" parent="E5_EzEregts5peD-AZ1d-70" vertex="1">
          <mxGeometry x="51" y="8" width="99" height="20" as="geometry" />
        </mxCell>
        <mxCell id="E5_EzEregts5peD-AZ1d-73" value="" style="shape=image;aspect=fixed;image=data:image/svg+xml,PD94bWwgdmVyc2lvbj0iMS4wIiBlbmNvZGluZz0iVVRGLTgiPz4KPHN2ZyB3aWR0aD0iMjlweCIgaGVpZ2h0PSIyOXB4IiB2aWV3Qm94PSIwIDAgMjkgMjkiIHZlcnNpb249IjEuMSIgeG1sbnM9Imh0dHA6Ly93d3cudzMub3JnLzIwMDAvc3ZnIiB4bWxuczp4bGluaz0iaHR0cDovL3d3dy53My5vcmcvMTk5OS94bGluayI+CiAgICA8IS0tIEdlbmVyYXRvcjogU2tldGNoIDUzICg3MjUyMCkgLSBodHRwczovL3NrZXRjaGFwcC5jb20gLS0+CiAgICA8dGl0bGU+SUJNIFN1Ym5ldCA6IEFDTCBCbGFjazwvdGl0bGU+CiAgICA8ZGVzYz5DcmVhdGVkIHdpdGggU2tldGNoLjwvZGVzYz4KICAgIDxnIGlkPSJQYWdlLTEiIHN0cm9rZT0ibm9uZSIgc3Ryb2tlLXdpZHRoPSIxIiBmaWxsPSJub25lIiBmaWxsLXJ1bGU9ImV2ZW5vZGQiPgogICAgICAgIDxnIGlkPSJJQk0tU3VibmV0LTotQUNMLUJsYWNrIiB0cmFuc2Zvcm09InRyYW5zbGF0ZSgwLjc1MDAwMCwgMC4wNzQ5NTkpIiBmaWxsPSIjMDAwMDAwIj4KICAgICAgICAgICAgPHBhdGggZD0iTTI0LjAxNjEsMjYuMjIyMSBDMjIuOTEyMSwyNi4yMjIxIDIyLjAxNjEsMjUuMzI2MSAyMi4wMTYxLDI0LjIyMjEgQzIyLjAxNjEsMjMuMTE4MSAyMi45MTIxLDIyLjIyMjEgMjQuMDE2MSwyMi4yMjIxIEMyNS4xMjAxLDIyLjIyMjEgMjYuMDE2MSwyMy4xMTgxIDI2LjAxNjEsMjQuMjIyMSBDMjYuMDEzMSwyNS4zMjUxIDI1LjExOTEsMjYuMjE5MSAyNC4wMTYxLDI2LjIyMjEgTTQuMDE2MSwyNi4yMjIxIEMyLjkxMjEsMjYuMjIyMSAyLjAxNjEsMjUuMzI2MSAyLjAxNjEsMjQuMjIyMSBDMi4wMTYxLDIzLjExODEgMi45MTIxLDIyLjIyMjEgNC4wMTYxLDIyLjIyMjEgQzUuMTIwMSwyMi4yMjIxIDYuMDE2MSwyMy4xMTgxIDYuMDE2MSwyNC4yMjIxIEM2LjAxMzEsMjUuMzI1MSA1LjExOTEsMjYuMjE5MSA0LjAxNjEsMjYuMjIyMSBNNC4wMTYxLDYuMjIyMSBDMi45MTIxLDYuMjIyMSAyLjAxNjEsNS4zMjYxIDIuMDE2MSw0LjIyMjEgQzIuMDE2MSwzLjExODEgMi45MTIxLDIuMjIyMSA0LjAxNjEsMi4yMjIxIEM1LjEyMDEsMi4yMjIxIDYuMDE2MSwzLjExODEgNi4wMTYxLDQuMjIyMSBDNi4wMTMxLDUuMzI1MSA1LjExOTEsNi4yMTkxIDQuMDE2MSw2LjIyMjEgTTI0LjAxNjEsMi4yMjIxIEMyNS4xMjAxLDIuMjIyMSAyNi4wMTYxLDMuMTE4MSAyNi4wMTYxLDQuMjIyMSBDMjYuMDE2MSw1LjMyNjEgMjUuMTIwMSw2LjIyMjEgMjQuMDE2MSw2LjIyMjEgQzIyLjkxMjEsNi4yMjIxIDIyLjAxNjEsNS4zMjYxIDIyLjAxNjEsNC4yMjIxIEMyMi4wMTkxLDMuMTE4MSAyMi45MTMxLDIuMjI1MSAyNC4wMTYxLDIuMjIyMSBNMjQuMDE2MSwyMC4wMDAxIEMyMy4zMDUxLDE5Ljk5ODEgMjIuNjA5MSwyMC4yMDcxIDIyLjAxNjEsMjAuNjAwMSBMMTcuNDMwMSwxNi4wMDAxIEwxNi4wMTYxLDE3LjQxNDEgTDIwLjYxNjEsMjIuMDAwMSBDMjAuNDQwMSwyMi4zMTQxIDIwLjMwNjEsMjIuNjUxMSAyMC4yMTYxLDIzLjAwMDEgTDcuODc0MSwyMy4wMDAxIEM3Ljc3NDEsMjIuNjQ1MSA3LjYyMDEsMjIuMzA3MSA3LjQxNjEsMjIuMDAwMSBMMjIuMDE2MSw3LjQwMDEgQzIzLjgwNzEsOC41ODYxIDI2LjUzNzEsOC4wOTQxIDI3Ljc5NDEsNS4xOTgxIEMyNy45MTAxLDQuOTMyMSAyNy45OTIxLDQuNjQ0MSAyOC4wMTYxLDQuMzU1MSBDMjguMjIxMSwxLjk5NDEgMjYuMzcwMSwwLjAwOTEgMjQuMDQ4MSwwLjAwMDEgQzIyLjIxODEsLTAuMDA2OSAyMC42MTcxLDEuMjI4MSAyMC4xNTkxLDMuMDAwMSBMNy45MTYxLDMuMDAwMSBDNy40MzMxLDEuMjQwMSA1Ljg0MTEsMC4wMTUxIDQuMDE2MSwwLjAwMDEgQzEuNjc0MSwwLjAwMDEgLTAuMTk2OSwyLjAxMjEgMC4wMzYxLDQuNDAyMSBDMC4wNjcxLDQuNzIzMSAwLjE2MzEsNS4wNDExIDAuMjk5MSw1LjMzNTEgQzEuNTgyMSw4LjEwOTEgNC4yNTQxLDguNTY3MSA2LjAxNjEsNy40MDAxIEwxMC42MDIxLDEyLjAwMDEgTDEyLjAxNjEsMTAuNTg2MSBMNy40MTYxLDYuMDAwMSBDNy41OTIxLDUuNjg1MSA3LjcyNjEsNS4zNDkxIDcuODE2MSw1LjAwMDEgTDIwLjE1ODEsNS4wMDAxIEMyMC4yNTgxLDUuMzU1MSAyMC40MTIxLDUuNjkyMSAyMC42MTYxLDYuMDAwMSBMNi4wMTYxLDIwLjYwMDEgQzQuMjI0MSwxOS40MTMxIDEuNDk0MSwxOS45MDcxIDAuMjM3MSwyMi44MDUxIEMwLjEyMjEsMjMuMDcwMSAwLjA0MDEsMjMuMzU3MSAwLjAxNjEsMjMuNjQ1MSBDLTAuMTg3OSwyNi4wMDYxIDEuNjYzMSwyNy45OTExIDMuOTg0MSwyOC4wMDAxIEM1LjgxNDEsMjguMDA3MSA3LjQxNTEsMjYuNzcyMSA3Ljg3MzEsMjUuMDAwMSBMMjAuMTE2MSwyNS4wMDAxIEMyMC43MjkxLDI3LjQxMzEgMjMuNDEyMSwyOC43NTUxIDI1Ljc4NzEsMjcuNjEwMSBDMjcuMTAzMSwyNi45NzUxIDI3Ljk4NzEsMjUuNjA0MSAyOC4wMTgxLDI0LjE0MzEgQzI4LjA2ODEsMjEuNzk1MSAyNi4yMTIxLDIwLjAwNjEgMjQuMDE2MSwyMC4wMDAxIiBpZD0iRmlsbC0xIj48L3BhdGg+CiAgICAgICAgPC9nPgogICAgPC9nPgo8L3N2Zz4=;" parent="E5_EzEregts5peD-AZ1d-70" vertex="1">
          <mxGeometry x="20" y="7" width="20" height="20" as="geometry" />
        </mxCell>
        <mxCell id="QTtVWzLK6MqBhSYwqH0o-30" value="&lt;font color=&quot;#000000&quot;&gt;Virtual Server&lt;/font&gt;" style="rounded=1;whiteSpace=wrap;html=1;fillColor=#60a917;strokeColor=#2D7600;shadow=0;sketch=1;curveFitting=1;jiggle=2;fontColor=#ffffff;labelPosition=center;verticalLabelPosition=bottom;align=center;verticalAlign=top;" parent="E5_EzEregts5peD-AZ1d-70" vertex="1">
          <mxGeometry x="54" y="58" width="38" height="36" as="geometry" />
        </mxCell>
        <mxCell id="E5_EzEregts5peD-AZ1d-95" value="" style="rounded=0;whiteSpace=wrap;html=1;fontFamily=IBM Plex Sans;fontSource=fonts%2FIBMPlexSans-Regular.woff;fontSize=14;spacingBottom=-28;spacingTop=0;labelPosition=-100;verticalLabelPosition=top;align=center;verticalAlign=bottom;spacingLeft=9;spacing=0;expand=0;recursiveResize=0;spacingRight=0;container=1;collapsible=0;strokeColor=#1192E8;fillColor=none;" parent="E5_EzEregts5peD-AZ1d-47" vertex="1">
          <mxGeometry x="-9380" y="-5255" width="140" height="150" as="geometry">
            <mxRectangle width="670" as="alternateBounds" />
          </mxGeometry>
        </mxCell>
        <mxCell id="E5_EzEregts5peD-AZ1d-96" value="" style="rounded=0;whiteSpace=wrap;html=1;strokeColor=none;fillColor=#1192E8;" parent="E5_EzEregts5peD-AZ1d-95" vertex="1">
          <mxGeometry width="7" height="37" as="geometry" />
        </mxCell>
        <mxCell id="E5_EzEregts5peD-AZ1d-97" value="&lt;font style=&quot;font-size: 12px;&quot;&gt;10.30.10.0/24&lt;/font&gt;" style="text;html=1;strokeColor=none;fillColor=none;align=left;verticalAlign=middle;whiteSpace=wrap;rounded=0;fontFamily=IBM Plex Sans;fontSource=fonts%2FIBMPlexSans-Regular.woff;fontSize=14;" parent="E5_EzEregts5peD-AZ1d-95" vertex="1">
          <mxGeometry x="51" y="8" width="99" height="20" as="geometry" />
        </mxCell>
        <mxCell id="E5_EzEregts5peD-AZ1d-98" value="" style="shape=image;aspect=fixed;image=data:image/svg+xml,PD94bWwgdmVyc2lvbj0iMS4wIiBlbmNvZGluZz0iVVRGLTgiPz4KPHN2ZyB3aWR0aD0iMjlweCIgaGVpZ2h0PSIyOXB4IiB2aWV3Qm94PSIwIDAgMjkgMjkiIHZlcnNpb249IjEuMSIgeG1sbnM9Imh0dHA6Ly93d3cudzMub3JnLzIwMDAvc3ZnIiB4bWxuczp4bGluaz0iaHR0cDovL3d3dy53My5vcmcvMTk5OS94bGluayI+CiAgICA8IS0tIEdlbmVyYXRvcjogU2tldGNoIDUzICg3MjUyMCkgLSBodHRwczovL3NrZXRjaGFwcC5jb20gLS0+CiAgICA8dGl0bGU+SUJNIFN1Ym5ldCA6IEFDTCBCbGFjazwvdGl0bGU+CiAgICA8ZGVzYz5DcmVhdGVkIHdpdGggU2tldGNoLjwvZGVzYz4KICAgIDxnIGlkPSJQYWdlLTEiIHN0cm9rZT0ibm9uZSIgc3Ryb2tlLXdpZHRoPSIxIiBmaWxsPSJub25lIiBmaWxsLXJ1bGU9ImV2ZW5vZGQiPgogICAgICAgIDxnIGlkPSJJQk0tU3VibmV0LTotQUNMLUJsYWNrIiB0cmFuc2Zvcm09InRyYW5zbGF0ZSgwLjc1MDAwMCwgMC4wNzQ5NTkpIiBmaWxsPSIjMDAwMDAwIj4KICAgICAgICAgICAgPHBhdGggZD0iTTI0LjAxNjEsMjYuMjIyMSBDMjIuOTEyMSwyNi4yMjIxIDIyLjAxNjEsMjUuMzI2MSAyMi4wMTYxLDI0LjIyMjEgQzIyLjAxNjEsMjMuMTE4MSAyMi45MTIxLDIyLjIyMjEgMjQuMDE2MSwyMi4yMjIxIEMyNS4xMjAxLDIyLjIyMjEgMjYuMDE2MSwyMy4xMTgxIDI2LjAxNjEsMjQuMjIyMSBDMjYuMDEzMSwyNS4zMjUxIDI1LjExOTEsMjYuMjE5MSAyNC4wMTYxLDI2LjIyMjEgTTQuMDE2MSwyNi4yMjIxIEMyLjkxMjEsMjYuMjIyMSAyLjAxNjEsMjUuMzI2MSAyLjAxNjEsMjQuMjIyMSBDMi4wMTYxLDIzLjExODEgMi45MTIxLDIyLjIyMjEgNC4wMTYxLDIyLjIyMjEgQzUuMTIwMSwyMi4yMjIxIDYuMDE2MSwyMy4xMTgxIDYuMDE2MSwyNC4yMjIxIEM2LjAxMzEsMjUuMzI1MSA1LjExOTEsMjYuMjE5MSA0LjAxNjEsMjYuMjIyMSBNNC4wMTYxLDYuMjIyMSBDMi45MTIxLDYuMjIyMSAyLjAxNjEsNS4zMjYxIDIuMDE2MSw0LjIyMjEgQzIuMDE2MSwzLjExODEgMi45MTIxLDIuMjIyMSA0LjAxNjEsMi4yMjIxIEM1LjEyMDEsMi4yMjIxIDYuMDE2MSwzLjExODEgNi4wMTYxLDQuMjIyMSBDNi4wMTMxLDUuMzI1MSA1LjExOTEsNi4yMTkxIDQuMDE2MSw2LjIyMjEgTTI0LjAxNjEsMi4yMjIxIEMyNS4xMjAxLDIuMjIyMSAyNi4wMTYxLDMuMTE4MSAyNi4wMTYxLDQuMjIyMSBDMjYuMDE2MSw1LjMyNjEgMjUuMTIwMSw2LjIyMjEgMjQuMDE2MSw2LjIyMjEgQzIyLjkxMjEsNi4yMjIxIDIyLjAxNjEsNS4zMjYxIDIyLjAxNjEsNC4yMjIxIEMyMi4wMTkxLDMuMTE4MSAyMi45MTMxLDIuMjI1MSAyNC4wMTYxLDIuMjIyMSBNMjQuMDE2MSwyMC4wMDAxIEMyMy4zMDUxLDE5Ljk5ODEgMjIuNjA5MSwyMC4yMDcxIDIyLjAxNjEsMjAuNjAwMSBMMTcuNDMwMSwxNi4wMDAxIEwxNi4wMTYxLDE3LjQxNDEgTDIwLjYxNjEsMjIuMDAwMSBDMjAuNDQwMSwyMi4zMTQxIDIwLjMwNjEsMjIuNjUxMSAyMC4yMTYxLDIzLjAwMDEgTDcuODc0MSwyMy4wMDAxIEM3Ljc3NDEsMjIuNjQ1MSA3LjYyMDEsMjIuMzA3MSA3LjQxNjEsMjIuMDAwMSBMMjIuMDE2MSw3LjQwMDEgQzIzLjgwNzEsOC41ODYxIDI2LjUzNzEsOC4wOTQxIDI3Ljc5NDEsNS4xOTgxIEMyNy45MTAxLDQuOTMyMSAyNy45OTIxLDQuNjQ0MSAyOC4wMTYxLDQuMzU1MSBDMjguMjIxMSwxLjk5NDEgMjYuMzcwMSwwLjAwOTEgMjQuMDQ4MSwwLjAwMDEgQzIyLjIxODEsLTAuMDA2OSAyMC42MTcxLDEuMjI4MSAyMC4xNTkxLDMuMDAwMSBMNy45MTYxLDMuMDAwMSBDNy40MzMxLDEuMjQwMSA1Ljg0MTEsMC4wMTUxIDQuMDE2MSwwLjAwMDEgQzEuNjc0MSwwLjAwMDEgLTAuMTk2OSwyLjAxMjEgMC4wMzYxLDQuNDAyMSBDMC4wNjcxLDQuNzIzMSAwLjE2MzEsNS4wNDExIDAuMjk5MSw1LjMzNTEgQzEuNTgyMSw4LjEwOTEgNC4yNTQxLDguNTY3MSA2LjAxNjEsNy40MDAxIEwxMC42MDIxLDEyLjAwMDEgTDEyLjAxNjEsMTAuNTg2MSBMNy40MTYxLDYuMDAwMSBDNy41OTIxLDUuNjg1MSA3LjcyNjEsNS4zNDkxIDcuODE2MSw1LjAwMDEgTDIwLjE1ODEsNS4wMDAxIEMyMC4yNTgxLDUuMzU1MSAyMC40MTIxLDUuNjkyMSAyMC42MTYxLDYuMDAwMSBMNi4wMTYxLDIwLjYwMDEgQzQuMjI0MSwxOS40MTMxIDEuNDk0MSwxOS45MDcxIDAuMjM3MSwyMi44MDUxIEMwLjEyMjEsMjMuMDcwMSAwLjA0MDEsMjMuMzU3MSAwLjAxNjEsMjMuNjQ1MSBDLTAuMTg3OSwyNi4wMDYxIDEuNjYzMSwyNy45OTExIDMuOTg0MSwyOC4wMDAxIEM1LjgxNDEsMjguMDA3MSA3LjQxNTEsMjYuNzcyMSA3Ljg3MzEsMjUuMDAwMSBMMjAuMTE2MSwyNS4wMDAxIEMyMC43MjkxLDI3LjQxMzEgMjMuNDEyMSwyOC43NTUxIDI1Ljc4NzEsMjcuNjEwMSBDMjcuMTAzMSwyNi45NzUxIDI3Ljk4NzEsMjUuNjA0MSAyOC4wMTgxLDI0LjE0MzEgQzI4LjA2ODEsMjEuNzk1MSAyNi4yMTIxLDIwLjAwNjEgMjQuMDE2MSwyMC4wMDAxIiBpZD0iRmlsbC0xIj48L3BhdGg+CiAgICAgICAgPC9nPgogICAgPC9nPgo8L3N2Zz4=;" parent="E5_EzEregts5peD-AZ1d-95" vertex="1">
          <mxGeometry x="20" y="7" width="20" height="20" as="geometry" />
        </mxCell>
        <mxCell id="QTtVWzLK6MqBhSYwqH0o-32" value="&lt;font color=&quot;#000000&quot;&gt;Virtual Server&lt;/font&gt;" style="rounded=1;whiteSpace=wrap;html=1;fillColor=#60a917;strokeColor=#2D7600;shadow=0;sketch=1;curveFitting=1;jiggle=2;fontColor=#ffffff;labelPosition=center;verticalLabelPosition=bottom;align=center;verticalAlign=top;" parent="E5_EzEregts5peD-AZ1d-95" vertex="1">
          <mxGeometry x="52" y="58" width="38" height="36" as="geometry" />
        </mxCell>
        <mxCell id="E5_EzEregts5peD-AZ1d-74" value="" style="rounded=0;whiteSpace=wrap;html=1;fontFamily=IBM Plex Sans;fontSource=fonts%2FIBMPlexSans-Regular.woff;fontSize=14;spacingBottom=-28;spacingTop=0;labelPosition=-100;verticalLabelPosition=top;align=center;verticalAlign=bottom;spacingLeft=9;spacing=0;expand=0;recursiveResize=0;spacingRight=0;container=1;collapsible=0;strokeColor=#1192E8;fillColor=none;" parent="E5_EzEregts5peD-AZ1d-47" vertex="1">
          <mxGeometry x="-9723" y="-5096" width="140" height="151" as="geometry">
            <mxRectangle width="670" as="alternateBounds" />
          </mxGeometry>
        </mxCell>
        <mxCell id="E5_EzEregts5peD-AZ1d-75" value="" style="rounded=0;whiteSpace=wrap;html=1;strokeColor=none;fillColor=#1192E8;" parent="E5_EzEregts5peD-AZ1d-74" vertex="1">
          <mxGeometry width="7" height="37" as="geometry" />
        </mxCell>
        <mxCell id="E5_EzEregts5peD-AZ1d-76" value="&lt;font style=&quot;font-size: 12px;&quot;&gt;10.10.20.0/24&lt;/font&gt;" style="text;html=1;strokeColor=none;fillColor=none;align=left;verticalAlign=middle;whiteSpace=wrap;rounded=0;fontFamily=IBM Plex Sans;fontSource=fonts%2FIBMPlexSans-Regular.woff;fontSize=14;" parent="E5_EzEregts5peD-AZ1d-74" vertex="1">
          <mxGeometry x="51" y="8" width="99" height="20" as="geometry" />
        </mxCell>
        <mxCell id="E5_EzEregts5peD-AZ1d-77" value="" style="shape=image;aspect=fixed;image=data:image/svg+xml,PD94bWwgdmVyc2lvbj0iMS4wIiBlbmNvZGluZz0iVVRGLTgiPz4KPHN2ZyB3aWR0aD0iMjlweCIgaGVpZ2h0PSIyOXB4IiB2aWV3Qm94PSIwIDAgMjkgMjkiIHZlcnNpb249IjEuMSIgeG1sbnM9Imh0dHA6Ly93d3cudzMub3JnLzIwMDAvc3ZnIiB4bWxuczp4bGluaz0iaHR0cDovL3d3dy53My5vcmcvMTk5OS94bGluayI+CiAgICA8IS0tIEdlbmVyYXRvcjogU2tldGNoIDUzICg3MjUyMCkgLSBodHRwczovL3NrZXRjaGFwcC5jb20gLS0+CiAgICA8dGl0bGU+SUJNIFN1Ym5ldCA6IEFDTCBCbGFjazwvdGl0bGU+CiAgICA8ZGVzYz5DcmVhdGVkIHdpdGggU2tldGNoLjwvZGVzYz4KICAgIDxnIGlkPSJQYWdlLTEiIHN0cm9rZT0ibm9uZSIgc3Ryb2tlLXdpZHRoPSIxIiBmaWxsPSJub25lIiBmaWxsLXJ1bGU9ImV2ZW5vZGQiPgogICAgICAgIDxnIGlkPSJJQk0tU3VibmV0LTotQUNMLUJsYWNrIiB0cmFuc2Zvcm09InRyYW5zbGF0ZSgwLjc1MDAwMCwgMC4wNzQ5NTkpIiBmaWxsPSIjMDAwMDAwIj4KICAgICAgICAgICAgPHBhdGggZD0iTTI0LjAxNjEsMjYuMjIyMSBDMjIuOTEyMSwyNi4yMjIxIDIyLjAxNjEsMjUuMzI2MSAyMi4wMTYxLDI0LjIyMjEgQzIyLjAxNjEsMjMuMTE4MSAyMi45MTIxLDIyLjIyMjEgMjQuMDE2MSwyMi4yMjIxIEMyNS4xMjAxLDIyLjIyMjEgMjYuMDE2MSwyMy4xMTgxIDI2LjAxNjEsMjQuMjIyMSBDMjYuMDEzMSwyNS4zMjUxIDI1LjExOTEsMjYuMjE5MSAyNC4wMTYxLDI2LjIyMjEgTTQuMDE2MSwyNi4yMjIxIEMyLjkxMjEsMjYuMjIyMSAyLjAxNjEsMjUuMzI2MSAyLjAxNjEsMjQuMjIyMSBDMi4wMTYxLDIzLjExODEgMi45MTIxLDIyLjIyMjEgNC4wMTYxLDIyLjIyMjEgQzUuMTIwMSwyMi4yMjIxIDYuMDE2MSwyMy4xMTgxIDYuMDE2MSwyNC4yMjIxIEM2LjAxMzEsMjUuMzI1MSA1LjExOTEsMjYuMjE5MSA0LjAxNjEsMjYuMjIyMSBNNC4wMTYxLDYuMjIyMSBDMi45MTIxLDYuMjIyMSAyLjAxNjEsNS4zMjYxIDIuMDE2MSw0LjIyMjEgQzIuMDE2MSwzLjExODEgMi45MTIxLDIuMjIyMSA0LjAxNjEsMi4yMjIxIEM1LjEyMDEsMi4yMjIxIDYuMDE2MSwzLjExODEgNi4wMTYxLDQuMjIyMSBDNi4wMTMxLDUuMzI1MSA1LjExOTEsNi4yMTkxIDQuMDE2MSw2LjIyMjEgTTI0LjAxNjEsMi4yMjIxIEMyNS4xMjAxLDIuMjIyMSAyNi4wMTYxLDMuMTE4MSAyNi4wMTYxLDQuMjIyMSBDMjYuMDE2MSw1LjMyNjEgMjUuMTIwMSw2LjIyMjEgMjQuMDE2MSw2LjIyMjEgQzIyLjkxMjEsNi4yMjIxIDIyLjAxNjEsNS4zMjYxIDIyLjAxNjEsNC4yMjIxIEMyMi4wMTkxLDMuMTE4MSAyMi45MTMxLDIuMjI1MSAyNC4wMTYxLDIuMjIyMSBNMjQuMDE2MSwyMC4wMDAxIEMyMy4zMDUxLDE5Ljk5ODEgMjIuNjA5MSwyMC4yMDcxIDIyLjAxNjEsMjAuNjAwMSBMMTcuNDMwMSwxNi4wMDAxIEwxNi4wMTYxLDE3LjQxNDEgTDIwLjYxNjEsMjIuMDAwMSBDMjAuNDQwMSwyMi4zMTQxIDIwLjMwNjEsMjIuNjUxMSAyMC4yMTYxLDIzLjAwMDEgTDcuODc0MSwyMy4wMDAxIEM3Ljc3NDEsMjIuNjQ1MSA3LjYyMDEsMjIuMzA3MSA3LjQxNjEsMjIuMDAwMSBMMjIuMDE2MSw3LjQwMDEgQzIzLjgwNzEsOC41ODYxIDI2LjUzNzEsOC4wOTQxIDI3Ljc5NDEsNS4xOTgxIEMyNy45MTAxLDQuOTMyMSAyNy45OTIxLDQuNjQ0MSAyOC4wMTYxLDQuMzU1MSBDMjguMjIxMSwxLjk5NDEgMjYuMzcwMSwwLjAwOTEgMjQuMDQ4MSwwLjAwMDEgQzIyLjIxODEsLTAuMDA2OSAyMC42MTcxLDEuMjI4MSAyMC4xNTkxLDMuMDAwMSBMNy45MTYxLDMuMDAwMSBDNy40MzMxLDEuMjQwMSA1Ljg0MTEsMC4wMTUxIDQuMDE2MSwwLjAwMDEgQzEuNjc0MSwwLjAwMDEgLTAuMTk2OSwyLjAxMjEgMC4wMzYxLDQuNDAyMSBDMC4wNjcxLDQuNzIzMSAwLjE2MzEsNS4wNDExIDAuMjk5MSw1LjMzNTEgQzEuNTgyMSw4LjEwOTEgNC4yNTQxLDguNTY3MSA2LjAxNjEsNy40MDAxIEwxMC42MDIxLDEyLjAwMDEgTDEyLjAxNjEsMTAuNTg2MSBMNy40MTYxLDYuMDAwMSBDNy41OTIxLDUuNjg1MSA3LjcyNjEsNS4zNDkxIDcuODE2MSw1LjAwMDEgTDIwLjE1ODEsNS4wMDAxIEMyMC4yNTgxLDUuMzU1MSAyMC40MTIxLDUuNjkyMSAyMC42MTYxLDYuMDAwMSBMNi4wMTYxLDIwLjYwMDEgQzQuMjI0MSwxOS40MTMxIDEuNDk0MSwxOS45MDcxIDAuMjM3MSwyMi44MDUxIEMwLjEyMjEsMjMuMDcwMSAwLjA0MDEsMjMuMzU3MSAwLjAxNjEsMjMuNjQ1MSBDLTAuMTg3OSwyNi4wMDYxIDEuNjYzMSwyNy45OTExIDMuOTg0MSwyOC4wMDAxIEM1LjgxNDEsMjguMDA3MSA3LjQxNTEsMjYuNzcyMSA3Ljg3MzEsMjUuMDAwMSBMMjAuMTE2MSwyNS4wMDAxIEMyMC43MjkxLDI3LjQxMzEgMjMuNDEyMSwyOC43NTUxIDI1Ljc4NzEsMjcuNjEwMSBDMjcuMTAzMSwyNi45NzUxIDI3Ljk4NzEsMjUuNjA0MSAyOC4wMTgxLDI0LjE0MzEgQzI4LjA2ODEsMjEuNzk1MSAyNi4yMTIxLDIwLjAwNjEgMjQuMDE2MSwyMC4wMDAxIiBpZD0iRmlsbC0xIj48L3BhdGg+CiAgICAgICAgPC9nPgogICAgPC9nPgo8L3N2Zz4=;" parent="E5_EzEregts5peD-AZ1d-74" vertex="1">
          <mxGeometry x="20" y="7" width="20" height="20" as="geometry" />
        </mxCell>
        <mxCell id="QTtVWzLK6MqBhSYwqH0o-34" value="&lt;font color=&quot;#000000&quot;&gt;VPC Endpoint&lt;/font&gt;" style="rounded=1;whiteSpace=wrap;html=1;fillColor=#0050ef;strokeColor=#001DBC;shadow=0;sketch=1;curveFitting=1;jiggle=2;fontColor=#ffffff;labelPosition=center;verticalLabelPosition=bottom;align=center;verticalAlign=top;" parent="E5_EzEregts5peD-AZ1d-74" vertex="1">
          <mxGeometry x="49" y="59" width="40" height="36" as="geometry" />
        </mxCell>
        <mxCell id="E5_EzEregts5peD-AZ1d-78" value="" style="rounded=0;whiteSpace=wrap;html=1;fontFamily=IBM Plex Sans;fontSource=fonts%2FIBMPlexSans-Regular.woff;fontSize=14;spacingBottom=-28;spacingTop=0;labelPosition=-100;verticalLabelPosition=top;align=center;verticalAlign=bottom;spacingLeft=9;spacing=0;expand=0;recursiveResize=0;spacingRight=0;container=1;collapsible=0;strokeColor=#1192E8;fillColor=none;" parent="E5_EzEregts5peD-AZ1d-47" vertex="1">
          <mxGeometry x="-9724" y="-4936" width="140" height="151" as="geometry">
            <mxRectangle width="670" as="alternateBounds" />
          </mxGeometry>
        </mxCell>
        <mxCell id="E5_EzEregts5peD-AZ1d-79" value="" style="rounded=0;whiteSpace=wrap;html=1;strokeColor=none;fillColor=#1192E8;" parent="E5_EzEregts5peD-AZ1d-78" vertex="1">
          <mxGeometry width="7" height="37" as="geometry" />
        </mxCell>
        <mxCell id="E5_EzEregts5peD-AZ1d-80" value="&lt;font style=&quot;font-size: 12px;&quot;&gt;10.10.30.0/24&lt;/font&gt;" style="text;html=1;strokeColor=none;fillColor=none;align=left;verticalAlign=middle;whiteSpace=wrap;rounded=0;fontFamily=IBM Plex Sans;fontSource=fonts%2FIBMPlexSans-Regular.woff;fontSize=14;" parent="E5_EzEregts5peD-AZ1d-78" vertex="1">
          <mxGeometry x="51" y="8" width="99" height="20" as="geometry" />
        </mxCell>
        <mxCell id="E5_EzEregts5peD-AZ1d-81" value="" style="shape=image;aspect=fixed;image=data:image/svg+xml,PD94bWwgdmVyc2lvbj0iMS4wIiBlbmNvZGluZz0iVVRGLTgiPz4KPHN2ZyB3aWR0aD0iMjlweCIgaGVpZ2h0PSIyOXB4IiB2aWV3Qm94PSIwIDAgMjkgMjkiIHZlcnNpb249IjEuMSIgeG1sbnM9Imh0dHA6Ly93d3cudzMub3JnLzIwMDAvc3ZnIiB4bWxuczp4bGluaz0iaHR0cDovL3d3dy53My5vcmcvMTk5OS94bGluayI+CiAgICA8IS0tIEdlbmVyYXRvcjogU2tldGNoIDUzICg3MjUyMCkgLSBodHRwczovL3NrZXRjaGFwcC5jb20gLS0+CiAgICA8dGl0bGU+SUJNIFN1Ym5ldCA6IEFDTCBCbGFjazwvdGl0bGU+CiAgICA8ZGVzYz5DcmVhdGVkIHdpdGggU2tldGNoLjwvZGVzYz4KICAgIDxnIGlkPSJQYWdlLTEiIHN0cm9rZT0ibm9uZSIgc3Ryb2tlLXdpZHRoPSIxIiBmaWxsPSJub25lIiBmaWxsLXJ1bGU9ImV2ZW5vZGQiPgogICAgICAgIDxnIGlkPSJJQk0tU3VibmV0LTotQUNMLUJsYWNrIiB0cmFuc2Zvcm09InRyYW5zbGF0ZSgwLjc1MDAwMCwgMC4wNzQ5NTkpIiBmaWxsPSIjMDAwMDAwIj4KICAgICAgICAgICAgPHBhdGggZD0iTTI0LjAxNjEsMjYuMjIyMSBDMjIuOTEyMSwyNi4yMjIxIDIyLjAxNjEsMjUuMzI2MSAyMi4wMTYxLDI0LjIyMjEgQzIyLjAxNjEsMjMuMTE4MSAyMi45MTIxLDIyLjIyMjEgMjQuMDE2MSwyMi4yMjIxIEMyNS4xMjAxLDIyLjIyMjEgMjYuMDE2MSwyMy4xMTgxIDI2LjAxNjEsMjQuMjIyMSBDMjYuMDEzMSwyNS4zMjUxIDI1LjExOTEsMjYuMjE5MSAyNC4wMTYxLDI2LjIyMjEgTTQuMDE2MSwyNi4yMjIxIEMyLjkxMjEsMjYuMjIyMSAyLjAxNjEsMjUuMzI2MSAyLjAxNjEsMjQuMjIyMSBDMi4wMTYxLDIzLjExODEgMi45MTIxLDIyLjIyMjEgNC4wMTYxLDIyLjIyMjEgQzUuMTIwMSwyMi4yMjIxIDYuMDE2MSwyMy4xMTgxIDYuMDE2MSwyNC4yMjIxIEM2LjAxMzEsMjUuMzI1MSA1LjExOTEsMjYuMjE5MSA0LjAxNjEsMjYuMjIyMSBNNC4wMTYxLDYuMjIyMSBDMi45MTIxLDYuMjIyMSAyLjAxNjEsNS4zMjYxIDIuMDE2MSw0LjIyMjEgQzIuMDE2MSwzLjExODEgMi45MTIxLDIuMjIyMSA0LjAxNjEsMi4yMjIxIEM1LjEyMDEsMi4yMjIxIDYuMDE2MSwzLjExODEgNi4wMTYxLDQuMjIyMSBDNi4wMTMxLDUuMzI1MSA1LjExOTEsNi4yMTkxIDQuMDE2MSw2LjIyMjEgTTI0LjAxNjEsMi4yMjIxIEMyNS4xMjAxLDIuMjIyMSAyNi4wMTYxLDMuMTE4MSAyNi4wMTYxLDQuMjIyMSBDMjYuMDE2MSw1LjMyNjEgMjUuMTIwMSw2LjIyMjEgMjQuMDE2MSw2LjIyMjEgQzIyLjkxMjEsNi4yMjIxIDIyLjAxNjEsNS4zMjYxIDIyLjAxNjEsNC4yMjIxIEMyMi4wMTkxLDMuMTE4MSAyMi45MTMxLDIuMjI1MSAyNC4wMTYxLDIuMjIyMSBNMjQuMDE2MSwyMC4wMDAxIEMyMy4zMDUxLDE5Ljk5ODEgMjIuNjA5MSwyMC4yMDcxIDIyLjAxNjEsMjAuNjAwMSBMMTcuNDMwMSwxNi4wMDAxIEwxNi4wMTYxLDE3LjQxNDEgTDIwLjYxNjEsMjIuMDAwMSBDMjAuNDQwMSwyMi4zMTQxIDIwLjMwNjEsMjIuNjUxMSAyMC4yMTYxLDIzLjAwMDEgTDcuODc0MSwyMy4wMDAxIEM3Ljc3NDEsMjIuNjQ1MSA3LjYyMDEsMjIuMzA3MSA3LjQxNjEsMjIuMDAwMSBMMjIuMDE2MSw3LjQwMDEgQzIzLjgwNzEsOC41ODYxIDI2LjUzNzEsOC4wOTQxIDI3Ljc5NDEsNS4xOTgxIEMyNy45MTAxLDQuOTMyMSAyNy45OTIxLDQuNjQ0MSAyOC4wMTYxLDQuMzU1MSBDMjguMjIxMSwxLjk5NDEgMjYuMzcwMSwwLjAwOTEgMjQuMDQ4MSwwLjAwMDEgQzIyLjIxODEsLTAuMDA2OSAyMC42MTcxLDEuMjI4MSAyMC4xNTkxLDMuMDAwMSBMNy45MTYxLDMuMDAwMSBDNy40MzMxLDEuMjQwMSA1Ljg0MTEsMC4wMTUxIDQuMDE2MSwwLjAwMDEgQzEuNjc0MSwwLjAwMDEgLTAuMTk2OSwyLjAxMjEgMC4wMzYxLDQuNDAyMSBDMC4wNjcxLDQuNzIzMSAwLjE2MzEsNS4wNDExIDAuMjk5MSw1LjMzNTEgQzEuNTgyMSw4LjEwOTEgNC4yNTQxLDguNTY3MSA2LjAxNjEsNy40MDAxIEwxMC42MDIxLDEyLjAwMDEgTDEyLjAxNjEsMTAuNTg2MSBMNy40MTYxLDYuMDAwMSBDNy41OTIxLDUuNjg1MSA3LjcyNjEsNS4zNDkxIDcuODE2MSw1LjAwMDEgTDIwLjE1ODEsNS4wMDAxIEMyMC4yNTgxLDUuMzU1MSAyMC40MTIxLDUuNjkyMSAyMC42MTYxLDYuMDAwMSBMNi4wMTYxLDIwLjYwMDEgQzQuMjI0MSwxOS40MTMxIDEuNDk0MSwxOS45MDcxIDAuMjM3MSwyMi44MDUxIEMwLjEyMjEsMjMuMDcwMSAwLjA0MDEsMjMuMzU3MSAwLjAxNjEsMjMuNjQ1MSBDLTAuMTg3OSwyNi4wMDYxIDEuNjYzMSwyNy45OTExIDMuOTg0MSwyOC4wMDAxIEM1LjgxNDEsMjguMDA3MSA3LjQxNTEsMjYuNzcyMSA3Ljg3MzEsMjUuMDAwMSBMMjAuMTE2MSwyNS4wMDAxIEMyMC43MjkxLDI3LjQxMzEgMjMuNDEyMSwyOC43NTUxIDI1Ljc4NzEsMjcuNjEwMSBDMjcuMTAzMSwyNi45NzUxIDI3Ljk4NzEsMjUuNjA0MSAyOC4wMTgxLDI0LjE0MzEgQzI4LjA2ODEsMjEuNzk1MSAyNi4yMTIxLDIwLjAwNjEgMjQuMDE2MSwyMC4wMDAxIiBpZD0iRmlsbC0xIj48L3BhdGg+CiAgICAgICAgPC9nPgogICAgPC9nPgo8L3N2Zz4=;" parent="E5_EzEregts5peD-AZ1d-78" vertex="1">
          <mxGeometry x="20" y="7" width="20" height="20" as="geometry" />
        </mxCell>
        <mxCell id="QTtVWzLK6MqBhSYwqH0o-18" value="&lt;font color=&quot;#000000&quot;&gt;site-to-site VPN&lt;/font&gt;" style="rounded=1;whiteSpace=wrap;html=1;fillColor=#e51400;strokeColor=#B20000;shadow=0;sketch=1;curveFitting=1;jiggle=2;labelPosition=center;verticalLabelPosition=bottom;align=center;verticalAlign=top;fontColor=#ffffff;" parent="E5_EzEregts5peD-AZ1d-78" vertex="1">
          <mxGeometry x="50" y="53" width="40" height="41" as="geometry" />
        </mxCell>
        <mxCell id="E5_EzEregts5peD-AZ1d-116" value="Management Security" parent="0" />
        <mxCell id="E5_EzEregts5peD-AZ1d-142" value="" style="rounded=0;whiteSpace=wrap;html=1;fontFamily=IBM Plex Sans;fontSource=fonts%2FIBMPlexSans-Regular.woff;fontSize=14;fillColor=none;spacingBottom=-28;spacingTop=0;labelPosition=-100;verticalLabelPosition=top;align=center;verticalAlign=bottom;spacingLeft=9;spacing=0;expand=0;recursiveResize=0;spacingRight=0;container=1;collapsible=0;strokeColor=#B8220B;strokeWidth=1;" parent="E5_EzEregts5peD-AZ1d-116" vertex="1">
          <mxGeometry x="-9736" y="-5275" width="516" height="490" as="geometry">
            <mxRectangle width="670" as="alternateBounds" />
          </mxGeometry>
        </mxCell>
        <mxCell id="E5_EzEregts5peD-AZ1d-143" value="" style="rounded=0;whiteSpace=wrap;html=1;strokeColor=none;fillColor=#FA4D56;fontFamily=IBM Plex Sans;fontSource=fonts%2FIBMPlexSans-Regular.woff;fontSize=14;" parent="E5_EzEregts5peD-AZ1d-142" vertex="1">
          <mxGeometry width="7" height="37" as="geometry" />
        </mxCell>
        <mxCell id="E5_EzEregts5peD-AZ1d-144" value="&lt;font style=&quot;font-size: 12px;&quot;&gt;Network ACL&lt;/font&gt;" style="text;html=1;strokeColor=none;fillColor=none;align=left;verticalAlign=middle;whiteSpace=wrap;rounded=0;fontFamily=IBM Plex Sans;fontSource=fonts%2FIBMPlexSans-Regular.woff;fontSize=14;" parent="E5_EzEregts5peD-AZ1d-142" vertex="1">
          <mxGeometry x="29" y="2" width="170" height="20" as="geometry" />
        </mxCell>
        <mxCell id="E5_EzEregts5peD-AZ1d-145" value="" style="shape=image;aspect=fixed;image=data:image/svg+xml,PHN2ZyBpZD0iaWNvbiIgeG1sbnM9Imh0dHA6Ly93d3cudzMub3JnLzIwMDAvc3ZnIiB2aWV3Qm94PSIwIDAgMzIgMzIiPjxkZWZzPjxzdHlsZT4uY2xzLTF7ZmlsbDpub25lO308L3N0eWxlPjwvZGVmcz48dGl0bGU+bG9ja2VkPC90aXRsZT48cGF0aCBkPSJNMjQsMTRIMjJWOEE2LDYsMCwwLDAsMTAsOHY2SDhhMiwyLDAsMCwwLTIsMlYyOGEyLDIsMCwwLDAsMiwySDI0YTIsMiwwLDAsMCwyLTJWMTZBMiwyLDAsMCwwLDI0LDE0Wk0xMiw4YTQsNCwwLDAsMSw4LDB2NkgxMlpNMjQsMjhIOFYxNkgyNFoiLz48cmVjdCBpZD0iX1RyYW5zcGFyZW50X1JlY3RhbmdsZV8iIGRhdGEtbmFtZT0iJmx0O1RyYW5zcGFyZW50IFJlY3RhbmdsZSZndDsiIGNsYXNzPSJjbHMtMSIgd2lkdGg9IjMyIiBoZWlnaHQ9IjMyIi8+PC9zdmc+;fontSize=12;" parent="E5_EzEregts5peD-AZ1d-142" vertex="1">
          <mxGeometry x="6" y="0.5" width="23" height="23" as="geometry" />
        </mxCell>
        <mxCell id="E5_EzEregts5peD-AZ1d-129" value="" style="rounded=0;whiteSpace=wrap;html=1;fontFamily=IBM Plex Sans;fontSource=fonts%2FIBMPlexSans-Regular.woff;fontSize=14;spacingBottom=-28;spacingTop=0;labelPosition=-100;verticalLabelPosition=top;align=center;verticalAlign=bottom;spacingLeft=9;spacing=0;expand=0;recursiveResize=0;spacingRight=0;container=1;collapsible=0;strokeColor=#1192E8;fillColor=none;" parent="E5_EzEregts5peD-AZ1d-142" vertex="1">
          <mxGeometry x="356" y="179" width="140" height="149" as="geometry">
            <mxRectangle width="670" as="alternateBounds" />
          </mxGeometry>
        </mxCell>
        <mxCell id="E5_EzEregts5peD-AZ1d-130" value="" style="rounded=0;whiteSpace=wrap;html=1;strokeColor=none;fillColor=#1192E8;" parent="E5_EzEregts5peD-AZ1d-129" vertex="1">
          <mxGeometry width="7" height="37" as="geometry" />
        </mxCell>
        <mxCell id="E5_EzEregts5peD-AZ1d-131" value="&lt;font style=&quot;font-size: 12px;&quot;&gt;10.30.20.0/24&lt;/font&gt;" style="text;html=1;strokeColor=none;fillColor=none;align=left;verticalAlign=middle;whiteSpace=wrap;rounded=0;fontFamily=IBM Plex Sans;fontSource=fonts%2FIBMPlexSans-Regular.woff;fontSize=14;" parent="E5_EzEregts5peD-AZ1d-129" vertex="1">
          <mxGeometry x="51" y="8" width="99" height="20" as="geometry" />
        </mxCell>
        <mxCell id="E5_EzEregts5peD-AZ1d-132" value="" style="shape=image;aspect=fixed;image=data:image/svg+xml,PD94bWwgdmVyc2lvbj0iMS4wIiBlbmNvZGluZz0iVVRGLTgiPz4KPHN2ZyB3aWR0aD0iMjlweCIgaGVpZ2h0PSIyOXB4IiB2aWV3Qm94PSIwIDAgMjkgMjkiIHZlcnNpb249IjEuMSIgeG1sbnM9Imh0dHA6Ly93d3cudzMub3JnLzIwMDAvc3ZnIiB4bWxuczp4bGluaz0iaHR0cDovL3d3dy53My5vcmcvMTk5OS94bGluayI+CiAgICA8IS0tIEdlbmVyYXRvcjogU2tldGNoIDUzICg3MjUyMCkgLSBodHRwczovL3NrZXRjaGFwcC5jb20gLS0+CiAgICA8dGl0bGU+SUJNIFN1Ym5ldCA6IEFDTCBCbGFjazwvdGl0bGU+CiAgICA8ZGVzYz5DcmVhdGVkIHdpdGggU2tldGNoLjwvZGVzYz4KICAgIDxnIGlkPSJQYWdlLTEiIHN0cm9rZT0ibm9uZSIgc3Ryb2tlLXdpZHRoPSIxIiBmaWxsPSJub25lIiBmaWxsLXJ1bGU9ImV2ZW5vZGQiPgogICAgICAgIDxnIGlkPSJJQk0tU3VibmV0LTotQUNMLUJsYWNrIiB0cmFuc2Zvcm09InRyYW5zbGF0ZSgwLjc1MDAwMCwgMC4wNzQ5NTkpIiBmaWxsPSIjMDAwMDAwIj4KICAgICAgICAgICAgPHBhdGggZD0iTTI0LjAxNjEsMjYuMjIyMSBDMjIuOTEyMSwyNi4yMjIxIDIyLjAxNjEsMjUuMzI2MSAyMi4wMTYxLDI0LjIyMjEgQzIyLjAxNjEsMjMuMTE4MSAyMi45MTIxLDIyLjIyMjEgMjQuMDE2MSwyMi4yMjIxIEMyNS4xMjAxLDIyLjIyMjEgMjYuMDE2MSwyMy4xMTgxIDI2LjAxNjEsMjQuMjIyMSBDMjYuMDEzMSwyNS4zMjUxIDI1LjExOTEsMjYuMjE5MSAyNC4wMTYxLDI2LjIyMjEgTTQuMDE2MSwyNi4yMjIxIEMyLjkxMjEsMjYuMjIyMSAyLjAxNjEsMjUuMzI2MSAyLjAxNjEsMjQuMjIyMSBDMi4wMTYxLDIzLjExODEgMi45MTIxLDIyLjIyMjEgNC4wMTYxLDIyLjIyMjEgQzUuMTIwMSwyMi4yMjIxIDYuMDE2MSwyMy4xMTgxIDYuMDE2MSwyNC4yMjIxIEM2LjAxMzEsMjUuMzI1MSA1LjExOTEsMjYuMjE5MSA0LjAxNjEsMjYuMjIyMSBNNC4wMTYxLDYuMjIyMSBDMi45MTIxLDYuMjIyMSAyLjAxNjEsNS4zMjYxIDIuMDE2MSw0LjIyMjEgQzIuMDE2MSwzLjExODEgMi45MTIxLDIuMjIyMSA0LjAxNjEsMi4yMjIxIEM1LjEyMDEsMi4yMjIxIDYuMDE2MSwzLjExODEgNi4wMTYxLDQuMjIyMSBDNi4wMTMxLDUuMzI1MSA1LjExOTEsNi4yMTkxIDQuMDE2MSw2LjIyMjEgTTI0LjAxNjEsMi4yMjIxIEMyNS4xMjAxLDIuMjIyMSAyNi4wMTYxLDMuMTE4MSAyNi4wMTYxLDQuMjIyMSBDMjYuMDE2MSw1LjMyNjEgMjUuMTIwMSw2LjIyMjEgMjQuMDE2MSw2LjIyMjEgQzIyLjkxMjEsNi4yMjIxIDIyLjAxNjEsNS4zMjYxIDIyLjAxNjEsNC4yMjIxIEMyMi4wMTkxLDMuMTE4MSAyMi45MTMxLDIuMjI1MSAyNC4wMTYxLDIuMjIyMSBNMjQuMDE2MSwyMC4wMDAxIEMyMy4zMDUxLDE5Ljk5ODEgMjIuNjA5MSwyMC4yMDcxIDIyLjAxNjEsMjAuNjAwMSBMMTcuNDMwMSwxNi4wMDAxIEwxNi4wMTYxLDE3LjQxNDEgTDIwLjYxNjEsMjIuMDAwMSBDMjAuNDQwMSwyMi4zMTQxIDIwLjMwNjEsMjIuNjUxMSAyMC4yMTYxLDIzLjAwMDEgTDcuODc0MSwyMy4wMDAxIEM3Ljc3NDEsMjIuNjQ1MSA3LjYyMDEsMjIuMzA3MSA3LjQxNjEsMjIuMDAwMSBMMjIuMDE2MSw3LjQwMDEgQzIzLjgwNzEsOC41ODYxIDI2LjUzNzEsOC4wOTQxIDI3Ljc5NDEsNS4xOTgxIEMyNy45MTAxLDQuOTMyMSAyNy45OTIxLDQuNjQ0MSAyOC4wMTYxLDQuMzU1MSBDMjguMjIxMSwxLjk5NDEgMjYuMzcwMSwwLjAwOTEgMjQuMDQ4MSwwLjAwMDEgQzIyLjIxODEsLTAuMDA2OSAyMC42MTcxLDEuMjI4MSAyMC4xNTkxLDMuMDAwMSBMNy45MTYxLDMuMDAwMSBDNy40MzMxLDEuMjQwMSA1Ljg0MTEsMC4wMTUxIDQuMDE2MSwwLjAwMDEgQzEuNjc0MSwwLjAwMDEgLTAuMTk2OSwyLjAxMjEgMC4wMzYxLDQuNDAyMSBDMC4wNjcxLDQuNzIzMSAwLjE2MzEsNS4wNDExIDAuMjk5MSw1LjMzNTEgQzEuNTgyMSw4LjEwOTEgNC4yNTQxLDguNTY3MSA2LjAxNjEsNy40MDAxIEwxMC42MDIxLDEyLjAwMDEgTDEyLjAxNjEsMTAuNTg2MSBMNy40MTYxLDYuMDAwMSBDNy41OTIxLDUuNjg1MSA3LjcyNjEsNS4zNDkxIDcuODE2MSw1LjAwMDEgTDIwLjE1ODEsNS4wMDAxIEMyMC4yNTgxLDUuMzU1MSAyMC40MTIxLDUuNjkyMSAyMC42MTYxLDYuMDAwMSBMNi4wMTYxLDIwLjYwMDEgQzQuMjI0MSwxOS40MTMxIDEuNDk0MSwxOS45MDcxIDAuMjM3MSwyMi44MDUxIEMwLjEyMjEsMjMuMDcwMSAwLjA0MDEsMjMuMzU3MSAwLjAxNjEsMjMuNjQ1MSBDLTAuMTg3OSwyNi4wMDYxIDEuNjYzMSwyNy45OTExIDMuOTg0MSwyOC4wMDAxIEM1LjgxNDEsMjguMDA3MSA3LjQxNTEsMjYuNzcyMSA3Ljg3MzEsMjUuMDAwMSBMMjAuMTE2MSwyNS4wMDAxIEMyMC43MjkxLDI3LjQxMzEgMjMuNDEyMSwyOC43NTUxIDI1Ljc4NzEsMjcuNjEwMSBDMjcuMTAzMSwyNi45NzUxIDI3Ljk4NzEsMjUuNjA0MSAyOC4wMTgxLDI0LjE0MzEgQzI4LjA2ODEsMjEuNzk1MSAyNi4yMTIxLDIwLjAwNjEgMjQuMDE2MSwyMC4wMDAxIiBpZD0iRmlsbC0xIj48L3BhdGg+CiAgICAgICAgPC9nPgogICAgPC9nPgo8L3N2Zz4=;" parent="E5_EzEregts5peD-AZ1d-129" vertex="1">
          <mxGeometry x="20" y="7" width="20" height="20" as="geometry" />
        </mxCell>
        <mxCell id="QTtVWzLK6MqBhSYwqH0o-36" value="&lt;font color=&quot;#000000&quot;&gt;VPC Endpoint&lt;/font&gt;" style="rounded=1;whiteSpace=wrap;html=1;fillColor=#0050ef;strokeColor=#001DBC;shadow=0;sketch=1;curveFitting=1;jiggle=2;fontColor=#ffffff;labelPosition=center;verticalLabelPosition=bottom;align=center;verticalAlign=top;" parent="E5_EzEregts5peD-AZ1d-129" vertex="1">
          <mxGeometry x="49" y="57.5" width="40" height="36" as="geometry" />
        </mxCell>
        <mxCell id="E5_EzEregts5peD-AZ1d-111" value="" style="rounded=0;whiteSpace=wrap;html=1;fontFamily=IBM Plex Sans;fontSource=fonts%2FIBMPlexSans-Regular.woff;fontSize=14;fillColor=none;spacingBottom=-28;spacingTop=0;labelPosition=-100;verticalLabelPosition=top;align=center;verticalAlign=bottom;spacingLeft=9;spacing=0;expand=0;recursiveResize=0;spacingRight=0;container=1;collapsible=0;strokeColor=#FF3333;strokeWidth=2;opacity=30;dashed=1;" parent="E5_EzEregts5peD-AZ1d-116" vertex="1">
          <mxGeometry x="-9720" y="-5225" width="470" height="110" as="geometry">
            <mxRectangle width="670" as="alternateBounds" />
          </mxGeometry>
        </mxCell>
        <mxCell id="E5_EzEregts5peD-AZ1d-112" value="" style="rounded=0;whiteSpace=wrap;html=1;strokeColor=none;fillColor=#FA4D56;" parent="E5_EzEregts5peD-AZ1d-111" vertex="1">
          <mxGeometry width="7" height="37" as="geometry" />
        </mxCell>
        <mxCell id="E5_EzEregts5peD-AZ1d-113" value="&lt;font style=&quot;font-size: 12px;&quot;&gt;Security Group&lt;/font&gt;" style="text;html=1;strokeColor=none;fillColor=none;align=left;verticalAlign=middle;whiteSpace=wrap;rounded=0;fontFamily=IBM Plex Sans;fontSource=fonts%2FIBMPlexSans-Regular.woff;fontSize=14;" parent="E5_EzEregts5peD-AZ1d-111" vertex="1">
          <mxGeometry x="40.33" y="3" width="170" height="20" as="geometry" />
        </mxCell>
        <mxCell id="E5_EzEregts5peD-AZ1d-114" value="" style="shape=image;aspect=fixed;image=data:image/svg+xml,PD94bWwgdmVyc2lvbj0iMS4wIiBlbmNvZGluZz0iVVRGLTgiPz4KPHN2ZyB3aWR0aD0iMjhweCIgaGVpZ2h0PSIyOHB4IiB2aWV3Qm94PSIwIDAgMjggMjgiIHZlcnNpb249IjEuMSIgeG1sbnM9Imh0dHA6Ly93d3cudzMub3JnLzIwMDAvc3ZnIiB4bWxuczp4bGluaz0iaHR0cDovL3d3dy53My5vcmcvMTk5OS94bGluayI+CiAgICA8IS0tIEdlbmVyYXRvcjogU2tldGNoIDUzICg3MjUyMCkgLSBodHRwczovL3NrZXRjaGFwcC5jb20gLS0+CiAgICA8dGl0bGU+U2VjdXJpdHkgR3JvdXAgQmxhY2s8L3RpdGxlPgogICAgPGRlc2M+Q3JlYXRlZCB3aXRoIFNrZXRjaC48L2Rlc2M+CiAgICA8ZGVmcz4KICAgICAgICA8cG9seWdvbiBpZD0icGF0aC0xIiBwb2ludHM9IjAgMC4wMDA0IDI0IDAuMDAwNCAyNCAyOCAwIDI4Ij48L3BvbHlnb24+CiAgICA8L2RlZnM+CiAgICA8ZyBpZD0iUGFnZS0xIiBzdHJva2U9Im5vbmUiIHN0cm9rZS13aWR0aD0iMSIgZmlsbD0ibm9uZSIgZmlsbC1ydWxlPSJldmVub2RkIj4KICAgICAgICA8ZyBpZD0iU2VjdXJpdHktR3JvdXAtQmxhY2siPgogICAgICAgICAgICA8cGF0aCBkPSJNOSwxOSBMNywxOSBMNywxNyBDNy4wMDIsMTUuMzQ0IDguMzQ0LDE0LjAwMiAxMCwxNCBMMTYsMTQgTDE2LDE2IEwxMCwxNiBDOS40NDgsMTYgOS4wMDEsMTYuNDQ4IDksMTcgTDksMTkgWiIgaWQ9IkZpbGwtMSIgZmlsbD0iIzAwMDAwMCI+PC9wYXRoPgogICAgICAgICAgICA8cGF0aCBkPSJNMTMsNyBDMTEuODk2LDcgMTEsNy44OTYgMTEsOSBDMTEsMTAuMTA0IDExLjg5NiwxMSAxMywxMSBDMTQuMTA0LDExIDE1LDEwLjEwNCAxNSw5IEMxNC45OTksNy44OTYgMTQuMTA0LDcuMDAxIDEzLDcgTTEzLDEzIEMxMC43OTEsMTMgOSwxMS4yMDkgOSw5IEM5LDYuNzkxIDEwLjc5MSw1IDEzLDUgQzE1LjIwOSw1IDE3LDYuNzkxIDE3LDkgQzE2Ljk5NywxMS4yMDggMTUuMjA4LDEyLjk5OCAxMywxMyIgaWQ9IkZpbGwtMyIgZmlsbD0iIzAwMDAwMCI+PC9wYXRoPgogICAgICAgICAgICA8cGF0aCBkPSJNMjIsMTQgQzIwLjg5NiwxNCAyMCwxNC44OTYgMjAsMTYgQzIwLDE3LjEwNCAyMC44OTYsMTggMjIsMTggQzIzLjEwNCwxOCAyNCwxNy4xMDQgMjQsMTYgQzIzLjk5OSwxNC44OTYgMjMuMTA0LDE0LjAwMSAyMiwxNCBNMjIsMjAgQzE5Ljc5MSwyMCAxOCwxOC4yMDkgMTgsMTYgQzE4LDEzLjc5MSAxOS43OTEsMTIgMjIsMTIgQzI0LjIwOSwxMiAyNiwxMy43OTEgMjYsMTYgQzI1Ljk5NywxOC4yMDggMjQuMjA4LDE5Ljk5OCAyMiwyMCIgaWQ9IkZpbGwtNSIgZmlsbD0iIzAwMDAwMCI+PC9wYXRoPgogICAgICAgICAgICA8cGF0aCBkPSJNMjgsMjYgTDI2LDI2IEwyNiwyNCBDMjUuOTk5LDIzLjQ0OCAyNS41NTIsMjMgMjUsMjMgTDE5LDIzIEMxOC40NDgsMjMgMTguMDAxLDIzLjQ0OCAxOCwyNCBMMTgsMjYgTDE2LDI2IEwxNiwyNCBDMTYuMDAyLDIyLjM0NCAxNy4zNDQsMjEuMDAyIDE5LDIxIEwyNSwyMSBDMjYuNjU2LDIxLjAwMiAyNy45OTgsMjIuMzQ0IDI4LDI0IEwyOCwyNiBaIiBpZD0iRmlsbC03IiBmaWxsPSIjMDAwMDAwIj48L3BhdGg+CiAgICAgICAgICAgIDxnIGlkPSJHcm91cC0xMSI+CiAgICAgICAgICAgICAgICA8bWFzayBpZD0ibWFzay0yIiBmaWxsPSJ3aGl0ZSI+CiAgICAgICAgICAgICAgICAgICAgPHVzZSB4bGluazpocmVmPSIjcGF0aC0xIj48L3VzZT4KICAgICAgICAgICAgICAgIDwvbWFzaz4KICAgICAgICAgICAgICAgIDxnIGlkPSJDbGlwLTEwIj48L2c+CiAgICAgICAgICAgICAgICA8cGF0aCBkPSJNMTIsMjUuNzMzNCBMNi43NjYsMjIuOTQyNCBDMy44MywyMS4zODA0IDEuOTk2LDE4LjMyNTQgMiwxNS4wMDA0IEwyLDIuMDAwNCBMMjIsMi4wMDA0IEwyMiw4LjAwMDQgTDI0LDguMDAwNCBMMjQsMi4wMDA0IEMyMy45OTksMC44OTY0IDIzLjEwNCwwLjAwMTQgMjIsMC4wMDA0IEwyLDAuMDAwNCBDMC44OTYsMC4wMDE0IDAuMDAxLDAuODk2NCAwLDIuMDAwNCBMMCwxNS4wMDA0IEMtMC4wMDUsMTkuMDY0NCAyLjIzNiwyMi43OTg0IDUuODI0LDI0LjcwNzQgTDEyLDI4LjAwMDQgTDEyLDI1LjczMzQgWiIgaWQ9IkZpbGwtOSIgZmlsbD0iIzAwMDAwMCIgbWFzaz0idXJsKCNtYXNrLTIpIj48L3BhdGg+CiAgICAgICAgICAgIDwvZz4KICAgICAgICA8L2c+CiAgICA8L2c+Cjwvc3ZnPg==;" parent="E5_EzEregts5peD-AZ1d-111" vertex="1">
          <mxGeometry x="18" y="7" width="20" height="20" as="geometry" />
        </mxCell>
        <mxCell id="E5_EzEregts5peD-AZ1d-117" value="" style="rounded=0;whiteSpace=wrap;html=1;fontFamily=IBM Plex Sans;fontSource=fonts%2FIBMPlexSans-Regular.woff;fontSize=14;fillColor=none;spacingBottom=-28;spacingTop=0;labelPosition=-100;verticalLabelPosition=top;align=center;verticalAlign=bottom;spacingLeft=9;spacing=0;expand=0;recursiveResize=0;spacingRight=0;container=1;collapsible=0;strokeColor=#FF3333;strokeWidth=2;opacity=30;dashed=1;" parent="E5_EzEregts5peD-AZ1d-116" vertex="1">
          <mxGeometry x="-9720" y="-5065" width="470" height="110" as="geometry">
            <mxRectangle width="670" as="alternateBounds" />
          </mxGeometry>
        </mxCell>
        <mxCell id="E5_EzEregts5peD-AZ1d-118" value="" style="rounded=0;whiteSpace=wrap;html=1;strokeColor=none;fillColor=#FA4D56;" parent="E5_EzEregts5peD-AZ1d-117" vertex="1">
          <mxGeometry width="7" height="37" as="geometry" />
        </mxCell>
        <mxCell id="E5_EzEregts5peD-AZ1d-119" value="&lt;font style=&quot;font-size: 12px;&quot;&gt;Security Group&lt;/font&gt;" style="text;html=1;strokeColor=none;fillColor=none;align=left;verticalAlign=middle;whiteSpace=wrap;rounded=0;fontFamily=IBM Plex Sans;fontSource=fonts%2FIBMPlexSans-Regular.woff;fontSize=14;" parent="E5_EzEregts5peD-AZ1d-117" vertex="1">
          <mxGeometry x="39.33" width="170" height="20" as="geometry" />
        </mxCell>
        <mxCell id="E5_EzEregts5peD-AZ1d-120" value="" style="shape=image;aspect=fixed;image=data:image/svg+xml,PD94bWwgdmVyc2lvbj0iMS4wIiBlbmNvZGluZz0iVVRGLTgiPz4KPHN2ZyB3aWR0aD0iMjhweCIgaGVpZ2h0PSIyOHB4IiB2aWV3Qm94PSIwIDAgMjggMjgiIHZlcnNpb249IjEuMSIgeG1sbnM9Imh0dHA6Ly93d3cudzMub3JnLzIwMDAvc3ZnIiB4bWxuczp4bGluaz0iaHR0cDovL3d3dy53My5vcmcvMTk5OS94bGluayI+CiAgICA8IS0tIEdlbmVyYXRvcjogU2tldGNoIDUzICg3MjUyMCkgLSBodHRwczovL3NrZXRjaGFwcC5jb20gLS0+CiAgICA8dGl0bGU+U2VjdXJpdHkgR3JvdXAgQmxhY2s8L3RpdGxlPgogICAgPGRlc2M+Q3JlYXRlZCB3aXRoIFNrZXRjaC48L2Rlc2M+CiAgICA8ZGVmcz4KICAgICAgICA8cG9seWdvbiBpZD0icGF0aC0xIiBwb2ludHM9IjAgMC4wMDA0IDI0IDAuMDAwNCAyNCAyOCAwIDI4Ij48L3BvbHlnb24+CiAgICA8L2RlZnM+CiAgICA8ZyBpZD0iUGFnZS0xIiBzdHJva2U9Im5vbmUiIHN0cm9rZS13aWR0aD0iMSIgZmlsbD0ibm9uZSIgZmlsbC1ydWxlPSJldmVub2RkIj4KICAgICAgICA8ZyBpZD0iU2VjdXJpdHktR3JvdXAtQmxhY2siPgogICAgICAgICAgICA8cGF0aCBkPSJNOSwxOSBMNywxOSBMNywxNyBDNy4wMDIsMTUuMzQ0IDguMzQ0LDE0LjAwMiAxMCwxNCBMMTYsMTQgTDE2LDE2IEwxMCwxNiBDOS40NDgsMTYgOS4wMDEsMTYuNDQ4IDksMTcgTDksMTkgWiIgaWQ9IkZpbGwtMSIgZmlsbD0iIzAwMDAwMCI+PC9wYXRoPgogICAgICAgICAgICA8cGF0aCBkPSJNMTMsNyBDMTEuODk2LDcgMTEsNy44OTYgMTEsOSBDMTEsMTAuMTA0IDExLjg5NiwxMSAxMywxMSBDMTQuMTA0LDExIDE1LDEwLjEwNCAxNSw5IEMxNC45OTksNy44OTYgMTQuMTA0LDcuMDAxIDEzLDcgTTEzLDEzIEMxMC43OTEsMTMgOSwxMS4yMDkgOSw5IEM5LDYuNzkxIDEwLjc5MSw1IDEzLDUgQzE1LjIwOSw1IDE3LDYuNzkxIDE3LDkgQzE2Ljk5NywxMS4yMDggMTUuMjA4LDEyLjk5OCAxMywxMyIgaWQ9IkZpbGwtMyIgZmlsbD0iIzAwMDAwMCI+PC9wYXRoPgogICAgICAgICAgICA8cGF0aCBkPSJNMjIsMTQgQzIwLjg5NiwxNCAyMCwxNC44OTYgMjAsMTYgQzIwLDE3LjEwNCAyMC44OTYsMTggMjIsMTggQzIzLjEwNCwxOCAyNCwxNy4xMDQgMjQsMTYgQzIzLjk5OSwxNC44OTYgMjMuMTA0LDE0LjAwMSAyMiwxNCBNMjIsMjAgQzE5Ljc5MSwyMCAxOCwxOC4yMDkgMTgsMTYgQzE4LDEzLjc5MSAxOS43OTEsMTIgMjIsMTIgQzI0LjIwOSwxMiAyNiwxMy43OTEgMjYsMTYgQzI1Ljk5NywxOC4yMDggMjQuMjA4LDE5Ljk5OCAyMiwyMCIgaWQ9IkZpbGwtNSIgZmlsbD0iIzAwMDAwMCI+PC9wYXRoPgogICAgICAgICAgICA8cGF0aCBkPSJNMjgsMjYgTDI2LDI2IEwyNiwyNCBDMjUuOTk5LDIzLjQ0OCAyNS41NTIsMjMgMjUsMjMgTDE5LDIzIEMxOC40NDgsMjMgMTguMDAxLDIzLjQ0OCAxOCwyNCBMMTgsMjYgTDE2LDI2IEwxNiwyNCBDMTYuMDAyLDIyLjM0NCAxNy4zNDQsMjEuMDAyIDE5LDIxIEwyNSwyMSBDMjYuNjU2LDIxLjAwMiAyNy45OTgsMjIuMzQ0IDI4LDI0IEwyOCwyNiBaIiBpZD0iRmlsbC03IiBmaWxsPSIjMDAwMDAwIj48L3BhdGg+CiAgICAgICAgICAgIDxnIGlkPSJHcm91cC0xMSI+CiAgICAgICAgICAgICAgICA8bWFzayBpZD0ibWFzay0yIiBmaWxsPSJ3aGl0ZSI+CiAgICAgICAgICAgICAgICAgICAgPHVzZSB4bGluazpocmVmPSIjcGF0aC0xIj48L3VzZT4KICAgICAgICAgICAgICAgIDwvbWFzaz4KICAgICAgICAgICAgICAgIDxnIGlkPSJDbGlwLTEwIj48L2c+CiAgICAgICAgICAgICAgICA8cGF0aCBkPSJNMTIsMjUuNzMzNCBMNi43NjYsMjIuOTQyNCBDMy44MywyMS4zODA0IDEuOTk2LDE4LjMyNTQgMiwxNS4wMDA0IEwyLDIuMDAwNCBMMjIsMi4wMDA0IEwyMiw4LjAwMDQgTDI0LDguMDAwNCBMMjQsMi4wMDA0IEMyMy45OTksMC44OTY0IDIzLjEwNCwwLjAwMTQgMjIsMC4wMDA0IEwyLDAuMDAwNCBDMC44OTYsMC4wMDE0IDAuMDAxLDAuODk2NCAwLDIuMDAwNCBMMCwxNS4wMDA0IEMtMC4wMDUsMTkuMDY0NCAyLjIzNiwyMi43OTg0IDUuODI0LDI0LjcwNzQgTDEyLDI4LjAwMDQgTDEyLDI1LjczMzQgWiIgaWQ9IkZpbGwtOSIgZmlsbD0iIzAwMDAwMCIgbWFzaz0idXJsKCNtYXNrLTIpIj48L3BhdGg+CiAgICAgICAgICAgIDwvZz4KICAgICAgICA8L2c+CiAgICA8L2c+Cjwvc3ZnPg==;" parent="E5_EzEregts5peD-AZ1d-117" vertex="1">
          <mxGeometry x="18" y="7" width="20" height="20" as="geometry" />
        </mxCell>
        <mxCell id="E5_EzEregts5peD-AZ1d-138" value="" style="rounded=0;whiteSpace=wrap;html=1;fontFamily=IBM Plex Sans;fontSource=fonts%2FIBMPlexSans-Regular.woff;fontSize=14;fillColor=none;spacingBottom=-28;spacingTop=0;labelPosition=-100;verticalLabelPosition=top;align=center;verticalAlign=bottom;spacingLeft=9;spacing=0;expand=0;recursiveResize=0;spacingRight=0;container=1;collapsible=0;strokeColor=#FF3333;strokeWidth=2;opacity=30;dashed=1;" parent="E5_EzEregts5peD-AZ1d-116" vertex="1">
          <mxGeometry x="-9720" y="-4905" width="140" height="110" as="geometry">
            <mxRectangle width="670" as="alternateBounds" />
          </mxGeometry>
        </mxCell>
        <mxCell id="E5_EzEregts5peD-AZ1d-139" value="" style="rounded=0;whiteSpace=wrap;html=1;strokeColor=none;fillColor=#FA4D56;" parent="E5_EzEregts5peD-AZ1d-138" vertex="1">
          <mxGeometry width="7" height="37" as="geometry" />
        </mxCell>
        <mxCell id="E5_EzEregts5peD-AZ1d-140" value="&lt;font style=&quot;font-size: 12px;&quot;&gt;Security Group&lt;/font&gt;" style="text;html=1;strokeColor=none;fillColor=none;align=left;verticalAlign=middle;whiteSpace=wrap;rounded=0;fontFamily=IBM Plex Sans;fontSource=fonts%2FIBMPlexSans-Regular.woff;fontSize=14;" parent="E5_EzEregts5peD-AZ1d-138" vertex="1">
          <mxGeometry x="40.33" y="3" width="170" height="20" as="geometry" />
        </mxCell>
        <mxCell id="E5_EzEregts5peD-AZ1d-141" value="" style="shape=image;aspect=fixed;image=data:image/svg+xml,PD94bWwgdmVyc2lvbj0iMS4wIiBlbmNvZGluZz0iVVRGLTgiPz4KPHN2ZyB3aWR0aD0iMjhweCIgaGVpZ2h0PSIyOHB4IiB2aWV3Qm94PSIwIDAgMjggMjgiIHZlcnNpb249IjEuMSIgeG1sbnM9Imh0dHA6Ly93d3cudzMub3JnLzIwMDAvc3ZnIiB4bWxuczp4bGluaz0iaHR0cDovL3d3dy53My5vcmcvMTk5OS94bGluayI+CiAgICA8IS0tIEdlbmVyYXRvcjogU2tldGNoIDUzICg3MjUyMCkgLSBodHRwczovL3NrZXRjaGFwcC5jb20gLS0+CiAgICA8dGl0bGU+U2VjdXJpdHkgR3JvdXAgQmxhY2s8L3RpdGxlPgogICAgPGRlc2M+Q3JlYXRlZCB3aXRoIFNrZXRjaC48L2Rlc2M+CiAgICA8ZGVmcz4KICAgICAgICA8cG9seWdvbiBpZD0icGF0aC0xIiBwb2ludHM9IjAgMC4wMDA0IDI0IDAuMDAwNCAyNCAyOCAwIDI4Ij48L3BvbHlnb24+CiAgICA8L2RlZnM+CiAgICA8ZyBpZD0iUGFnZS0xIiBzdHJva2U9Im5vbmUiIHN0cm9rZS13aWR0aD0iMSIgZmlsbD0ibm9uZSIgZmlsbC1ydWxlPSJldmVub2RkIj4KICAgICAgICA8ZyBpZD0iU2VjdXJpdHktR3JvdXAtQmxhY2siPgogICAgICAgICAgICA8cGF0aCBkPSJNOSwxOSBMNywxOSBMNywxNyBDNy4wMDIsMTUuMzQ0IDguMzQ0LDE0LjAwMiAxMCwxNCBMMTYsMTQgTDE2LDE2IEwxMCwxNiBDOS40NDgsMTYgOS4wMDEsMTYuNDQ4IDksMTcgTDksMTkgWiIgaWQ9IkZpbGwtMSIgZmlsbD0iIzAwMDAwMCI+PC9wYXRoPgogICAgICAgICAgICA8cGF0aCBkPSJNMTMsNyBDMTEuODk2LDcgMTEsNy44OTYgMTEsOSBDMTEsMTAuMTA0IDExLjg5NiwxMSAxMywxMSBDMTQuMTA0LDExIDE1LDEwLjEwNCAxNSw5IEMxNC45OTksNy44OTYgMTQuMTA0LDcuMDAxIDEzLDcgTTEzLDEzIEMxMC43OTEsMTMgOSwxMS4yMDkgOSw5IEM5LDYuNzkxIDEwLjc5MSw1IDEzLDUgQzE1LjIwOSw1IDE3LDYuNzkxIDE3LDkgQzE2Ljk5NywxMS4yMDggMTUuMjA4LDEyLjk5OCAxMywxMyIgaWQ9IkZpbGwtMyIgZmlsbD0iIzAwMDAwMCI+PC9wYXRoPgogICAgICAgICAgICA8cGF0aCBkPSJNMjIsMTQgQzIwLjg5NiwxNCAyMCwxNC44OTYgMjAsMTYgQzIwLDE3LjEwNCAyMC44OTYsMTggMjIsMTggQzIzLjEwNCwxOCAyNCwxNy4xMDQgMjQsMTYgQzIzLjk5OSwxNC44OTYgMjMuMTA0LDE0LjAwMSAyMiwxNCBNMjIsMjAgQzE5Ljc5MSwyMCAxOCwxOC4yMDkgMTgsMTYgQzE4LDEzLjc5MSAxOS43OTEsMTIgMjIsMTIgQzI0LjIwOSwxMiAyNiwxMy43OTEgMjYsMTYgQzI1Ljk5NywxOC4yMDggMjQuMjA4LDE5Ljk5OCAyMiwyMCIgaWQ9IkZpbGwtNSIgZmlsbD0iIzAwMDAwMCI+PC9wYXRoPgogICAgICAgICAgICA8cGF0aCBkPSJNMjgsMjYgTDI2LDI2IEwyNiwyNCBDMjUuOTk5LDIzLjQ0OCAyNS41NTIsMjMgMjUsMjMgTDE5LDIzIEMxOC40NDgsMjMgMTguMDAxLDIzLjQ0OCAxOCwyNCBMMTgsMjYgTDE2LDI2IEwxNiwyNCBDMTYuMDAyLDIyLjM0NCAxNy4zNDQsMjEuMDAyIDE5LDIxIEwyNSwyMSBDMjYuNjU2LDIxLjAwMiAyNy45OTgsMjIuMzQ0IDI4LDI0IEwyOCwyNiBaIiBpZD0iRmlsbC03IiBmaWxsPSIjMDAwMDAwIj48L3BhdGg+CiAgICAgICAgICAgIDxnIGlkPSJHcm91cC0xMSI+CiAgICAgICAgICAgICAgICA8bWFzayBpZD0ibWFzay0yIiBmaWxsPSJ3aGl0ZSI+CiAgICAgICAgICAgICAgICAgICAgPHVzZSB4bGluazpocmVmPSIjcGF0aC0xIj48L3VzZT4KICAgICAgICAgICAgICAgIDwvbWFzaz4KICAgICAgICAgICAgICAgIDxnIGlkPSJDbGlwLTEwIj48L2c+CiAgICAgICAgICAgICAgICA8cGF0aCBkPSJNMTIsMjUuNzMzNCBMNi43NjYsMjIuOTQyNCBDMy44MywyMS4zODA0IDEuOTk2LDE4LjMyNTQgMiwxNS4wMDA0IEwyLDIuMDAwNCBMMjIsMi4wMDA0IEwyMiw4LjAwMDQgTDI0LDguMDAwNCBMMjQsMi4wMDA0IEMyMy45OTksMC44OTY0IDIzLjEwNCwwLjAwMTQgMjIsMC4wMDA0IEwyLDAuMDAwNCBDMC44OTYsMC4wMDE0IDAuMDAxLDAuODk2NCAwLDIuMDAwNCBMMCwxNS4wMDA0IEMtMC4wMDUsMTkuMDY0NCAyLjIzNiwyMi43OTg0IDUuODI0LDI0LjcwNzQgTDEyLDI4LjAwMDQgTDEyLDI1LjczMzQgWiIgaWQ9IkZpbGwtOSIgZmlsbD0iIzAwMDAwMCIgbWFzaz0idXJsKCNtYXNrLTIpIj48L3BhdGg+CiAgICAgICAgICAgIDwvZz4KICAgICAgICA8L2c+CiAgICA8L2c+Cjwvc3ZnPg==;" parent="E5_EzEregts5peD-AZ1d-138" vertex="1">
          <mxGeometry x="18" y="7" width="20" height="20" as="geometry" />
        </mxCell>
        <mxCell id="E5_EzEregts5peD-AZ1d-156" value="Workload" style="" parent="0" />
        <mxCell id="E5_EzEregts5peD-AZ1d-216" value="" style="rounded=0;whiteSpace=wrap;html=1;fontFamily=IBM Plex Sans;fontSource=fonts%2FIBMPlexSans-Regular.woff;fontSize=14;fillColor=none;spacingBottom=-28;spacingTop=0;labelPosition=-100;verticalLabelPosition=top;align=center;verticalAlign=bottom;spacingLeft=9;spacing=0;expand=0;recursiveResize=0;spacingRight=0;container=1;collapsible=0;strokeColor=#FA4D56;strokeWidth=1;" parent="E5_EzEregts5peD-AZ1d-156" vertex="1">
          <mxGeometry x="-9788" y="-4735" width="608" height="481" as="geometry">
            <mxRectangle width="670" as="alternateBounds" />
          </mxGeometry>
        </mxCell>
        <mxCell id="E5_EzEregts5peD-AZ1d-217" value="" style="rounded=0;whiteSpace=wrap;html=1;strokeColor=none;fillColor=#FA4D56;" parent="E5_EzEregts5peD-AZ1d-216" vertex="1">
          <mxGeometry width="7" height="37" as="geometry" />
        </mxCell>
        <mxCell id="E5_EzEregts5peD-AZ1d-218" value="Workload Resource Group" style="text;html=1;strokeColor=none;fillColor=none;align=left;verticalAlign=middle;whiteSpace=wrap;rounded=0;fontFamily=IBM Plex Sans;fontSource=fonts%2FIBMPlexSans-Regular.woff;fontSize=14;" parent="E5_EzEregts5peD-AZ1d-216" vertex="1">
          <mxGeometry x="50.33" y="8" width="170" height="20" as="geometry" />
        </mxCell>
        <mxCell id="E5_EzEregts5peD-AZ1d-219" value="" style="shape=image;aspect=fixed;image=data:image/svg+xml,PD94bWwgdmVyc2lvbj0iMS4wIiBlbmNvZGluZz0iVVRGLTgiPz4KPHN2ZyB3aWR0aD0iMjlweCIgaGVpZ2h0PSIyOHB4IiB2aWV3Qm94PSIwIDAgMjkgMjgiIHZlcnNpb249IjEuMSIgeG1sbnM9Imh0dHA6Ly93d3cudzMub3JnLzIwMDAvc3ZnIiB4bWxuczp4bGluaz0iaHR0cDovL3d3dy53My5vcmcvMTk5OS94bGluayI+CiAgICA8IS0tIEdlbmVyYXRvcjogU2tldGNoIDUzICg3MjUyMCkgLSBodHRwczovL3NrZXRjaGFwcC5jb20gLS0+CiAgICA8dGl0bGU+UmVzb3VyY2UgR3JvdXAgQmxhY2s8L3RpdGxlPgogICAgPGRlc2M+Q3JlYXRlZCB3aXRoIFNrZXRjaC48L2Rlc2M+CiAgICA8ZGVmcz4KICAgICAgICA8cG9seWdvbiBpZD0icGF0aC0xIiBwb2ludHM9IjAgMCAyOCAwIDI4IDI4IDAgMjgiPjwvcG9seWdvbj4KICAgIDwvZGVmcz4KICAgIDxnIGlkPSJQYWdlLTEiIHN0cm9rZT0ibm9uZSIgc3Ryb2tlLXdpZHRoPSIxIiBmaWxsPSJub25lIiBmaWxsLXJ1bGU9ImV2ZW5vZGQiPgogICAgICAgIDxnIGlkPSJSZXNvdXJjZS1Hcm91cC1CbGFjayIgdHJhbnNmb3JtPSJ0cmFuc2xhdGUoMC4zNzUwMDAsIDAuMDAwMDAwKSI+CiAgICAgICAgICAgIDxtYXNrIGlkPSJtYXNrLTIiIGZpbGw9IndoaXRlIj4KICAgICAgICAgICAgICAgIDx1c2UgeGxpbms6aHJlZj0iI3BhdGgtMSI+PC91c2U+CiAgICAgICAgICAgIDwvbWFzaz4KICAgICAgICAgICAgPGcgaWQ9IkNsaXAtMiI+PC9nPgogICAgICAgICAgICA8cGF0aCBkPSJNOCwyMCBMMjAsMjAgTDIwLDggTDgsOCBMOCwyMCBaIE0yMCwyMiBMOCwyMiBDNi44OTYsMjEuOTk5IDYuMDAxLDIxLjEwNCA2LDIwIEw2LDggQzYuMDAxLDYuODk2IDYuODk2LDYuMDAxIDgsNiBMMjAsNiBDMjEuMTA0LDYuMDAxIDIxLjk5OSw2Ljg5NiAyMiw4IEwyMiwyMCBDMjEuOTk5LDIxLjEwNCAyMS4xMDQsMjEuOTk5IDIwLDIyIEwyMCwyMiBaIiBpZD0iRmlsbC0xIiBmaWxsPSIjMDAwMDAwIiBtYXNrPSJ1cmwoI21hc2stMikiPjwvcGF0aD4KICAgICAgICAgICAgPHBhdGggZD0iTTUuOTk5OCwyOCBMMS45OTk4LDI4IEMwLjg5NTgsMjcuOTk5IDAuMDAwOCwyNy4xMDQgLTAuMDAwMiwyNiBMLTAuMDAwMiwyIEMwLjAwMDgsMC44OTYgMC44OTU4LDAuMDAxIDEuOTk5OCwwIEw1Ljk5OTgsMCBMNS45OTk4LDIgTDEuOTk5OCwyIEwxLjk5OTgsMjYgTDUuOTk5OCwyNiBMNS45OTk4LDI4IFoiIGlkPSJGaWxsLTMiIGZpbGw9IiMwMDAwMDAiIG1hc2s9InVybCgjbWFzay0yKSI+PC9wYXRoPgogICAgICAgICAgICA8cGF0aCBkPSJNMjYuMDAwMywyOCBMMjIuMDAwMywyOCBMMjIuMDAwMywyNiBMMjYuMDAwMywyNiBMMjYuMDAwMywyIEwyMi4wMDAzLDIgTDIyLjAwMDMsMCBMMjYuMDAwMywwIEMyNy4xMDQzLDAuMDAxIDI3Ljk5OTMsMC44OTYgMjguMDAwMywyIEwyOC4wMDAzLDI2IEMyNy45OTkzLDI3LjEwNCAyNy4xMDQzLDI3Ljk5OSAyNi4wMDAzLDI4IiBpZD0iRmlsbC00IiBmaWxsPSIjMDAwMDAwIiBtYXNrPSJ1cmwoI21hc2stMikiPjwvcGF0aD4KICAgICAgICA8L2c+CiAgICA8L2c+Cjwvc3ZnPg==;" parent="E5_EzEregts5peD-AZ1d-216" vertex="1">
          <mxGeometry x="20" y="8.840000000000055" width="20" height="19.31" as="geometry" />
        </mxCell>
        <mxCell id="E5_EzEregts5peD-AZ1d-221" value="" style="rounded=0;whiteSpace=wrap;html=1;fontFamily=IBM Plex Sans;fontSource=fonts%2FIBMPlexSans-Regular.woff;fontSize=14;spacingBottom=-28;spacingTop=0;labelPosition=-100;verticalLabelPosition=top;align=center;verticalAlign=bottom;spacingLeft=9;spacing=0;expand=0;recursiveResize=0;spacingRight=0;container=1;collapsible=0;strokeColor=#1192E8;fillColor=none;" parent="E5_EzEregts5peD-AZ1d-156" vertex="1">
          <mxGeometry x="-9773" y="-4705" width="573" height="436" as="geometry">
            <mxRectangle width="670" as="alternateBounds" />
          </mxGeometry>
        </mxCell>
        <mxCell id="E5_EzEregts5peD-AZ1d-222" value="" style="rounded=0;whiteSpace=wrap;html=1;strokeColor=none;fillColor=#1192E8;" parent="E5_EzEregts5peD-AZ1d-221" vertex="1">
          <mxGeometry y="1" width="7" height="37" as="geometry" />
        </mxCell>
        <mxCell id="E5_EzEregts5peD-AZ1d-223" value="Workload VPC" style="text;html=1;strokeColor=none;fillColor=none;align=left;verticalAlign=middle;whiteSpace=wrap;rounded=0;fontFamily=IBM Plex Sans;fontSource=fonts%2FIBMPlexSans-Regular.woff;fontSize=14;" parent="E5_EzEregts5peD-AZ1d-221" vertex="1">
          <mxGeometry x="47" y="9.5" width="163" height="20" as="geometry" />
        </mxCell>
        <mxCell id="E5_EzEregts5peD-AZ1d-224" value="" style="shape=image;aspect=fixed;image=data:image/svg+xml,PD94bWwgdmVyc2lvbj0iMS4wIiBlbmNvZGluZz0iVVRGLTgiPz4KPHN2ZyB3aWR0aD0iMjlweCIgaGVpZ2h0PSIyOHB4IiB2aWV3Qm94PSIwIDAgMjkgMjgiIHZlcnNpb249IjEuMSIgeG1sbnM9Imh0dHA6Ly93d3cudzMub3JnLzIwMDAvc3ZnIiB4bWxuczp4bGluaz0iaHR0cDovL3d3dy53My5vcmcvMTk5OS94bGluayI+CiAgICA8IS0tIEdlbmVyYXRvcjogU2tldGNoIDUzICg3MjUyMCkgLSBodHRwczovL3NrZXRjaGFwcC5jb20gLS0+CiAgICA8dGl0bGU+SUJNIFZQQyBCbGFjazwvdGl0bGU+CiAgICA8ZGVzYz5DcmVhdGVkIHdpdGggU2tldGNoLjwvZGVzYz4KICAgIDxnIGlkPSJQYWdlLTEiIHN0cm9rZT0ibm9uZSIgc3Ryb2tlLXdpZHRoPSIxIiBmaWxsPSJub25lIiBmaWxsLXJ1bGU9ImV2ZW5vZGQiPgogICAgICAgIDxnIGlkPSJJQk0tVlBDLUJsYWNrIiB0cmFuc2Zvcm09InRyYW5zbGF0ZSgwLjc1MDAwMCwgLTEuMDAwMDAwKSIgZmlsbD0iIzAwMDAwMCI+CiAgICAgICAgICAgIDxwYXRoIGQ9Ik0wLjAwMDksMS4wMDAyIEwwLjAwMDksOS4wMDAyIEw2LjU4NjksOS4wMDAyIEwyMC4wMDA5LDIyLjQxNDIgTDIwLjAwMDksMjkuMDAwMiBMMjguMDAwOSwyOS4wMDAyIEwyOC4wMDA5LDIxLjAwMDIgTDIxLjQxNTksMjEuMDAwMiBMOC4wMDA5LDcuNTg1MiBMOC4wMDA5LDEuMDAwMiBMMC4wMDA5LDEuMDAwMiBaIE0yLjAwMDksNy4wMDAyIEw2LjAwMDksNy4wMDAyIEw2LjAwMDksMy4wMDAyIEwyLjAwMDksMy4wMDAyIEwyLjAwMDksNy4wMDAyIFogTTIyLjAwMDksMjcuMDAxMiBMMjYuMDAxOSwyNy4wMDEyIEwyNi4wMDE5LDIzLjAwMDIgTDIyLjAwMDksMjMuMDAwMiBMMjIuMDAwOSwyNy4wMDEyIFoiIGlkPSJGaWxsLTEiPjwvcGF0aD4KICAgICAgICAgICAgPGcgaWQ9Ikdyb3VwLTgiIHRyYW5zZm9ybT0idHJhbnNsYXRlKDAuMDAwMDAwLCAwLjAwMTkwMCkiPgogICAgICAgICAgICAgICAgPGcgaWQ9Ikdyb3VwLTQiIHRyYW5zZm9ybT0idHJhbnNsYXRlKDExLjAwMDAwMCwgMC4wMDAwMDApIj4KICAgICAgICAgICAgICAgICAgICA8cGF0aCBkPSJNMTIuNjQ2Nyw2LjgxNzkgQzExLjU0MjcsNi44MTc5IDEwLjY0NjcsNS45MjI5IDEwLjY0NjcsNC44MTc5IEMxMC42NDY3LDMuNzEzOSAxMS41NDI3LDIuODE3OSAxMi42NDY3LDIuODE3OSBDMTMuNzUwNywyLjgxNzkgMTQuNjQ2NywzLjcxMzkgMTQuNjQ2Nyw0LjgxNzkgQzE0LjY0NTcsNS45MjE5IDEzLjc1MDcsNi44MTY5IDEyLjY0NjcsNi44MTc5IE0xNi43MzM3LDMuNTE4OSBDMTYuMzU2NywyLjQ5ODkgMTUuNTMxNywxLjY2NzkgMTQuNTE1NywxLjI4MDkgQzEyLjEyNzcsMC4zNzA5IDkuNzE3NywxLjc1NTkgOS4xNDI3LDMuOTk3OSBMMC4wMDA3LDMuOTk3OSBMMC4wMDA3LDUuOTk3OSBMOS4xNDI3LDUuOTk3OSBDOS41MDc3LDcuMzk3OSAxMC42MDE3LDguNDkwOSAxMi4wMDA3LDguODU1OSBMMTIuMDAwNywxNy45OTc5IEwxNC4wMDA3LDE3Ljk5NzkgTDE0LjAwMDcsOC44NTU5IEMxNi4yMjk3LDguMjgxOSAxNy42MTE3LDUuODk2OSAxNi43MzM3LDMuNTE4OSIgaWQ9IkZpbGwtMiI+PC9wYXRoPgogICAgICAgICAgICAgICAgPC9nPgogICAgICAgICAgICAgICAgPGcgaWQ9Ikdyb3VwLTciIHRyYW5zZm9ybT0idHJhbnNsYXRlKDAuMDAwMDAwLCAxMS4wMDAwMDApIj4KICAgICAgICAgICAgICAgICAgICA8cGF0aCBkPSJNMy42NDY3LDE1LjgxNzkgQzIuNTQyNywxNS44MTc5IDEuNjQ2NywxNC45MjI5IDEuNjQ2NywxMy44MTc5IEMxLjY0NjcsMTIuNzEzOSAyLjU0MjcsMTEuODE3OSAzLjY0NjcsMTEuODE3OSBDNC43NTA3LDExLjgxNzkgNS42NDY3LDEyLjcxMzkgNS42NDY3LDEzLjgxNzkgQzUuNjQ1NywxNC45MjE5IDQuNzUwNywxNS44MTY5IDMuNjQ2NywxNS44MTc5IEwzLjY0NjcsMTUuODE3OSBaIE0xNy4wMDA3LDEyLjk5NzkgTDcuODU4NywxMi45OTc5IEM3LjQ5MzcsMTEuNTk3OSA2LjQwMDcsMTAuNTA0OSA1LjAwMDcsMTAuMTM5OSBMNS4wMDA3LDAuOTk3OSBMMy4wMDA3LDAuOTk3OSBMMy4wMDA3LDEwLjEzOTkgQzAuNDg3NywxMC43ODQ5IC0wLjg1MTMsMTMuNjgzOSAwLjU5NDcsMTYuMTE5OSBDMS4xNTA3LDE3LjA1NTkgMi4xMTE3LDE3LjcyODkgMy4xODI3LDE3LjkyNjkgQzUuNDAyNywxOC4zMzc5IDcuMzUzNywxNi45Njk5IDcuODU4NywxNC45OTc5IEwxNy4wMDA3LDE0Ljk5NzkgTDE3LjAwMDcsMTIuOTk3OSBaIiBpZD0iRmlsbC01Ij48L3BhdGg+CiAgICAgICAgICAgICAgICA8L2c+CiAgICAgICAgICAgIDwvZz4KICAgICAgICA8L2c+CiAgICA8L2c+Cjwvc3ZnPg==;" parent="E5_EzEregts5peD-AZ1d-221" vertex="1">
          <mxGeometry x="20" y="7.849999999999909" width="20" height="19.31" as="geometry" />
        </mxCell>
        <mxCell id="E5_EzEregts5peD-AZ1d-162" value="" style="rounded=0;whiteSpace=wrap;html=1;fontFamily=IBM Plex Sans;fontSource=fonts%2FIBMPlexSans-Regular.woff;fontSize=14;spacingBottom=-28;spacingTop=0;labelPosition=-100;verticalLabelPosition=top;align=center;verticalAlign=bottom;spacingLeft=9;spacing=0;expand=0;recursiveResize=0;spacingRight=0;container=1;collapsible=0;strokeColor=#36393d;fillColor=none;shadow=0;" parent="E5_EzEregts5peD-AZ1d-156" vertex="1">
          <mxGeometry x="-9753" y="-4670" width="180" height="384" as="geometry">
            <mxRectangle width="670" as="alternateBounds" />
          </mxGeometry>
        </mxCell>
        <mxCell id="E5_EzEregts5peD-AZ1d-163" value="" style="rounded=0;whiteSpace=wrap;html=1;strokeColor=none;fillColor=#878d96;" parent="E5_EzEregts5peD-AZ1d-162" vertex="1">
          <mxGeometry width="7" height="37" as="geometry" />
        </mxCell>
        <mxCell id="E5_EzEregts5peD-AZ1d-164" value="Zone 1" style="text;html=1;strokeColor=none;fillColor=none;align=left;verticalAlign=middle;whiteSpace=wrap;rounded=0;fontFamily=IBM Plex Sans;fontSource=fonts%2FIBMPlexSans-Regular.woff;fontSize=14;" parent="E5_EzEregts5peD-AZ1d-162" vertex="1">
          <mxGeometry x="51" y="8" width="168" height="20" as="geometry" />
        </mxCell>
        <mxCell id="E5_EzEregts5peD-AZ1d-165" value="" style="shape=image;aspect=fixed;image=data:image/svg+xml,PD94bWwgdmVyc2lvbj0iMS4wIiBlbmNvZGluZz0iVVRGLTgiPz4KPHN2ZyB3aWR0aD0iMjlweCIgaGVpZ2h0PSIyNnB4IiB2aWV3Qm94PSIwIDAgMjkgMjYiIHZlcnNpb249IjEuMSIgeG1sbnM9Imh0dHA6Ly93d3cudzMub3JnLzIwMDAvc3ZnIiB4bWxuczp4bGluaz0iaHR0cDovL3d3dy53My5vcmcvMTk5OS94bGluayI+CiAgICA8IS0tIEdlbmVyYXRvcjogU2tldGNoIDUzICg3MjUyMCkgLSBodHRwczovL3NrZXRjaGFwcC5jb20gLS0+CiAgICA8dGl0bGU+Wm9uZSBCbGFjazwvdGl0bGU+CiAgICA8ZGVzYz5DcmVhdGVkIHdpdGggU2tldGNoLjwvZGVzYz4KICAgIDxnIGlkPSJQYWdlLTEiIHN0cm9rZT0ibm9uZSIgc3Ryb2tlLXdpZHRoPSIxIiBmaWxsPSJub25lIiBmaWxsLXJ1bGU9ImV2ZW5vZGQiPgogICAgICAgIDxnIGlkPSJab25lLUJsYWNrIiB0cmFuc2Zvcm09InRyYW5zbGF0ZSgwLjEyNTAwMCwgMC4wMDAwMDApIiBmaWxsPSIjMDAwMDAwIj4KICAgICAgICAgICAgPGcgaWQ9Ikdyb3VwLTMiPgogICAgICAgICAgICAgICAgPHBhdGggZD0iTTI2LjAwMDEsMjQuMDAwMSBMMjEuMDAwMSwyNC4wMDAxIEwyMS4wMDAxLDIwLjAwMDEgTDIzLjAwMDEsMjAuMDAwMSBMMjMuMDAwMSwxOC4wMDAxIEwyMS4wMDAxLDE4LjAwMDEgTDIxLjAwMDEsMTYuMDAwMSBMMjMuMDAwMSwxNi4wMDAxIEwyMy4wMDAxLDE0LjAwMDEgTDIxLjAwMDEsMTQuMDAwMSBMMjEuMDAwMSwxMi4wMDAxIEwyMy4wMDAxLDEyLjAwMDEgTDIzLjAwMDEsMTAuMDAwMSBMMjEuMDAwMSwxMC4wMDAxIEwyMS4wMDAxLDguMDAwMSBMMjYuMDAwMSw4LjAwMDEgTDI2LjAwMDEsMjQuMDAwMSBaIE05LjAwMDEsMjQuMDAwMSBMMTkuMDAwMSwyNC4wMDAxIEwxOS4wMDAxLDIuMDAwMSBMOS4wMDAxLDIuMDAwMSBMOS4wMDAxLDI0LjAwMDEgWiBNMi4wMDAxLDI0LjAwMDEgTDIuMDAwMSw4LjAwMDEgTDcuMDAwMSw4LjAwMDEgTDcuMDAwMSwxMC4wMDAxIEw1LjAwMDEsMTAuMDAwMSBMNS4wMDAxLDEyLjAwMDEgTDcuMDAwMSwxMi4wMDAxIEw3LjAwMDEsMTQuMDAwMSBMNS4wMDAxLDE0LjAwMDEgTDUuMDAwMSwxNi4wMDAxIEw3LjAwMDEsMTYuMDAwMSBMNy4wMDAxLDE4LjAwMDEgTDUuMDAwMSwxOC4wMDAxIEw1LjAwMDEsMjAuMDAwMSBMNy4wMDAxLDIwLjAwMDEgTDcuMDAwMSwyNC4wMDAxIEwyLjAwMDEsMjQuMDAwMSBaIE0yNi4wMDAxLDYuMDAwMSBMMjEuMDAwMSw2LjAwMDEgTDIxLjAwMDEsMi4wMDAxIEMyMC45OTkxLDAuODk2MSAyMC4xMDQxLDAuMDAxMSAxOS4wMDAxLDAuMDAwMSBMOS4wMDAxLDAuMDAwMSBDNy44OTYxLDAuMDAxMSA3LjAwMTEsMC44OTYxIDcuMDAwMSwyLjAwMDEgTDcuMDAwMSw2LjAwMDEgTDIuMDAwMSw2LjAwMDEgQzAuODk2MSw2LjAwMTEgMC4wMDExLDYuODk2MSAwLjAwMDEsOC4wMDAxIEwwLjAwMDEsMjQuMDAwMSBDMC4wMDExLDI1LjEwNDEgMC44OTYxLDI1Ljk5OTEgMi4wMDAxLDI2LjAwMDEgTDI2LjAwMDEsMjYuMDAwMSBDMjcuMTA0MSwyNS45OTkxIDI3Ljk5OTEsMjUuMTA0MSAyOC4wMDAxLDI0LjAwMDEgTDI4LjAwMDEsOC4wMDAxIEMyNy45OTkxLDYuODk2MSAyNy4xMDQxLDYuMDAxMSAyNi4wMDAxLDYuMDAwMSBMMjYuMDAwMSw2LjAwMDEgWiIgaWQ9IkZpbGwtMSI+PC9wYXRoPgogICAgICAgICAgICA8L2c+CiAgICAgICAgICAgIDxwb2x5Z29uIGlkPSJGaWxsLTQiIHBvaW50cz0iMTIgNiAxNiA2IDE2IDQgMTIgNCI+PC9wb2x5Z29uPgogICAgICAgICAgICA8cG9seWdvbiBpZD0iRmlsbC02IiBwb2ludHM9IjEyIDEwIDE2IDEwIDE2IDggMTIgOCI+PC9wb2x5Z29uPgogICAgICAgICAgICA8cG9seWdvbiBpZD0iRmlsbC03IiBwb2ludHM9IjEyIDE0IDE2IDE0IDE2IDEyIDEyIDEyIj48L3BvbHlnb24+CiAgICAgICAgPC9nPgogICAgPC9nPgo8L3N2Zz4=;" parent="E5_EzEregts5peD-AZ1d-162" vertex="1">
          <mxGeometry x="20" y="8.07" width="20" height="17.93" as="geometry" />
        </mxCell>
        <mxCell id="E5_EzEregts5peD-AZ1d-166" style="edgeStyle=orthogonalEdgeStyle;rounded=0;orthogonalLoop=1;jettySize=auto;html=1;exitX=0;exitY=0.5;exitDx=0;exitDy=0;entryX=1.009;entryY=0.22;entryDx=0;entryDy=0;entryPerimeter=0;fontFamily=IBM Plex Sans;fontSource=fonts%2FIBMPlexSans-Regular.woff;fontSize=14;startArrow=oval;startFill=1;strokeColor=#198038;" parent="E5_EzEregts5peD-AZ1d-162" edge="1">
          <mxGeometry relative="1" as="geometry" />
        </mxCell>
        <mxCell id="E5_EzEregts5peD-AZ1d-157" value="" style="rounded=0;whiteSpace=wrap;html=1;fontFamily=IBM Plex Sans;fontSource=fonts%2FIBMPlexSans-Regular.woff;fontSize=14;spacingBottom=-28;spacingTop=0;labelPosition=-100;verticalLabelPosition=top;align=center;verticalAlign=bottom;spacingLeft=9;spacing=0;expand=0;recursiveResize=0;spacingRight=0;container=1;collapsible=0;strokeColor=#36393d;fillColor=none;" parent="E5_EzEregts5peD-AZ1d-156" vertex="1">
          <mxGeometry x="-9560" y="-4671" width="160" height="384" as="geometry">
            <mxRectangle width="670" as="alternateBounds" />
          </mxGeometry>
        </mxCell>
        <mxCell id="E5_EzEregts5peD-AZ1d-158" value="" style="rounded=0;whiteSpace=wrap;html=1;strokeColor=none;fillColor=#878d96;" parent="E5_EzEregts5peD-AZ1d-157" vertex="1">
          <mxGeometry width="7" height="37" as="geometry" />
        </mxCell>
        <mxCell id="E5_EzEregts5peD-AZ1d-159" value="Zone 2" style="text;html=1;strokeColor=none;fillColor=none;align=left;verticalAlign=middle;whiteSpace=wrap;rounded=0;fontFamily=IBM Plex Sans;fontSource=fonts%2FIBMPlexSans-Regular.woff;fontSize=14;" parent="E5_EzEregts5peD-AZ1d-157" vertex="1">
          <mxGeometry x="51" y="8" width="168" height="20" as="geometry" />
        </mxCell>
        <mxCell id="E5_EzEregts5peD-AZ1d-160" value="" style="shape=image;aspect=fixed;image=data:image/svg+xml,PD94bWwgdmVyc2lvbj0iMS4wIiBlbmNvZGluZz0iVVRGLTgiPz4KPHN2ZyB3aWR0aD0iMjlweCIgaGVpZ2h0PSIyNnB4IiB2aWV3Qm94PSIwIDAgMjkgMjYiIHZlcnNpb249IjEuMSIgeG1sbnM9Imh0dHA6Ly93d3cudzMub3JnLzIwMDAvc3ZnIiB4bWxuczp4bGluaz0iaHR0cDovL3d3dy53My5vcmcvMTk5OS94bGluayI+CiAgICA8IS0tIEdlbmVyYXRvcjogU2tldGNoIDUzICg3MjUyMCkgLSBodHRwczovL3NrZXRjaGFwcC5jb20gLS0+CiAgICA8dGl0bGU+Wm9uZSBCbGFjazwvdGl0bGU+CiAgICA8ZGVzYz5DcmVhdGVkIHdpdGggU2tldGNoLjwvZGVzYz4KICAgIDxnIGlkPSJQYWdlLTEiIHN0cm9rZT0ibm9uZSIgc3Ryb2tlLXdpZHRoPSIxIiBmaWxsPSJub25lIiBmaWxsLXJ1bGU9ImV2ZW5vZGQiPgogICAgICAgIDxnIGlkPSJab25lLUJsYWNrIiB0cmFuc2Zvcm09InRyYW5zbGF0ZSgwLjEyNTAwMCwgMC4wMDAwMDApIiBmaWxsPSIjMDAwMDAwIj4KICAgICAgICAgICAgPGcgaWQ9Ikdyb3VwLTMiPgogICAgICAgICAgICAgICAgPHBhdGggZD0iTTI2LjAwMDEsMjQuMDAwMSBMMjEuMDAwMSwyNC4wMDAxIEwyMS4wMDAxLDIwLjAwMDEgTDIzLjAwMDEsMjAuMDAwMSBMMjMuMDAwMSwxOC4wMDAxIEwyMS4wMDAxLDE4LjAwMDEgTDIxLjAwMDEsMTYuMDAwMSBMMjMuMDAwMSwxNi4wMDAxIEwyMy4wMDAxLDE0LjAwMDEgTDIxLjAwMDEsMTQuMDAwMSBMMjEuMDAwMSwxMi4wMDAxIEwyMy4wMDAxLDEyLjAwMDEgTDIzLjAwMDEsMTAuMDAwMSBMMjEuMDAwMSwxMC4wMDAxIEwyMS4wMDAxLDguMDAwMSBMMjYuMDAwMSw4LjAwMDEgTDI2LjAwMDEsMjQuMDAwMSBaIE05LjAwMDEsMjQuMDAwMSBMMTkuMDAwMSwyNC4wMDAxIEwxOS4wMDAxLDIuMDAwMSBMOS4wMDAxLDIuMDAwMSBMOS4wMDAxLDI0LjAwMDEgWiBNMi4wMDAxLDI0LjAwMDEgTDIuMDAwMSw4LjAwMDEgTDcuMDAwMSw4LjAwMDEgTDcuMDAwMSwxMC4wMDAxIEw1LjAwMDEsMTAuMDAwMSBMNS4wMDAxLDEyLjAwMDEgTDcuMDAwMSwxMi4wMDAxIEw3LjAwMDEsMTQuMDAwMSBMNS4wMDAxLDE0LjAwMDEgTDUuMDAwMSwxNi4wMDAxIEw3LjAwMDEsMTYuMDAwMSBMNy4wMDAxLDE4LjAwMDEgTDUuMDAwMSwxOC4wMDAxIEw1LjAwMDEsMjAuMDAwMSBMNy4wMDAxLDIwLjAwMDEgTDcuMDAwMSwyNC4wMDAxIEwyLjAwMDEsMjQuMDAwMSBaIE0yNi4wMDAxLDYuMDAwMSBMMjEuMDAwMSw2LjAwMDEgTDIxLjAwMDEsMi4wMDAxIEMyMC45OTkxLDAuODk2MSAyMC4xMDQxLDAuMDAxMSAxOS4wMDAxLDAuMDAwMSBMOS4wMDAxLDAuMDAwMSBDNy44OTYxLDAuMDAxMSA3LjAwMTEsMC44OTYxIDcuMDAwMSwyLjAwMDEgTDcuMDAwMSw2LjAwMDEgTDIuMDAwMSw2LjAwMDEgQzAuODk2MSw2LjAwMTEgMC4wMDExLDYuODk2MSAwLjAwMDEsOC4wMDAxIEwwLjAwMDEsMjQuMDAwMSBDMC4wMDExLDI1LjEwNDEgMC44OTYxLDI1Ljk5OTEgMi4wMDAxLDI2LjAwMDEgTDI2LjAwMDEsMjYuMDAwMSBDMjcuMTA0MSwyNS45OTkxIDI3Ljk5OTEsMjUuMTA0MSAyOC4wMDAxLDI0LjAwMDEgTDI4LjAwMDEsOC4wMDAxIEMyNy45OTkxLDYuODk2MSAyNy4xMDQxLDYuMDAxMSAyNi4wMDAxLDYuMDAwMSBMMjYuMDAwMSw2LjAwMDEgWiIgaWQ9IkZpbGwtMSI+PC9wYXRoPgogICAgICAgICAgICA8L2c+CiAgICAgICAgICAgIDxwb2x5Z29uIGlkPSJGaWxsLTQiIHBvaW50cz0iMTIgNiAxNiA2IDE2IDQgMTIgNCI+PC9wb2x5Z29uPgogICAgICAgICAgICA8cG9seWdvbiBpZD0iRmlsbC02IiBwb2ludHM9IjEyIDEwIDE2IDEwIDE2IDggMTIgOCI+PC9wb2x5Z29uPgogICAgICAgICAgICA8cG9seWdvbiBpZD0iRmlsbC03IiBwb2ludHM9IjEyIDE0IDE2IDE0IDE2IDEyIDEyIDEyIj48L3BvbHlnb24+CiAgICAgICAgPC9nPgogICAgPC9nPgo8L3N2Zz4=;" parent="E5_EzEregts5peD-AZ1d-157" vertex="1">
          <mxGeometry x="20" y="8.07" width="20" height="17.93" as="geometry" />
        </mxCell>
        <mxCell id="E5_EzEregts5peD-AZ1d-161" style="edgeStyle=orthogonalEdgeStyle;rounded=0;orthogonalLoop=1;jettySize=auto;html=1;exitX=0;exitY=0.5;exitDx=0;exitDy=0;entryX=1.009;entryY=0.22;entryDx=0;entryDy=0;entryPerimeter=0;fontFamily=IBM Plex Sans;fontSource=fonts%2FIBMPlexSans-Regular.woff;fontSize=14;startArrow=oval;startFill=1;strokeColor=#198038;" parent="E5_EzEregts5peD-AZ1d-157" edge="1">
          <mxGeometry relative="1" as="geometry" />
        </mxCell>
        <mxCell id="E5_EzEregts5peD-AZ1d-175" value="" style="rounded=0;whiteSpace=wrap;html=1;fontFamily=IBM Plex Sans;fontSource=fonts%2FIBMPlexSans-Regular.woff;fontSize=14;spacingBottom=-28;spacingTop=0;labelPosition=-100;verticalLabelPosition=top;align=center;verticalAlign=bottom;spacingLeft=9;spacing=0;expand=0;recursiveResize=0;spacingRight=0;container=1;collapsible=0;strokeColor=#36393d;fillColor=none;" parent="E5_EzEregts5peD-AZ1d-156" vertex="1">
          <mxGeometry x="-9390" y="-4671" width="160" height="384" as="geometry">
            <mxRectangle width="670" as="alternateBounds" />
          </mxGeometry>
        </mxCell>
        <mxCell id="E5_EzEregts5peD-AZ1d-176" value="" style="rounded=0;whiteSpace=wrap;html=1;strokeColor=none;fillColor=#878d96;" parent="E5_EzEregts5peD-AZ1d-175" vertex="1">
          <mxGeometry width="7" height="37" as="geometry" />
        </mxCell>
        <mxCell id="E5_EzEregts5peD-AZ1d-177" value="Zone 3" style="text;html=1;strokeColor=none;fillColor=none;align=left;verticalAlign=middle;whiteSpace=wrap;rounded=0;fontFamily=IBM Plex Sans;fontSource=fonts%2FIBMPlexSans-Regular.woff;fontSize=14;" parent="E5_EzEregts5peD-AZ1d-175" vertex="1">
          <mxGeometry x="51" y="8" width="168" height="20" as="geometry" />
        </mxCell>
        <mxCell id="E5_EzEregts5peD-AZ1d-178" value="" style="shape=image;aspect=fixed;image=data:image/svg+xml,PD94bWwgdmVyc2lvbj0iMS4wIiBlbmNvZGluZz0iVVRGLTgiPz4KPHN2ZyB3aWR0aD0iMjlweCIgaGVpZ2h0PSIyNnB4IiB2aWV3Qm94PSIwIDAgMjkgMjYiIHZlcnNpb249IjEuMSIgeG1sbnM9Imh0dHA6Ly93d3cudzMub3JnLzIwMDAvc3ZnIiB4bWxuczp4bGluaz0iaHR0cDovL3d3dy53My5vcmcvMTk5OS94bGluayI+CiAgICA8IS0tIEdlbmVyYXRvcjogU2tldGNoIDUzICg3MjUyMCkgLSBodHRwczovL3NrZXRjaGFwcC5jb20gLS0+CiAgICA8dGl0bGU+Wm9uZSBCbGFjazwvdGl0bGU+CiAgICA8ZGVzYz5DcmVhdGVkIHdpdGggU2tldGNoLjwvZGVzYz4KICAgIDxnIGlkPSJQYWdlLTEiIHN0cm9rZT0ibm9uZSIgc3Ryb2tlLXdpZHRoPSIxIiBmaWxsPSJub25lIiBmaWxsLXJ1bGU9ImV2ZW5vZGQiPgogICAgICAgIDxnIGlkPSJab25lLUJsYWNrIiB0cmFuc2Zvcm09InRyYW5zbGF0ZSgwLjEyNTAwMCwgMC4wMDAwMDApIiBmaWxsPSIjMDAwMDAwIj4KICAgICAgICAgICAgPGcgaWQ9Ikdyb3VwLTMiPgogICAgICAgICAgICAgICAgPHBhdGggZD0iTTI2LjAwMDEsMjQuMDAwMSBMMjEuMDAwMSwyNC4wMDAxIEwyMS4wMDAxLDIwLjAwMDEgTDIzLjAwMDEsMjAuMDAwMSBMMjMuMDAwMSwxOC4wMDAxIEwyMS4wMDAxLDE4LjAwMDEgTDIxLjAwMDEsMTYuMDAwMSBMMjMuMDAwMSwxNi4wMDAxIEwyMy4wMDAxLDE0LjAwMDEgTDIxLjAwMDEsMTQuMDAwMSBMMjEuMDAwMSwxMi4wMDAxIEwyMy4wMDAxLDEyLjAwMDEgTDIzLjAwMDEsMTAuMDAwMSBMMjEuMDAwMSwxMC4wMDAxIEwyMS4wMDAxLDguMDAwMSBMMjYuMDAwMSw4LjAwMDEgTDI2LjAwMDEsMjQuMDAwMSBaIE05LjAwMDEsMjQuMDAwMSBMMTkuMDAwMSwyNC4wMDAxIEwxOS4wMDAxLDIuMDAwMSBMOS4wMDAxLDIuMDAwMSBMOS4wMDAxLDI0LjAwMDEgWiBNMi4wMDAxLDI0LjAwMDEgTDIuMDAwMSw4LjAwMDEgTDcuMDAwMSw4LjAwMDEgTDcuMDAwMSwxMC4wMDAxIEw1LjAwMDEsMTAuMDAwMSBMNS4wMDAxLDEyLjAwMDEgTDcuMDAwMSwxMi4wMDAxIEw3LjAwMDEsMTQuMDAwMSBMNS4wMDAxLDE0LjAwMDEgTDUuMDAwMSwxNi4wMDAxIEw3LjAwMDEsMTYuMDAwMSBMNy4wMDAxLDE4LjAwMDEgTDUuMDAwMSwxOC4wMDAxIEw1LjAwMDEsMjAuMDAwMSBMNy4wMDAxLDIwLjAwMDEgTDcuMDAwMSwyNC4wMDAxIEwyLjAwMDEsMjQuMDAwMSBaIE0yNi4wMDAxLDYuMDAwMSBMMjEuMDAwMSw2LjAwMDEgTDIxLjAwMDEsMi4wMDAxIEMyMC45OTkxLDAuODk2MSAyMC4xMDQxLDAuMDAxMSAxOS4wMDAxLDAuMDAwMSBMOS4wMDAxLDAuMDAwMSBDNy44OTYxLDAuMDAxMSA3LjAwMTEsMC44OTYxIDcuMDAwMSwyLjAwMDEgTDcuMDAwMSw2LjAwMDEgTDIuMDAwMSw2LjAwMDEgQzAuODk2MSw2LjAwMTEgMC4wMDExLDYuODk2MSAwLjAwMDEsOC4wMDAxIEwwLjAwMDEsMjQuMDAwMSBDMC4wMDExLDI1LjEwNDEgMC44OTYxLDI1Ljk5OTEgMi4wMDAxLDI2LjAwMDEgTDI2LjAwMDEsMjYuMDAwMSBDMjcuMTA0MSwyNS45OTkxIDI3Ljk5OTEsMjUuMTA0MSAyOC4wMDAxLDI0LjAwMDEgTDI4LjAwMDEsOC4wMDAxIEMyNy45OTkxLDYuODk2MSAyNy4xMDQxLDYuMDAxMSAyNi4wMDAxLDYuMDAwMSBMMjYuMDAwMSw2LjAwMDEgWiIgaWQ9IkZpbGwtMSI+PC9wYXRoPgogICAgICAgICAgICA8L2c+CiAgICAgICAgICAgIDxwb2x5Z29uIGlkPSJGaWxsLTQiIHBvaW50cz0iMTIgNiAxNiA2IDE2IDQgMTIgNCI+PC9wb2x5Z29uPgogICAgICAgICAgICA8cG9seWdvbiBpZD0iRmlsbC02IiBwb2ludHM9IjEyIDEwIDE2IDEwIDE2IDggMTIgOCI+PC9wb2x5Z29uPgogICAgICAgICAgICA8cG9seWdvbiBpZD0iRmlsbC03IiBwb2ludHM9IjEyIDE0IDE2IDE0IDE2IDEyIDEyIDEyIj48L3BvbHlnb24+CiAgICAgICAgPC9nPgogICAgPC9nPgo8L3N2Zz4=;" parent="E5_EzEregts5peD-AZ1d-175" vertex="1">
          <mxGeometry x="20" y="8.07" width="20" height="17.93" as="geometry" />
        </mxCell>
        <mxCell id="E5_EzEregts5peD-AZ1d-179" style="edgeStyle=orthogonalEdgeStyle;rounded=0;orthogonalLoop=1;jettySize=auto;html=1;exitX=0;exitY=0.5;exitDx=0;exitDy=0;entryX=1.009;entryY=0.22;entryDx=0;entryDy=0;entryPerimeter=0;fontFamily=IBM Plex Sans;fontSource=fonts%2FIBMPlexSans-Regular.woff;fontSize=14;startArrow=oval;startFill=1;strokeColor=#198038;" parent="E5_EzEregts5peD-AZ1d-175" edge="1">
          <mxGeometry relative="1" as="geometry" />
        </mxCell>
        <mxCell id="E5_EzEregts5peD-AZ1d-180" value="" style="rounded=0;whiteSpace=wrap;html=1;fontFamily=IBM Plex Sans;fontSource=fonts%2FIBMPlexSans-Regular.woff;fontSize=14;spacingBottom=-28;spacingTop=0;labelPosition=-100;verticalLabelPosition=top;align=center;verticalAlign=bottom;spacingLeft=9;spacing=0;expand=0;recursiveResize=0;spacingRight=0;container=1;collapsible=0;strokeColor=#1192E8;fillColor=none;" parent="E5_EzEregts5peD-AZ1d-175" vertex="1">
          <mxGeometry x="10" y="211" width="140" height="149" as="geometry">
            <mxRectangle width="670" as="alternateBounds" />
          </mxGeometry>
        </mxCell>
        <mxCell id="E5_EzEregts5peD-AZ1d-181" value="" style="rounded=0;whiteSpace=wrap;html=1;strokeColor=none;fillColor=#1192E8;" parent="E5_EzEregts5peD-AZ1d-180" vertex="1">
          <mxGeometry width="7" height="37" as="geometry" />
        </mxCell>
        <mxCell id="E5_EzEregts5peD-AZ1d-182" value="&lt;font style=&quot;font-size: 12px;&quot;&gt;10.60.20.0/24&lt;/font&gt;" style="text;html=1;strokeColor=none;fillColor=none;align=left;verticalAlign=middle;whiteSpace=wrap;rounded=0;fontFamily=IBM Plex Sans;fontSource=fonts%2FIBMPlexSans-Regular.woff;fontSize=14;" parent="E5_EzEregts5peD-AZ1d-180" vertex="1">
          <mxGeometry x="51" y="8" width="99" height="20" as="geometry" />
        </mxCell>
        <mxCell id="E5_EzEregts5peD-AZ1d-183" value="" style="shape=image;aspect=fixed;image=data:image/svg+xml,PD94bWwgdmVyc2lvbj0iMS4wIiBlbmNvZGluZz0iVVRGLTgiPz4KPHN2ZyB3aWR0aD0iMjlweCIgaGVpZ2h0PSIyOXB4IiB2aWV3Qm94PSIwIDAgMjkgMjkiIHZlcnNpb249IjEuMSIgeG1sbnM9Imh0dHA6Ly93d3cudzMub3JnLzIwMDAvc3ZnIiB4bWxuczp4bGluaz0iaHR0cDovL3d3dy53My5vcmcvMTk5OS94bGluayI+CiAgICA8IS0tIEdlbmVyYXRvcjogU2tldGNoIDUzICg3MjUyMCkgLSBodHRwczovL3NrZXRjaGFwcC5jb20gLS0+CiAgICA8dGl0bGU+SUJNIFN1Ym5ldCA6IEFDTCBCbGFjazwvdGl0bGU+CiAgICA8ZGVzYz5DcmVhdGVkIHdpdGggU2tldGNoLjwvZGVzYz4KICAgIDxnIGlkPSJQYWdlLTEiIHN0cm9rZT0ibm9uZSIgc3Ryb2tlLXdpZHRoPSIxIiBmaWxsPSJub25lIiBmaWxsLXJ1bGU9ImV2ZW5vZGQiPgogICAgICAgIDxnIGlkPSJJQk0tU3VibmV0LTotQUNMLUJsYWNrIiB0cmFuc2Zvcm09InRyYW5zbGF0ZSgwLjc1MDAwMCwgMC4wNzQ5NTkpIiBmaWxsPSIjMDAwMDAwIj4KICAgICAgICAgICAgPHBhdGggZD0iTTI0LjAxNjEsMjYuMjIyMSBDMjIuOTEyMSwyNi4yMjIxIDIyLjAxNjEsMjUuMzI2MSAyMi4wMTYxLDI0LjIyMjEgQzIyLjAxNjEsMjMuMTE4MSAyMi45MTIxLDIyLjIyMjEgMjQuMDE2MSwyMi4yMjIxIEMyNS4xMjAxLDIyLjIyMjEgMjYuMDE2MSwyMy4xMTgxIDI2LjAxNjEsMjQuMjIyMSBDMjYuMDEzMSwyNS4zMjUxIDI1LjExOTEsMjYuMjE5MSAyNC4wMTYxLDI2LjIyMjEgTTQuMDE2MSwyNi4yMjIxIEMyLjkxMjEsMjYuMjIyMSAyLjAxNjEsMjUuMzI2MSAyLjAxNjEsMjQuMjIyMSBDMi4wMTYxLDIzLjExODEgMi45MTIxLDIyLjIyMjEgNC4wMTYxLDIyLjIyMjEgQzUuMTIwMSwyMi4yMjIxIDYuMDE2MSwyMy4xMTgxIDYuMDE2MSwyNC4yMjIxIEM2LjAxMzEsMjUuMzI1MSA1LjExOTEsMjYuMjE5MSA0LjAxNjEsMjYuMjIyMSBNNC4wMTYxLDYuMjIyMSBDMi45MTIxLDYuMjIyMSAyLjAxNjEsNS4zMjYxIDIuMDE2MSw0LjIyMjEgQzIuMDE2MSwzLjExODEgMi45MTIxLDIuMjIyMSA0LjAxNjEsMi4yMjIxIEM1LjEyMDEsMi4yMjIxIDYuMDE2MSwzLjExODEgNi4wMTYxLDQuMjIyMSBDNi4wMTMxLDUuMzI1MSA1LjExOTEsNi4yMTkxIDQuMDE2MSw2LjIyMjEgTTI0LjAxNjEsMi4yMjIxIEMyNS4xMjAxLDIuMjIyMSAyNi4wMTYxLDMuMTE4MSAyNi4wMTYxLDQuMjIyMSBDMjYuMDE2MSw1LjMyNjEgMjUuMTIwMSw2LjIyMjEgMjQuMDE2MSw2LjIyMjEgQzIyLjkxMjEsNi4yMjIxIDIyLjAxNjEsNS4zMjYxIDIyLjAxNjEsNC4yMjIxIEMyMi4wMTkxLDMuMTE4MSAyMi45MTMxLDIuMjI1MSAyNC4wMTYxLDIuMjIyMSBNMjQuMDE2MSwyMC4wMDAxIEMyMy4zMDUxLDE5Ljk5ODEgMjIuNjA5MSwyMC4yMDcxIDIyLjAxNjEsMjAuNjAwMSBMMTcuNDMwMSwxNi4wMDAxIEwxNi4wMTYxLDE3LjQxNDEgTDIwLjYxNjEsMjIuMDAwMSBDMjAuNDQwMSwyMi4zMTQxIDIwLjMwNjEsMjIuNjUxMSAyMC4yMTYxLDIzLjAwMDEgTDcuODc0MSwyMy4wMDAxIEM3Ljc3NDEsMjIuNjQ1MSA3LjYyMDEsMjIuMzA3MSA3LjQxNjEsMjIuMDAwMSBMMjIuMDE2MSw3LjQwMDEgQzIzLjgwNzEsOC41ODYxIDI2LjUzNzEsOC4wOTQxIDI3Ljc5NDEsNS4xOTgxIEMyNy45MTAxLDQuOTMyMSAyNy45OTIxLDQuNjQ0MSAyOC4wMTYxLDQuMzU1MSBDMjguMjIxMSwxLjk5NDEgMjYuMzcwMSwwLjAwOTEgMjQuMDQ4MSwwLjAwMDEgQzIyLjIxODEsLTAuMDA2OSAyMC42MTcxLDEuMjI4MSAyMC4xNTkxLDMuMDAwMSBMNy45MTYxLDMuMDAwMSBDNy40MzMxLDEuMjQwMSA1Ljg0MTEsMC4wMTUxIDQuMDE2MSwwLjAwMDEgQzEuNjc0MSwwLjAwMDEgLTAuMTk2OSwyLjAxMjEgMC4wMzYxLDQuNDAyMSBDMC4wNjcxLDQuNzIzMSAwLjE2MzEsNS4wNDExIDAuMjk5MSw1LjMzNTEgQzEuNTgyMSw4LjEwOTEgNC4yNTQxLDguNTY3MSA2LjAxNjEsNy40MDAxIEwxMC42MDIxLDEyLjAwMDEgTDEyLjAxNjEsMTAuNTg2MSBMNy40MTYxLDYuMDAwMSBDNy41OTIxLDUuNjg1MSA3LjcyNjEsNS4zNDkxIDcuODE2MSw1LjAwMDEgTDIwLjE1ODEsNS4wMDAxIEMyMC4yNTgxLDUuMzU1MSAyMC40MTIxLDUuNjkyMSAyMC42MTYxLDYuMDAwMSBMNi4wMTYxLDIwLjYwMDEgQzQuMjI0MSwxOS40MTMxIDEuNDk0MSwxOS45MDcxIDAuMjM3MSwyMi44MDUxIEMwLjEyMjEsMjMuMDcwMSAwLjA0MDEsMjMuMzU3MSAwLjAxNjEsMjMuNjQ1MSBDLTAuMTg3OSwyNi4wMDYxIDEuNjYzMSwyNy45OTExIDMuOTg0MSwyOC4wMDAxIEM1LjgxNDEsMjguMDA3MSA3LjQxNTEsMjYuNzcyMSA3Ljg3MzEsMjUuMDAwMSBMMjAuMTE2MSwyNS4wMDAxIEMyMC43MjkxLDI3LjQxMzEgMjMuNDEyMSwyOC43NTUxIDI1Ljc4NzEsMjcuNjEwMSBDMjcuMTAzMSwyNi45NzUxIDI3Ljk4NzEsMjUuNjA0MSAyOC4wMTgxLDI0LjE0MzEgQzI4LjA2ODEsMjEuNzk1MSAyNi4yMTIxLDIwLjAwNjEgMjQuMDE2MSwyMC4wMDAxIiBpZD0iRmlsbC0xIj48L3BhdGg+CiAgICAgICAgPC9nPgogICAgPC9nPgo8L3N2Zz4=;" parent="E5_EzEregts5peD-AZ1d-180" vertex="1">
          <mxGeometry x="20" y="7" width="20" height="20" as="geometry" />
        </mxCell>
        <mxCell id="QTtVWzLK6MqBhSYwqH0o-42" value="&lt;font color=&quot;#000000&quot;&gt;VPC Endpoint&lt;/font&gt;" style="rounded=1;whiteSpace=wrap;html=1;fillColor=#0050ef;strokeColor=#001DBC;shadow=0;sketch=1;curveFitting=1;jiggle=2;fontColor=#ffffff;labelPosition=center;verticalLabelPosition=bottom;align=center;verticalAlign=top;" parent="E5_EzEregts5peD-AZ1d-180" vertex="1">
          <mxGeometry x="52" y="60" width="40" height="36" as="geometry" />
        </mxCell>
        <mxCell id="E5_EzEregts5peD-AZ1d-185" value="" style="rounded=0;whiteSpace=wrap;html=1;fontFamily=IBM Plex Sans;fontSource=fonts%2FIBMPlexSans-Regular.woff;fontSize=14;spacingBottom=-28;spacingTop=0;labelPosition=-100;verticalLabelPosition=top;align=center;verticalAlign=bottom;spacingLeft=9;spacing=0;expand=0;recursiveResize=0;spacingRight=0;container=1;collapsible=0;strokeColor=#1192E8;fillColor=none;" parent="E5_EzEregts5peD-AZ1d-156" vertex="1">
          <mxGeometry x="-9550" y="-4460" width="140" height="149" as="geometry">
            <mxRectangle width="670" as="alternateBounds" />
          </mxGeometry>
        </mxCell>
        <mxCell id="E5_EzEregts5peD-AZ1d-186" value="" style="rounded=0;whiteSpace=wrap;html=1;strokeColor=none;fillColor=#1192E8;" parent="E5_EzEregts5peD-AZ1d-185" vertex="1">
          <mxGeometry width="7" height="37" as="geometry" />
        </mxCell>
        <mxCell id="E5_EzEregts5peD-AZ1d-187" value="&lt;font style=&quot;font-size: 12px;&quot;&gt;10.50.20.0/24&lt;/font&gt;" style="text;html=1;strokeColor=none;fillColor=none;align=left;verticalAlign=middle;whiteSpace=wrap;rounded=0;fontFamily=IBM Plex Sans;fontSource=fonts%2FIBMPlexSans-Regular.woff;fontSize=14;" parent="E5_EzEregts5peD-AZ1d-185" vertex="1">
          <mxGeometry x="51" y="8" width="99" height="20" as="geometry" />
        </mxCell>
        <mxCell id="E5_EzEregts5peD-AZ1d-188" value="" style="shape=image;aspect=fixed;image=data:image/svg+xml,PD94bWwgdmVyc2lvbj0iMS4wIiBlbmNvZGluZz0iVVRGLTgiPz4KPHN2ZyB3aWR0aD0iMjlweCIgaGVpZ2h0PSIyOXB4IiB2aWV3Qm94PSIwIDAgMjkgMjkiIHZlcnNpb249IjEuMSIgeG1sbnM9Imh0dHA6Ly93d3cudzMub3JnLzIwMDAvc3ZnIiB4bWxuczp4bGluaz0iaHR0cDovL3d3dy53My5vcmcvMTk5OS94bGluayI+CiAgICA8IS0tIEdlbmVyYXRvcjogU2tldGNoIDUzICg3MjUyMCkgLSBodHRwczovL3NrZXRjaGFwcC5jb20gLS0+CiAgICA8dGl0bGU+SUJNIFN1Ym5ldCA6IEFDTCBCbGFjazwvdGl0bGU+CiAgICA8ZGVzYz5DcmVhdGVkIHdpdGggU2tldGNoLjwvZGVzYz4KICAgIDxnIGlkPSJQYWdlLTEiIHN0cm9rZT0ibm9uZSIgc3Ryb2tlLXdpZHRoPSIxIiBmaWxsPSJub25lIiBmaWxsLXJ1bGU9ImV2ZW5vZGQiPgogICAgICAgIDxnIGlkPSJJQk0tU3VibmV0LTotQUNMLUJsYWNrIiB0cmFuc2Zvcm09InRyYW5zbGF0ZSgwLjc1MDAwMCwgMC4wNzQ5NTkpIiBmaWxsPSIjMDAwMDAwIj4KICAgICAgICAgICAgPHBhdGggZD0iTTI0LjAxNjEsMjYuMjIyMSBDMjIuOTEyMSwyNi4yMjIxIDIyLjAxNjEsMjUuMzI2MSAyMi4wMTYxLDI0LjIyMjEgQzIyLjAxNjEsMjMuMTE4MSAyMi45MTIxLDIyLjIyMjEgMjQuMDE2MSwyMi4yMjIxIEMyNS4xMjAxLDIyLjIyMjEgMjYuMDE2MSwyMy4xMTgxIDI2LjAxNjEsMjQuMjIyMSBDMjYuMDEzMSwyNS4zMjUxIDI1LjExOTEsMjYuMjE5MSAyNC4wMTYxLDI2LjIyMjEgTTQuMDE2MSwyNi4yMjIxIEMyLjkxMjEsMjYuMjIyMSAyLjAxNjEsMjUuMzI2MSAyLjAxNjEsMjQuMjIyMSBDMi4wMTYxLDIzLjExODEgMi45MTIxLDIyLjIyMjEgNC4wMTYxLDIyLjIyMjEgQzUuMTIwMSwyMi4yMjIxIDYuMDE2MSwyMy4xMTgxIDYuMDE2MSwyNC4yMjIxIEM2LjAxMzEsMjUuMzI1MSA1LjExOTEsMjYuMjE5MSA0LjAxNjEsMjYuMjIyMSBNNC4wMTYxLDYuMjIyMSBDMi45MTIxLDYuMjIyMSAyLjAxNjEsNS4zMjYxIDIuMDE2MSw0LjIyMjEgQzIuMDE2MSwzLjExODEgMi45MTIxLDIuMjIyMSA0LjAxNjEsMi4yMjIxIEM1LjEyMDEsMi4yMjIxIDYuMDE2MSwzLjExODEgNi4wMTYxLDQuMjIyMSBDNi4wMTMxLDUuMzI1MSA1LjExOTEsNi4yMTkxIDQuMDE2MSw2LjIyMjEgTTI0LjAxNjEsMi4yMjIxIEMyNS4xMjAxLDIuMjIyMSAyNi4wMTYxLDMuMTE4MSAyNi4wMTYxLDQuMjIyMSBDMjYuMDE2MSw1LjMyNjEgMjUuMTIwMSw2LjIyMjEgMjQuMDE2MSw2LjIyMjEgQzIyLjkxMjEsNi4yMjIxIDIyLjAxNjEsNS4zMjYxIDIyLjAxNjEsNC4yMjIxIEMyMi4wMTkxLDMuMTE4MSAyMi45MTMxLDIuMjI1MSAyNC4wMTYxLDIuMjIyMSBNMjQuMDE2MSwyMC4wMDAxIEMyMy4zMDUxLDE5Ljk5ODEgMjIuNjA5MSwyMC4yMDcxIDIyLjAxNjEsMjAuNjAwMSBMMTcuNDMwMSwxNi4wMDAxIEwxNi4wMTYxLDE3LjQxNDEgTDIwLjYxNjEsMjIuMDAwMSBDMjAuNDQwMSwyMi4zMTQxIDIwLjMwNjEsMjIuNjUxMSAyMC4yMTYxLDIzLjAwMDEgTDcuODc0MSwyMy4wMDAxIEM3Ljc3NDEsMjIuNjQ1MSA3LjYyMDEsMjIuMzA3MSA3LjQxNjEsMjIuMDAwMSBMMjIuMDE2MSw3LjQwMDEgQzIzLjgwNzEsOC41ODYxIDI2LjUzNzEsOC4wOTQxIDI3Ljc5NDEsNS4xOTgxIEMyNy45MTAxLDQuOTMyMSAyNy45OTIxLDQuNjQ0MSAyOC4wMTYxLDQuMzU1MSBDMjguMjIxMSwxLjk5NDEgMjYuMzcwMSwwLjAwOTEgMjQuMDQ4MSwwLjAwMDEgQzIyLjIxODEsLTAuMDA2OSAyMC42MTcxLDEuMjI4MSAyMC4xNTkxLDMuMDAwMSBMNy45MTYxLDMuMDAwMSBDNy40MzMxLDEuMjQwMSA1Ljg0MTEsMC4wMTUxIDQuMDE2MSwwLjAwMDEgQzEuNjc0MSwwLjAwMDEgLTAuMTk2OSwyLjAxMjEgMC4wMzYxLDQuNDAyMSBDMC4wNjcxLDQuNzIzMSAwLjE2MzEsNS4wNDExIDAuMjk5MSw1LjMzNTEgQzEuNTgyMSw4LjEwOTEgNC4yNTQxLDguNTY3MSA2LjAxNjEsNy40MDAxIEwxMC42MDIxLDEyLjAwMDEgTDEyLjAxNjEsMTAuNTg2MSBMNy40MTYxLDYuMDAwMSBDNy41OTIxLDUuNjg1MSA3LjcyNjEsNS4zNDkxIDcuODE2MSw1LjAwMDEgTDIwLjE1ODEsNS4wMDAxIEMyMC4yNTgxLDUuMzU1MSAyMC40MTIxLDUuNjkyMSAyMC42MTYxLDYuMDAwMSBMNi4wMTYxLDIwLjYwMDEgQzQuMjI0MSwxOS40MTMxIDEuNDk0MSwxOS45MDcxIDAuMjM3MSwyMi44MDUxIEMwLjEyMjEsMjMuMDcwMSAwLjA0MDEsMjMuMzU3MSAwLjAxNjEsMjMuNjQ1MSBDLTAuMTg3OSwyNi4wMDYxIDEuNjYzMSwyNy45OTExIDMuOTg0MSwyOC4wMDAxIEM1LjgxNDEsMjguMDA3MSA3LjQxNTEsMjYuNzcyMSA3Ljg3MzEsMjUuMDAwMSBMMjAuMTE2MSwyNS4wMDAxIEMyMC43MjkxLDI3LjQxMzEgMjMuNDEyMSwyOC43NTUxIDI1Ljc4NzEsMjcuNjEwMSBDMjcuMTAzMSwyNi45NzUxIDI3Ljk4NzEsMjUuNjA0MSAyOC4wMTgxLDI0LjE0MzEgQzI4LjA2ODEsMjEuNzk1MSAyNi4yMTIxLDIwLjAwNjEgMjQuMDE2MSwyMC4wMDAxIiBpZD0iRmlsbC0xIj48L3BhdGg+CiAgICAgICAgPC9nPgogICAgPC9nPgo8L3N2Zz4=;" parent="E5_EzEregts5peD-AZ1d-185" vertex="1">
          <mxGeometry x="20" y="7" width="20" height="20" as="geometry" />
        </mxCell>
        <mxCell id="QTtVWzLK6MqBhSYwqH0o-41" value="&lt;font color=&quot;#000000&quot;&gt;VPC Endpoint&lt;/font&gt;" style="rounded=1;whiteSpace=wrap;html=1;fillColor=#0050ef;strokeColor=#001DBC;shadow=0;sketch=1;curveFitting=1;jiggle=2;fontColor=#ffffff;labelPosition=center;verticalLabelPosition=bottom;align=center;verticalAlign=top;" parent="E5_EzEregts5peD-AZ1d-185" vertex="1">
          <mxGeometry x="50" y="60" width="40" height="36" as="geometry" />
        </mxCell>
        <mxCell id="E5_EzEregts5peD-AZ1d-190" value="" style="rounded=0;whiteSpace=wrap;html=1;fontFamily=IBM Plex Sans;fontSource=fonts%2FIBMPlexSans-Regular.woff;fontSize=14;spacingBottom=-28;spacingTop=0;labelPosition=-100;verticalLabelPosition=top;align=center;verticalAlign=bottom;spacingLeft=9;spacing=0;expand=0;recursiveResize=0;spacingRight=0;container=1;collapsible=0;strokeColor=#1192E8;fillColor=none;" parent="E5_EzEregts5peD-AZ1d-156" vertex="1">
          <mxGeometry x="-9723" y="-4621" width="140" height="150" as="geometry">
            <mxRectangle width="670" as="alternateBounds" />
          </mxGeometry>
        </mxCell>
        <mxCell id="E5_EzEregts5peD-AZ1d-191" value="" style="rounded=0;whiteSpace=wrap;html=1;strokeColor=none;fillColor=#1192E8;" parent="E5_EzEregts5peD-AZ1d-190" vertex="1">
          <mxGeometry width="7" height="37" as="geometry" />
        </mxCell>
        <mxCell id="E5_EzEregts5peD-AZ1d-192" value="&lt;font style=&quot;font-size: 12px;&quot;&gt;10.40.10.0/24&lt;/font&gt;" style="text;html=1;strokeColor=none;fillColor=none;align=left;verticalAlign=middle;whiteSpace=wrap;rounded=0;fontFamily=IBM Plex Sans;fontSource=fonts%2FIBMPlexSans-Regular.woff;fontSize=14;" parent="E5_EzEregts5peD-AZ1d-190" vertex="1">
          <mxGeometry x="51" y="8" width="99" height="20" as="geometry" />
        </mxCell>
        <mxCell id="E5_EzEregts5peD-AZ1d-193" value="" style="shape=image;aspect=fixed;image=data:image/svg+xml,PD94bWwgdmVyc2lvbj0iMS4wIiBlbmNvZGluZz0iVVRGLTgiPz4KPHN2ZyB3aWR0aD0iMjlweCIgaGVpZ2h0PSIyOXB4IiB2aWV3Qm94PSIwIDAgMjkgMjkiIHZlcnNpb249IjEuMSIgeG1sbnM9Imh0dHA6Ly93d3cudzMub3JnLzIwMDAvc3ZnIiB4bWxuczp4bGluaz0iaHR0cDovL3d3dy53My5vcmcvMTk5OS94bGluayI+CiAgICA8IS0tIEdlbmVyYXRvcjogU2tldGNoIDUzICg3MjUyMCkgLSBodHRwczovL3NrZXRjaGFwcC5jb20gLS0+CiAgICA8dGl0bGU+SUJNIFN1Ym5ldCA6IEFDTCBCbGFjazwvdGl0bGU+CiAgICA8ZGVzYz5DcmVhdGVkIHdpdGggU2tldGNoLjwvZGVzYz4KICAgIDxnIGlkPSJQYWdlLTEiIHN0cm9rZT0ibm9uZSIgc3Ryb2tlLXdpZHRoPSIxIiBmaWxsPSJub25lIiBmaWxsLXJ1bGU9ImV2ZW5vZGQiPgogICAgICAgIDxnIGlkPSJJQk0tU3VibmV0LTotQUNMLUJsYWNrIiB0cmFuc2Zvcm09InRyYW5zbGF0ZSgwLjc1MDAwMCwgMC4wNzQ5NTkpIiBmaWxsPSIjMDAwMDAwIj4KICAgICAgICAgICAgPHBhdGggZD0iTTI0LjAxNjEsMjYuMjIyMSBDMjIuOTEyMSwyNi4yMjIxIDIyLjAxNjEsMjUuMzI2MSAyMi4wMTYxLDI0LjIyMjEgQzIyLjAxNjEsMjMuMTE4MSAyMi45MTIxLDIyLjIyMjEgMjQuMDE2MSwyMi4yMjIxIEMyNS4xMjAxLDIyLjIyMjEgMjYuMDE2MSwyMy4xMTgxIDI2LjAxNjEsMjQuMjIyMSBDMjYuMDEzMSwyNS4zMjUxIDI1LjExOTEsMjYuMjE5MSAyNC4wMTYxLDI2LjIyMjEgTTQuMDE2MSwyNi4yMjIxIEMyLjkxMjEsMjYuMjIyMSAyLjAxNjEsMjUuMzI2MSAyLjAxNjEsMjQuMjIyMSBDMi4wMTYxLDIzLjExODEgMi45MTIxLDIyLjIyMjEgNC4wMTYxLDIyLjIyMjEgQzUuMTIwMSwyMi4yMjIxIDYuMDE2MSwyMy4xMTgxIDYuMDE2MSwyNC4yMjIxIEM2LjAxMzEsMjUuMzI1MSA1LjExOTEsMjYuMjE5MSA0LjAxNjEsMjYuMjIyMSBNNC4wMTYxLDYuMjIyMSBDMi45MTIxLDYuMjIyMSAyLjAxNjEsNS4zMjYxIDIuMDE2MSw0LjIyMjEgQzIuMDE2MSwzLjExODEgMi45MTIxLDIuMjIyMSA0LjAxNjEsMi4yMjIxIEM1LjEyMDEsMi4yMjIxIDYuMDE2MSwzLjExODEgNi4wMTYxLDQuMjIyMSBDNi4wMTMxLDUuMzI1MSA1LjExOTEsNi4yMTkxIDQuMDE2MSw2LjIyMjEgTTI0LjAxNjEsMi4yMjIxIEMyNS4xMjAxLDIuMjIyMSAyNi4wMTYxLDMuMTE4MSAyNi4wMTYxLDQuMjIyMSBDMjYuMDE2MSw1LjMyNjEgMjUuMTIwMSw2LjIyMjEgMjQuMDE2MSw2LjIyMjEgQzIyLjkxMjEsNi4yMjIxIDIyLjAxNjEsNS4zMjYxIDIyLjAxNjEsNC4yMjIxIEMyMi4wMTkxLDMuMTE4MSAyMi45MTMxLDIuMjI1MSAyNC4wMTYxLDIuMjIyMSBNMjQuMDE2MSwyMC4wMDAxIEMyMy4zMDUxLDE5Ljk5ODEgMjIuNjA5MSwyMC4yMDcxIDIyLjAxNjEsMjAuNjAwMSBMMTcuNDMwMSwxNi4wMDAxIEwxNi4wMTYxLDE3LjQxNDEgTDIwLjYxNjEsMjIuMDAwMSBDMjAuNDQwMSwyMi4zMTQxIDIwLjMwNjEsMjIuNjUxMSAyMC4yMTYxLDIzLjAwMDEgTDcuODc0MSwyMy4wMDAxIEM3Ljc3NDEsMjIuNjQ1MSA3LjYyMDEsMjIuMzA3MSA3LjQxNjEsMjIuMDAwMSBMMjIuMDE2MSw3LjQwMDEgQzIzLjgwNzEsOC41ODYxIDI2LjUzNzEsOC4wOTQxIDI3Ljc5NDEsNS4xOTgxIEMyNy45MTAxLDQuOTMyMSAyNy45OTIxLDQuNjQ0MSAyOC4wMTYxLDQuMzU1MSBDMjguMjIxMSwxLjk5NDEgMjYuMzcwMSwwLjAwOTEgMjQuMDQ4MSwwLjAwMDEgQzIyLjIxODEsLTAuMDA2OSAyMC42MTcxLDEuMjI4MSAyMC4xNTkxLDMuMDAwMSBMNy45MTYxLDMuMDAwMSBDNy40MzMxLDEuMjQwMSA1Ljg0MTEsMC4wMTUxIDQuMDE2MSwwLjAwMDEgQzEuNjc0MSwwLjAwMDEgLTAuMTk2OSwyLjAxMjEgMC4wMzYxLDQuNDAyMSBDMC4wNjcxLDQuNzIzMSAwLjE2MzEsNS4wNDExIDAuMjk5MSw1LjMzNTEgQzEuNTgyMSw4LjEwOTEgNC4yNTQxLDguNTY3MSA2LjAxNjEsNy40MDAxIEwxMC42MDIxLDEyLjAwMDEgTDEyLjAxNjEsMTAuNTg2MSBMNy40MTYxLDYuMDAwMSBDNy41OTIxLDUuNjg1MSA3LjcyNjEsNS4zNDkxIDcuODE2MSw1LjAwMDEgTDIwLjE1ODEsNS4wMDAxIEMyMC4yNTgxLDUuMzU1MSAyMC40MTIxLDUuNjkyMSAyMC42MTYxLDYuMDAwMSBMNi4wMTYxLDIwLjYwMDEgQzQuMjI0MSwxOS40MTMxIDEuNDk0MSwxOS45MDcxIDAuMjM3MSwyMi44MDUxIEMwLjEyMjEsMjMuMDcwMSAwLjA0MDEsMjMuMzU3MSAwLjAxNjEsMjMuNjQ1MSBDLTAuMTg3OSwyNi4wMDYxIDEuNjYzMSwyNy45OTExIDMuOTg0MSwyOC4wMDAxIEM1LjgxNDEsMjguMDA3MSA3LjQxNTEsMjYuNzcyMSA3Ljg3MzEsMjUuMDAwMSBMMjAuMTE2MSwyNS4wMDAxIEMyMC43MjkxLDI3LjQxMzEgMjMuNDEyMSwyOC43NTUxIDI1Ljc4NzEsMjcuNjEwMSBDMjcuMTAzMSwyNi45NzUxIDI3Ljk4NzEsMjUuNjA0MSAyOC4wMTgxLDI0LjE0MzEgQzI4LjA2ODEsMjEuNzk1MSAyNi4yMTIxLDIwLjAwNjEgMjQuMDE2MSwyMC4wMDAxIiBpZD0iRmlsbC0xIj48L3BhdGg+CiAgICAgICAgPC9nPgogICAgPC9nPgo8L3N2Zz4=;" parent="E5_EzEregts5peD-AZ1d-190" vertex="1">
          <mxGeometry x="20" y="7" width="20" height="20" as="geometry" />
        </mxCell>
        <mxCell id="QTtVWzLK6MqBhSYwqH0o-37" value="&lt;font color=&quot;#000000&quot;&gt;Virtual Server&lt;/font&gt;" style="rounded=1;whiteSpace=wrap;html=1;fillColor=#60a917;strokeColor=#2D7600;shadow=0;sketch=1;curveFitting=1;jiggle=2;fontColor=#ffffff;labelPosition=center;verticalLabelPosition=bottom;align=center;verticalAlign=top;" parent="E5_EzEregts5peD-AZ1d-190" vertex="1">
          <mxGeometry x="51" y="60" width="38" height="36" as="geometry" />
        </mxCell>
        <mxCell id="E5_EzEregts5peD-AZ1d-195" value="" style="rounded=0;whiteSpace=wrap;html=1;fontFamily=IBM Plex Sans;fontSource=fonts%2FIBMPlexSans-Regular.woff;fontSize=14;spacingBottom=-28;spacingTop=0;labelPosition=-100;verticalLabelPosition=top;align=center;verticalAlign=bottom;spacingLeft=9;spacing=0;expand=0;recursiveResize=0;spacingRight=0;container=1;collapsible=0;strokeColor=#1192E8;fillColor=none;" parent="E5_EzEregts5peD-AZ1d-156" vertex="1">
          <mxGeometry x="-9550" y="-4621" width="140" height="150" as="geometry">
            <mxRectangle width="670" as="alternateBounds" />
          </mxGeometry>
        </mxCell>
        <mxCell id="E5_EzEregts5peD-AZ1d-196" value="" style="rounded=0;whiteSpace=wrap;html=1;strokeColor=none;fillColor=#1192E8;" parent="E5_EzEregts5peD-AZ1d-195" vertex="1">
          <mxGeometry width="7" height="37" as="geometry" />
        </mxCell>
        <mxCell id="E5_EzEregts5peD-AZ1d-197" value="&lt;font style=&quot;font-size: 12px;&quot;&gt;10.50.10.0/24&lt;/font&gt;" style="text;html=1;strokeColor=none;fillColor=none;align=left;verticalAlign=middle;whiteSpace=wrap;rounded=0;fontFamily=IBM Plex Sans;fontSource=fonts%2FIBMPlexSans-Regular.woff;fontSize=14;" parent="E5_EzEregts5peD-AZ1d-195" vertex="1">
          <mxGeometry x="51" y="8" width="99" height="20" as="geometry" />
        </mxCell>
        <mxCell id="E5_EzEregts5peD-AZ1d-198" value="" style="shape=image;aspect=fixed;image=data:image/svg+xml,PD94bWwgdmVyc2lvbj0iMS4wIiBlbmNvZGluZz0iVVRGLTgiPz4KPHN2ZyB3aWR0aD0iMjlweCIgaGVpZ2h0PSIyOXB4IiB2aWV3Qm94PSIwIDAgMjkgMjkiIHZlcnNpb249IjEuMSIgeG1sbnM9Imh0dHA6Ly93d3cudzMub3JnLzIwMDAvc3ZnIiB4bWxuczp4bGluaz0iaHR0cDovL3d3dy53My5vcmcvMTk5OS94bGluayI+CiAgICA8IS0tIEdlbmVyYXRvcjogU2tldGNoIDUzICg3MjUyMCkgLSBodHRwczovL3NrZXRjaGFwcC5jb20gLS0+CiAgICA8dGl0bGU+SUJNIFN1Ym5ldCA6IEFDTCBCbGFjazwvdGl0bGU+CiAgICA8ZGVzYz5DcmVhdGVkIHdpdGggU2tldGNoLjwvZGVzYz4KICAgIDxnIGlkPSJQYWdlLTEiIHN0cm9rZT0ibm9uZSIgc3Ryb2tlLXdpZHRoPSIxIiBmaWxsPSJub25lIiBmaWxsLXJ1bGU9ImV2ZW5vZGQiPgogICAgICAgIDxnIGlkPSJJQk0tU3VibmV0LTotQUNMLUJsYWNrIiB0cmFuc2Zvcm09InRyYW5zbGF0ZSgwLjc1MDAwMCwgMC4wNzQ5NTkpIiBmaWxsPSIjMDAwMDAwIj4KICAgICAgICAgICAgPHBhdGggZD0iTTI0LjAxNjEsMjYuMjIyMSBDMjIuOTEyMSwyNi4yMjIxIDIyLjAxNjEsMjUuMzI2MSAyMi4wMTYxLDI0LjIyMjEgQzIyLjAxNjEsMjMuMTE4MSAyMi45MTIxLDIyLjIyMjEgMjQuMDE2MSwyMi4yMjIxIEMyNS4xMjAxLDIyLjIyMjEgMjYuMDE2MSwyMy4xMTgxIDI2LjAxNjEsMjQuMjIyMSBDMjYuMDEzMSwyNS4zMjUxIDI1LjExOTEsMjYuMjE5MSAyNC4wMTYxLDI2LjIyMjEgTTQuMDE2MSwyNi4yMjIxIEMyLjkxMjEsMjYuMjIyMSAyLjAxNjEsMjUuMzI2MSAyLjAxNjEsMjQuMjIyMSBDMi4wMTYxLDIzLjExODEgMi45MTIxLDIyLjIyMjEgNC4wMTYxLDIyLjIyMjEgQzUuMTIwMSwyMi4yMjIxIDYuMDE2MSwyMy4xMTgxIDYuMDE2MSwyNC4yMjIxIEM2LjAxMzEsMjUuMzI1MSA1LjExOTEsMjYuMjE5MSA0LjAxNjEsMjYuMjIyMSBNNC4wMTYxLDYuMjIyMSBDMi45MTIxLDYuMjIyMSAyLjAxNjEsNS4zMjYxIDIuMDE2MSw0LjIyMjEgQzIuMDE2MSwzLjExODEgMi45MTIxLDIuMjIyMSA0LjAxNjEsMi4yMjIxIEM1LjEyMDEsMi4yMjIxIDYuMDE2MSwzLjExODEgNi4wMTYxLDQuMjIyMSBDNi4wMTMxLDUuMzI1MSA1LjExOTEsNi4yMTkxIDQuMDE2MSw2LjIyMjEgTTI0LjAxNjEsMi4yMjIxIEMyNS4xMjAxLDIuMjIyMSAyNi4wMTYxLDMuMTE4MSAyNi4wMTYxLDQuMjIyMSBDMjYuMDE2MSw1LjMyNjEgMjUuMTIwMSw2LjIyMjEgMjQuMDE2MSw2LjIyMjEgQzIyLjkxMjEsNi4yMjIxIDIyLjAxNjEsNS4zMjYxIDIyLjAxNjEsNC4yMjIxIEMyMi4wMTkxLDMuMTE4MSAyMi45MTMxLDIuMjI1MSAyNC4wMTYxLDIuMjIyMSBNMjQuMDE2MSwyMC4wMDAxIEMyMy4zMDUxLDE5Ljk5ODEgMjIuNjA5MSwyMC4yMDcxIDIyLjAxNjEsMjAuNjAwMSBMMTcuNDMwMSwxNi4wMDAxIEwxNi4wMTYxLDE3LjQxNDEgTDIwLjYxNjEsMjIuMDAwMSBDMjAuNDQwMSwyMi4zMTQxIDIwLjMwNjEsMjIuNjUxMSAyMC4yMTYxLDIzLjAwMDEgTDcuODc0MSwyMy4wMDAxIEM3Ljc3NDEsMjIuNjQ1MSA3LjYyMDEsMjIuMzA3MSA3LjQxNjEsMjIuMDAwMSBMMjIuMDE2MSw3LjQwMDEgQzIzLjgwNzEsOC41ODYxIDI2LjUzNzEsOC4wOTQxIDI3Ljc5NDEsNS4xOTgxIEMyNy45MTAxLDQuOTMyMSAyNy45OTIxLDQuNjQ0MSAyOC4wMTYxLDQuMzU1MSBDMjguMjIxMSwxLjk5NDEgMjYuMzcwMSwwLjAwOTEgMjQuMDQ4MSwwLjAwMDEgQzIyLjIxODEsLTAuMDA2OSAyMC42MTcxLDEuMjI4MSAyMC4xNTkxLDMuMDAwMSBMNy45MTYxLDMuMDAwMSBDNy40MzMxLDEuMjQwMSA1Ljg0MTEsMC4wMTUxIDQuMDE2MSwwLjAwMDEgQzEuNjc0MSwwLjAwMDEgLTAuMTk2OSwyLjAxMjEgMC4wMzYxLDQuNDAyMSBDMC4wNjcxLDQuNzIzMSAwLjE2MzEsNS4wNDExIDAuMjk5MSw1LjMzNTEgQzEuNTgyMSw4LjEwOTEgNC4yNTQxLDguNTY3MSA2LjAxNjEsNy40MDAxIEwxMC42MDIxLDEyLjAwMDEgTDEyLjAxNjEsMTAuNTg2MSBMNy40MTYxLDYuMDAwMSBDNy41OTIxLDUuNjg1MSA3LjcyNjEsNS4zNDkxIDcuODE2MSw1LjAwMDEgTDIwLjE1ODEsNS4wMDAxIEMyMC4yNTgxLDUuMzU1MSAyMC40MTIxLDUuNjkyMSAyMC42MTYxLDYuMDAwMSBMNi4wMTYxLDIwLjYwMDEgQzQuMjI0MSwxOS40MTMxIDEuNDk0MSwxOS45MDcxIDAuMjM3MSwyMi44MDUxIEMwLjEyMjEsMjMuMDcwMSAwLjA0MDEsMjMuMzU3MSAwLjAxNjEsMjMuNjQ1MSBDLTAuMTg3OSwyNi4wMDYxIDEuNjYzMSwyNy45OTExIDMuOTg0MSwyOC4wMDAxIEM1LjgxNDEsMjguMDA3MSA3LjQxNTEsMjYuNzcyMSA3Ljg3MzEsMjUuMDAwMSBMMjAuMTE2MSwyNS4wMDAxIEMyMC43MjkxLDI3LjQxMzEgMjMuNDEyMSwyOC43NTUxIDI1Ljc4NzEsMjcuNjEwMSBDMjcuMTAzMSwyNi45NzUxIDI3Ljk4NzEsMjUuNjA0MSAyOC4wMTgxLDI0LjE0MzEgQzI4LjA2ODEsMjEuNzk1MSAyNi4yMTIxLDIwLjAwNjEgMjQuMDE2MSwyMC4wMDAxIiBpZD0iRmlsbC0xIj48L3BhdGg+CiAgICAgICAgPC9nPgogICAgPC9nPgo8L3N2Zz4=;" parent="E5_EzEregts5peD-AZ1d-195" vertex="1">
          <mxGeometry x="20" y="7" width="20" height="20" as="geometry" />
        </mxCell>
        <mxCell id="QTtVWzLK6MqBhSYwqH0o-38" value="&lt;font color=&quot;#000000&quot;&gt;Virtual Server&lt;/font&gt;" style="rounded=1;whiteSpace=wrap;html=1;fillColor=#60a917;strokeColor=#2D7600;shadow=0;sketch=1;curveFitting=1;jiggle=2;fontColor=#ffffff;labelPosition=center;verticalLabelPosition=bottom;align=center;verticalAlign=top;" parent="E5_EzEregts5peD-AZ1d-195" vertex="1">
          <mxGeometry x="52" y="60" width="38" height="36" as="geometry" />
        </mxCell>
        <mxCell id="E5_EzEregts5peD-AZ1d-200" value="" style="rounded=0;whiteSpace=wrap;html=1;fontFamily=IBM Plex Sans;fontSource=fonts%2FIBMPlexSans-Regular.woff;fontSize=14;spacingBottom=-28;spacingTop=0;labelPosition=-100;verticalLabelPosition=top;align=center;verticalAlign=bottom;spacingLeft=9;spacing=0;expand=0;recursiveResize=0;spacingRight=0;container=1;collapsible=0;strokeColor=#1192E8;fillColor=none;" parent="E5_EzEregts5peD-AZ1d-156" vertex="1">
          <mxGeometry x="-9380" y="-4621" width="140" height="150" as="geometry">
            <mxRectangle width="670" as="alternateBounds" />
          </mxGeometry>
        </mxCell>
        <mxCell id="E5_EzEregts5peD-AZ1d-201" value="" style="rounded=0;whiteSpace=wrap;html=1;strokeColor=none;fillColor=#1192E8;" parent="E5_EzEregts5peD-AZ1d-200" vertex="1">
          <mxGeometry width="7" height="37" as="geometry" />
        </mxCell>
        <mxCell id="E5_EzEregts5peD-AZ1d-202" value="&lt;font style=&quot;font-size: 12px;&quot;&gt;10.60.10.0/24&lt;/font&gt;" style="text;html=1;strokeColor=none;fillColor=none;align=left;verticalAlign=middle;whiteSpace=wrap;rounded=0;fontFamily=IBM Plex Sans;fontSource=fonts%2FIBMPlexSans-Regular.woff;fontSize=14;" parent="E5_EzEregts5peD-AZ1d-200" vertex="1">
          <mxGeometry x="51" y="8" width="99" height="20" as="geometry" />
        </mxCell>
        <mxCell id="E5_EzEregts5peD-AZ1d-203" value="" style="shape=image;aspect=fixed;image=data:image/svg+xml,PD94bWwgdmVyc2lvbj0iMS4wIiBlbmNvZGluZz0iVVRGLTgiPz4KPHN2ZyB3aWR0aD0iMjlweCIgaGVpZ2h0PSIyOXB4IiB2aWV3Qm94PSIwIDAgMjkgMjkiIHZlcnNpb249IjEuMSIgeG1sbnM9Imh0dHA6Ly93d3cudzMub3JnLzIwMDAvc3ZnIiB4bWxuczp4bGluaz0iaHR0cDovL3d3dy53My5vcmcvMTk5OS94bGluayI+CiAgICA8IS0tIEdlbmVyYXRvcjogU2tldGNoIDUzICg3MjUyMCkgLSBodHRwczovL3NrZXRjaGFwcC5jb20gLS0+CiAgICA8dGl0bGU+SUJNIFN1Ym5ldCA6IEFDTCBCbGFjazwvdGl0bGU+CiAgICA8ZGVzYz5DcmVhdGVkIHdpdGggU2tldGNoLjwvZGVzYz4KICAgIDxnIGlkPSJQYWdlLTEiIHN0cm9rZT0ibm9uZSIgc3Ryb2tlLXdpZHRoPSIxIiBmaWxsPSJub25lIiBmaWxsLXJ1bGU9ImV2ZW5vZGQiPgogICAgICAgIDxnIGlkPSJJQk0tU3VibmV0LTotQUNMLUJsYWNrIiB0cmFuc2Zvcm09InRyYW5zbGF0ZSgwLjc1MDAwMCwgMC4wNzQ5NTkpIiBmaWxsPSIjMDAwMDAwIj4KICAgICAgICAgICAgPHBhdGggZD0iTTI0LjAxNjEsMjYuMjIyMSBDMjIuOTEyMSwyNi4yMjIxIDIyLjAxNjEsMjUuMzI2MSAyMi4wMTYxLDI0LjIyMjEgQzIyLjAxNjEsMjMuMTE4MSAyMi45MTIxLDIyLjIyMjEgMjQuMDE2MSwyMi4yMjIxIEMyNS4xMjAxLDIyLjIyMjEgMjYuMDE2MSwyMy4xMTgxIDI2LjAxNjEsMjQuMjIyMSBDMjYuMDEzMSwyNS4zMjUxIDI1LjExOTEsMjYuMjE5MSAyNC4wMTYxLDI2LjIyMjEgTTQuMDE2MSwyNi4yMjIxIEMyLjkxMjEsMjYuMjIyMSAyLjAxNjEsMjUuMzI2MSAyLjAxNjEsMjQuMjIyMSBDMi4wMTYxLDIzLjExODEgMi45MTIxLDIyLjIyMjEgNC4wMTYxLDIyLjIyMjEgQzUuMTIwMSwyMi4yMjIxIDYuMDE2MSwyMy4xMTgxIDYuMDE2MSwyNC4yMjIxIEM2LjAxMzEsMjUuMzI1MSA1LjExOTEsMjYuMjE5MSA0LjAxNjEsMjYuMjIyMSBNNC4wMTYxLDYuMjIyMSBDMi45MTIxLDYuMjIyMSAyLjAxNjEsNS4zMjYxIDIuMDE2MSw0LjIyMjEgQzIuMDE2MSwzLjExODEgMi45MTIxLDIuMjIyMSA0LjAxNjEsMi4yMjIxIEM1LjEyMDEsMi4yMjIxIDYuMDE2MSwzLjExODEgNi4wMTYxLDQuMjIyMSBDNi4wMTMxLDUuMzI1MSA1LjExOTEsNi4yMTkxIDQuMDE2MSw2LjIyMjEgTTI0LjAxNjEsMi4yMjIxIEMyNS4xMjAxLDIuMjIyMSAyNi4wMTYxLDMuMTE4MSAyNi4wMTYxLDQuMjIyMSBDMjYuMDE2MSw1LjMyNjEgMjUuMTIwMSw2LjIyMjEgMjQuMDE2MSw2LjIyMjEgQzIyLjkxMjEsNi4yMjIxIDIyLjAxNjEsNS4zMjYxIDIyLjAxNjEsNC4yMjIxIEMyMi4wMTkxLDMuMTE4MSAyMi45MTMxLDIuMjI1MSAyNC4wMTYxLDIuMjIyMSBNMjQuMDE2MSwyMC4wMDAxIEMyMy4zMDUxLDE5Ljk5ODEgMjIuNjA5MSwyMC4yMDcxIDIyLjAxNjEsMjAuNjAwMSBMMTcuNDMwMSwxNi4wMDAxIEwxNi4wMTYxLDE3LjQxNDEgTDIwLjYxNjEsMjIuMDAwMSBDMjAuNDQwMSwyMi4zMTQxIDIwLjMwNjEsMjIuNjUxMSAyMC4yMTYxLDIzLjAwMDEgTDcuODc0MSwyMy4wMDAxIEM3Ljc3NDEsMjIuNjQ1MSA3LjYyMDEsMjIuMzA3MSA3LjQxNjEsMjIuMDAwMSBMMjIuMDE2MSw3LjQwMDEgQzIzLjgwNzEsOC41ODYxIDI2LjUzNzEsOC4wOTQxIDI3Ljc5NDEsNS4xOTgxIEMyNy45MTAxLDQuOTMyMSAyNy45OTIxLDQuNjQ0MSAyOC4wMTYxLDQuMzU1MSBDMjguMjIxMSwxLjk5NDEgMjYuMzcwMSwwLjAwOTEgMjQuMDQ4MSwwLjAwMDEgQzIyLjIxODEsLTAuMDA2OSAyMC42MTcxLDEuMjI4MSAyMC4xNTkxLDMuMDAwMSBMNy45MTYxLDMuMDAwMSBDNy40MzMxLDEuMjQwMSA1Ljg0MTEsMC4wMTUxIDQuMDE2MSwwLjAwMDEgQzEuNjc0MSwwLjAwMDEgLTAuMTk2OSwyLjAxMjEgMC4wMzYxLDQuNDAyMSBDMC4wNjcxLDQuNzIzMSAwLjE2MzEsNS4wNDExIDAuMjk5MSw1LjMzNTEgQzEuNTgyMSw4LjEwOTEgNC4yNTQxLDguNTY3MSA2LjAxNjEsNy40MDAxIEwxMC42MDIxLDEyLjAwMDEgTDEyLjAxNjEsMTAuNTg2MSBMNy40MTYxLDYuMDAwMSBDNy41OTIxLDUuNjg1MSA3LjcyNjEsNS4zNDkxIDcuODE2MSw1LjAwMDEgTDIwLjE1ODEsNS4wMDAxIEMyMC4yNTgxLDUuMzU1MSAyMC40MTIxLDUuNjkyMSAyMC42MTYxLDYuMDAwMSBMNi4wMTYxLDIwLjYwMDEgQzQuMjI0MSwxOS40MTMxIDEuNDk0MSwxOS45MDcxIDAuMjM3MSwyMi44MDUxIEMwLjEyMjEsMjMuMDcwMSAwLjA0MDEsMjMuMzU3MSAwLjAxNjEsMjMuNjQ1MSBDLTAuMTg3OSwyNi4wMDYxIDEuNjYzMSwyNy45OTExIDMuOTg0MSwyOC4wMDAxIEM1LjgxNDEsMjguMDA3MSA3LjQxNTEsMjYuNzcyMSA3Ljg3MzEsMjUuMDAwMSBMMjAuMTE2MSwyNS4wMDAxIEMyMC43MjkxLDI3LjQxMzEgMjMuNDEyMSwyOC43NTUxIDI1Ljc4NzEsMjcuNjEwMSBDMjcuMTAzMSwyNi45NzUxIDI3Ljk4NzEsMjUuNjA0MSAyOC4wMTgxLDI0LjE0MzEgQzI4LjA2ODEsMjEuNzk1MSAyNi4yMTIxLDIwLjAwNjEgMjQuMDE2MSwyMC4wMDAxIiBpZD0iRmlsbC0xIj48L3BhdGg+CiAgICAgICAgPC9nPgogICAgPC9nPgo8L3N2Zz4=;" parent="E5_EzEregts5peD-AZ1d-200" vertex="1">
          <mxGeometry x="20" y="7" width="20" height="20" as="geometry" />
        </mxCell>
        <mxCell id="QTtVWzLK6MqBhSYwqH0o-39" value="&lt;font color=&quot;#000000&quot;&gt;Virtual Server&lt;/font&gt;" style="rounded=1;whiteSpace=wrap;html=1;fillColor=#60a917;strokeColor=#2D7600;shadow=0;sketch=1;curveFitting=1;jiggle=2;fontColor=#ffffff;labelPosition=center;verticalLabelPosition=bottom;align=center;verticalAlign=top;" parent="E5_EzEregts5peD-AZ1d-200" vertex="1">
          <mxGeometry x="56" y="60" width="38" height="36" as="geometry" />
        </mxCell>
        <mxCell id="E5_EzEregts5peD-AZ1d-205" value="" style="rounded=0;whiteSpace=wrap;html=1;fontFamily=IBM Plex Sans;fontSource=fonts%2FIBMPlexSans-Regular.woff;fontSize=14;spacingBottom=-28;spacingTop=0;labelPosition=-100;verticalLabelPosition=top;align=center;verticalAlign=bottom;spacingLeft=9;spacing=0;expand=0;recursiveResize=0;spacingRight=0;container=1;collapsible=0;strokeColor=#1192E8;fillColor=none;" parent="E5_EzEregts5peD-AZ1d-156" vertex="1">
          <mxGeometry x="-9723" y="-4462" width="140" height="151" as="geometry">
            <mxRectangle width="670" as="alternateBounds" />
          </mxGeometry>
        </mxCell>
        <mxCell id="E5_EzEregts5peD-AZ1d-206" value="" style="rounded=0;whiteSpace=wrap;html=1;strokeColor=none;fillColor=#1192E8;" parent="E5_EzEregts5peD-AZ1d-205" vertex="1">
          <mxGeometry width="7" height="37" as="geometry" />
        </mxCell>
        <mxCell id="E5_EzEregts5peD-AZ1d-207" value="&lt;font style=&quot;font-size: 12px;&quot;&gt;10.40.20.0/24&lt;/font&gt;" style="text;html=1;strokeColor=none;fillColor=none;align=left;verticalAlign=middle;whiteSpace=wrap;rounded=0;fontFamily=IBM Plex Sans;fontSource=fonts%2FIBMPlexSans-Regular.woff;fontSize=14;" parent="E5_EzEregts5peD-AZ1d-205" vertex="1">
          <mxGeometry x="51" y="8" width="99" height="20" as="geometry" />
        </mxCell>
        <mxCell id="E5_EzEregts5peD-AZ1d-208" value="" style="shape=image;aspect=fixed;image=data:image/svg+xml,PD94bWwgdmVyc2lvbj0iMS4wIiBlbmNvZGluZz0iVVRGLTgiPz4KPHN2ZyB3aWR0aD0iMjlweCIgaGVpZ2h0PSIyOXB4IiB2aWV3Qm94PSIwIDAgMjkgMjkiIHZlcnNpb249IjEuMSIgeG1sbnM9Imh0dHA6Ly93d3cudzMub3JnLzIwMDAvc3ZnIiB4bWxuczp4bGluaz0iaHR0cDovL3d3dy53My5vcmcvMTk5OS94bGluayI+CiAgICA8IS0tIEdlbmVyYXRvcjogU2tldGNoIDUzICg3MjUyMCkgLSBodHRwczovL3NrZXRjaGFwcC5jb20gLS0+CiAgICA8dGl0bGU+SUJNIFN1Ym5ldCA6IEFDTCBCbGFjazwvdGl0bGU+CiAgICA8ZGVzYz5DcmVhdGVkIHdpdGggU2tldGNoLjwvZGVzYz4KICAgIDxnIGlkPSJQYWdlLTEiIHN0cm9rZT0ibm9uZSIgc3Ryb2tlLXdpZHRoPSIxIiBmaWxsPSJub25lIiBmaWxsLXJ1bGU9ImV2ZW5vZGQiPgogICAgICAgIDxnIGlkPSJJQk0tU3VibmV0LTotQUNMLUJsYWNrIiB0cmFuc2Zvcm09InRyYW5zbGF0ZSgwLjc1MDAwMCwgMC4wNzQ5NTkpIiBmaWxsPSIjMDAwMDAwIj4KICAgICAgICAgICAgPHBhdGggZD0iTTI0LjAxNjEsMjYuMjIyMSBDMjIuOTEyMSwyNi4yMjIxIDIyLjAxNjEsMjUuMzI2MSAyMi4wMTYxLDI0LjIyMjEgQzIyLjAxNjEsMjMuMTE4MSAyMi45MTIxLDIyLjIyMjEgMjQuMDE2MSwyMi4yMjIxIEMyNS4xMjAxLDIyLjIyMjEgMjYuMDE2MSwyMy4xMTgxIDI2LjAxNjEsMjQuMjIyMSBDMjYuMDEzMSwyNS4zMjUxIDI1LjExOTEsMjYuMjE5MSAyNC4wMTYxLDI2LjIyMjEgTTQuMDE2MSwyNi4yMjIxIEMyLjkxMjEsMjYuMjIyMSAyLjAxNjEsMjUuMzI2MSAyLjAxNjEsMjQuMjIyMSBDMi4wMTYxLDIzLjExODEgMi45MTIxLDIyLjIyMjEgNC4wMTYxLDIyLjIyMjEgQzUuMTIwMSwyMi4yMjIxIDYuMDE2MSwyMy4xMTgxIDYuMDE2MSwyNC4yMjIxIEM2LjAxMzEsMjUuMzI1MSA1LjExOTEsMjYuMjE5MSA0LjAxNjEsMjYuMjIyMSBNNC4wMTYxLDYuMjIyMSBDMi45MTIxLDYuMjIyMSAyLjAxNjEsNS4zMjYxIDIuMDE2MSw0LjIyMjEgQzIuMDE2MSwzLjExODEgMi45MTIxLDIuMjIyMSA0LjAxNjEsMi4yMjIxIEM1LjEyMDEsMi4yMjIxIDYuMDE2MSwzLjExODEgNi4wMTYxLDQuMjIyMSBDNi4wMTMxLDUuMzI1MSA1LjExOTEsNi4yMTkxIDQuMDE2MSw2LjIyMjEgTTI0LjAxNjEsMi4yMjIxIEMyNS4xMjAxLDIuMjIyMSAyNi4wMTYxLDMuMTE4MSAyNi4wMTYxLDQuMjIyMSBDMjYuMDE2MSw1LjMyNjEgMjUuMTIwMSw2LjIyMjEgMjQuMDE2MSw2LjIyMjEgQzIyLjkxMjEsNi4yMjIxIDIyLjAxNjEsNS4zMjYxIDIyLjAxNjEsNC4yMjIxIEMyMi4wMTkxLDMuMTE4MSAyMi45MTMxLDIuMjI1MSAyNC4wMTYxLDIuMjIyMSBNMjQuMDE2MSwyMC4wMDAxIEMyMy4zMDUxLDE5Ljk5ODEgMjIuNjA5MSwyMC4yMDcxIDIyLjAxNjEsMjAuNjAwMSBMMTcuNDMwMSwxNi4wMDAxIEwxNi4wMTYxLDE3LjQxNDEgTDIwLjYxNjEsMjIuMDAwMSBDMjAuNDQwMSwyMi4zMTQxIDIwLjMwNjEsMjIuNjUxMSAyMC4yMTYxLDIzLjAwMDEgTDcuODc0MSwyMy4wMDAxIEM3Ljc3NDEsMjIuNjQ1MSA3LjYyMDEsMjIuMzA3MSA3LjQxNjEsMjIuMDAwMSBMMjIuMDE2MSw3LjQwMDEgQzIzLjgwNzEsOC41ODYxIDI2LjUzNzEsOC4wOTQxIDI3Ljc5NDEsNS4xOTgxIEMyNy45MTAxLDQuOTMyMSAyNy45OTIxLDQuNjQ0MSAyOC4wMTYxLDQuMzU1MSBDMjguMjIxMSwxLjk5NDEgMjYuMzcwMSwwLjAwOTEgMjQuMDQ4MSwwLjAwMDEgQzIyLjIxODEsLTAuMDA2OSAyMC42MTcxLDEuMjI4MSAyMC4xNTkxLDMuMDAwMSBMNy45MTYxLDMuMDAwMSBDNy40MzMxLDEuMjQwMSA1Ljg0MTEsMC4wMTUxIDQuMDE2MSwwLjAwMDEgQzEuNjc0MSwwLjAwMDEgLTAuMTk2OSwyLjAxMjEgMC4wMzYxLDQuNDAyMSBDMC4wNjcxLDQuNzIzMSAwLjE2MzEsNS4wNDExIDAuMjk5MSw1LjMzNTEgQzEuNTgyMSw4LjEwOTEgNC4yNTQxLDguNTY3MSA2LjAxNjEsNy40MDAxIEwxMC42MDIxLDEyLjAwMDEgTDEyLjAxNjEsMTAuNTg2MSBMNy40MTYxLDYuMDAwMSBDNy41OTIxLDUuNjg1MSA3LjcyNjEsNS4zNDkxIDcuODE2MSw1LjAwMDEgTDIwLjE1ODEsNS4wMDAxIEMyMC4yNTgxLDUuMzU1MSAyMC40MTIxLDUuNjkyMSAyMC42MTYxLDYuMDAwMSBMNi4wMTYxLDIwLjYwMDEgQzQuMjI0MSwxOS40MTMxIDEuNDk0MSwxOS45MDcxIDAuMjM3MSwyMi44MDUxIEMwLjEyMjEsMjMuMDcwMSAwLjA0MDEsMjMuMzU3MSAwLjAxNjEsMjMuNjQ1MSBDLTAuMTg3OSwyNi4wMDYxIDEuNjYzMSwyNy45OTExIDMuOTg0MSwyOC4wMDAxIEM1LjgxNDEsMjguMDA3MSA3LjQxNTEsMjYuNzcyMSA3Ljg3MzEsMjUuMDAwMSBMMjAuMTE2MSwyNS4wMDAxIEMyMC43MjkxLDI3LjQxMzEgMjMuNDEyMSwyOC43NTUxIDI1Ljc4NzEsMjcuNjEwMSBDMjcuMTAzMSwyNi45NzUxIDI3Ljk4NzEsMjUuNjA0MSAyOC4wMTgxLDI0LjE0MzEgQzI4LjA2ODEsMjEuNzk1MSAyNi4yMTIxLDIwLjAwNjEgMjQuMDE2MSwyMC4wMDAxIiBpZD0iRmlsbC0xIj48L3BhdGg+CiAgICAgICAgPC9nPgogICAgPC9nPgo8L3N2Zz4=;" parent="E5_EzEregts5peD-AZ1d-205" vertex="1">
          <mxGeometry x="20" y="7" width="20" height="20" as="geometry" />
        </mxCell>
        <mxCell id="QTtVWzLK6MqBhSYwqH0o-40" value="&lt;font color=&quot;#000000&quot;&gt;VPC Endpoint&lt;/font&gt;" style="rounded=1;whiteSpace=wrap;html=1;fillColor=#0050ef;strokeColor=#001DBC;shadow=0;sketch=1;curveFitting=1;jiggle=2;fontColor=#ffffff;labelPosition=center;verticalLabelPosition=bottom;align=center;verticalAlign=top;" parent="E5_EzEregts5peD-AZ1d-205" vertex="1">
          <mxGeometry x="53" y="62" width="40" height="36" as="geometry" />
        </mxCell>
        <mxCell id="E5_EzEregts5peD-AZ1d-255" value="" style="endArrow=classic;startArrow=classic;html=1;rounded=0;exitX=1.003;exitY=0.421;exitDx=0;exitDy=0;exitPerimeter=0;entryX=1.005;entryY=0.53;entryDx=0;entryDy=0;entryPerimeter=0;strokeWidth=1;dashed=1;" parent="E5_EzEregts5peD-AZ1d-156" source="E5_EzEregts5peD-AZ1d-48" target="E5_EzEregts5peD-AZ1d-221" edge="1">
          <mxGeometry width="50" height="50" relative="1" as="geometry">
            <mxPoint x="-9180" y="-4755" as="sourcePoint" />
            <mxPoint x="-9130" y="-4805" as="targetPoint" />
            <Array as="points">
              <mxPoint x="-9156" y="-5109" />
              <mxPoint x="-9156" y="-4474" />
            </Array>
          </mxGeometry>
        </mxCell>
        <mxCell id="hISOZa--S4DMa_SKPuWB-46" value="" style="sketch=0;outlineConnect=0;fontColor=#232F3E;gradientColor=none;fillColor=#8C4FFF;strokeColor=none;dashed=0;verticalLabelPosition=bottom;verticalAlign=top;align=center;html=1;fontSize=12;fontStyle=0;aspect=fixed;pointerEvents=1;shape=mxgraph.aws4.vpn_gateway;" vertex="1" parent="E5_EzEregts5peD-AZ1d-156">
          <mxGeometry x="-9991" y="-4888" width="78" height="78" as="geometry" />
        </mxCell>
        <mxCell id="hISOZa--S4DMa_SKPuWB-49" value="" style="shape=image;aspect=fixed;image=data:image/png,iVBORw0KGgoAAAANSUhEUgAAAiMAAABcCAYAAAC8wbWMAABAXElEQVR4Xu1dB3hU1da9kwZJgBRaQle6SJGH4ENpIv6AqEgX7AJiQRApdkARQSwgKAIBQaUpIgRFRakWFHiCCAjSA4RQkwAhhJDMv9YwA5PJlHPu3JlMwrnfN89H5pR91r1zzz67rG3S1FVoEcjNzCqWfTilUm7mhcgLu/fXvXQguUZ2yonK2sXs4lhUVnjLJquK16m+LSQ2+mRofNljhXahSnCFgEJAIaAQKNIImIr06oro4rKPnohLXbS82/nf/7ztwrotbXMOHS3DpZq0MPxv8JVVm7VM/C1cC2/T6JdiDWr+Wax+rb9LtGq2pljNqnuKKDRqWQoBhYBCQCFQCBFQykghuWm0gmTtS6p+bOyUV87PXXn/ZbFDNFNkKP4T5HoVl3I1c0YOvrd9NCgn//kl+rkH3i1xc6P1ymJSSB4AJaZCQCGgECjCCChlpBDcXCgixVNemPBW2qTFg6lUmCJhAXGngLhbk0U5ydbM2hmtWJOb/ir18D2zYrp1XACl5HghgEKJqBBQCCgEFAJFEAGljNjdVGz69HOYctLORPO/1o/Z7r9sbQ6OLpVm3w3/PzcovBhND4Zfmdt310t5Zsz0zNX/a26KDNevhDiRzJyejb9CuYkqnhY/Y1T/Unffnoh1ZBm+CDWgQkAhoBBQCCgE3CBwTSsj2OhvzDmRWjZrz4HqOZmZEZeSUipfTE6uYk5Oq5xz9lyM+WxmVM75jOLBEZHcoM2mkuFpwSVLpGrhoRmmmMjTweGRGcGREWdNsSVTg2Oj8e/wzOBSJc+ai4dkhZaKOmOKKHY+JCb6pN4YDcaGHLx7wKqLm/bUhcLguwfZYi3J1Er2vWdG5YSx/X03kRpZIaAQUAgoBBQC+RG4ppQRujuYfXImcWWXc9+s7QIlpI75zIUoc3qGFRkGfxKSyzEYpsirwaD89+XYC165dkjScGJvFGGfYFgbQvmFuXjjOpuuWz2nmZ6HL3nQmClpkxY8bYqK1NNdrg8UktyMU1q1DV83iWza8H9ynVVrhYBCQCGgEFAI6EcgRH/XwtMza/fBWufW/tE6qeegzhmJqzpczjoJu6JsiG72pig3gaL2cGBj1y7lmmBtMCGLZaO2Wh6rjA1/NT3U9dkHLK4Zf1yIQTFpEdqFrbsaYDqljPgDczWHQkAhoBBQCFgQKLLKiCX7ZPeB2ic/mPN8Uqcn22bvSqrI5QZFRhkad+H0ObIGl5q1i1p422YrtEnyT1vGH1tuyz10KkpUUZKfwXmPC8lHgJO6FAIKAYWAQkAh4D8EipwycunSpeCsP7c3Odj16dfPL191p0krack+8femDsuIhfcjsnH9jbK3k4oUrDidirCuKAuJaq8QUAgoBBQCRRiBIqWMMODz8MPPTzw/9+eejOsIiipbYLeO8SVhTWpvMwUHM2VF+oIlp56FQ8TPV2hM7Ek/T6mmUwgoBBQCCoFrHIEio4ycSvii7546nSYhGDXicgqs/zfyvM9SjhbRpun3DmnAMo9bDhUa4TgVmZGdtWWcC66o9q1XeDuU6q8QUAgoBBQCCgEZBAQjMmWG9G9bWkOQdTLpWN/XZ8A1EmFxx+glBDNU9BwtpErcIfB2XJIdNjc0+GLxFo2gFPiEusSpOFR8wMz6K9KQ98nKq9orBBQCCgGFgELAGwQKtTKSmvjjvXtqdNyD9NdnjSYE8wZUu766UqdDQkLMJTq0/Ja1Zfx6hYde8Ot8ajKFgEJAIaAQUAgAgUKrjMAt0y/l/pcW4kQfGTjWkLzPVHbq6RgE1OpSSEJLxx4LiorJYSCsPy5yqmQu39gWuCrSM38AruZQCCgEFAIKgSsIFDplhMRldMuk9H1hOlZRDORiAXo7Q7TsXQduCMrOIamJ9BXRrOHv4Z1uWcw6Mn65yDOCrKOUvq9M21m5VQp5TpzNe/FwSsXMrbvq4/tm/IDDpYZf5FOTKAQUAgoBhUCRRUDXqb2g0GDa7ok3P3wtdeSM1wLULXMVGlg0QiqVPVxtzZzGKEJ3Qg9maV981/1Ij6e/8HdWEGvWQMnLjurf5YOImxtYUpOzDx2tkp1yomLWph3/RZ2cpmbtPP4aooXVrpFc9o2BQ6N7dJivZ42qj0JAIaAQUAgoBAqNMkJF5Pjz495LnfTps34hLjPg2chNP6FVXbOgVYnWTdfpHe7APQO+OZ+4/i6f1qZxJpylXs1FfOOE6p40+TZiNyguZi1Nixn2xAcVJowYpHedqp9CQCGgEFAIXLsIFBo3DZSQ5xioWlgUET5SJFxL/XzJo948XuXHPPdCUOXok5cr7PrxotsGxfkYj3P1w3/DLUZF5DLl/RWBYDG51Y/SqakUAgoBhYBCoAghUCgsI0dHT3r19MgPXy9MiojlGSELa2xE6vXrF94YVikuWe9zg9iMm5Pa9f/FnJ4VZooqpneYq/0sVo/LFg/HYoAu06ItfagQXYIl5CII5WK00JqVdgWXizlaom3zZdG9754Ld9Qx74VTIygEFAIKAYXAtYZAwCsjqV993y2561NfBkWWDhD+ELlHxJx+QSuf8HK/0n17JMj1zNv63JoNLY4+MWpe9q4jlbxy2VyOZTkZWrvKpkvJJyqYz2bG5ZzPKIHqxaEgjEOp4fNQNjJg1blaKZj/Dqlc53Sx+jU3F29Wf13xm27YHFoqKi20YvkjoZXijoBLJcubtam+CgGFQGAjkJqaWmrXrl11Dh06VOXUqVN4GTu/Spcufapy5coHa9SosbdMmTKnA3tVSrpAQiCglRFmdMAisBIWhhKBQWQmf+voXglrct22qss+vl1vIKttVmayJHV+evnFTXsa6FZILltr0uLefeHJUnffvsRi6tA0BIFcvXLSzpTM2rW/Lv5itiocNquOGYoHA0nUpRBQCBRhBKB8RP/666/NFy5ceP/u3btrHj9+vBw+5c+dOxchsuzrr79+X5UqVQ61bt169X333be4YsWKyZGRkenh4eHSJJAi86k2hR+BgFVGWCzu31p37s89dDY+cNN3xR6A3PRUrdy7Lwwp+/xj74v1cN0KjLPljgwdg/o7K+/XnVEEhSQ3Iz0XMg01QiZv16T6KwQUAoGBwIEDB6ouW7as0/vvv//cvn37qhslVYkSJc7169cvoXnz5r926tTpGyglimDRKHCLyDgBq4wkDxs/Pm3CZ8P9Xm3XFzeWgZ4hQReqb196PWJHjno7BRW1IwNHTzmbsLyvpZieHvp7SwxIphYzut+o8sMHvKUsHt7elcv9J0+ePPDChQsojgRvF2OYL1/8//muunXr7sCL+VtjZlajKAT0I8BsxWeeeebDFStWtIMScr3+kTz3hLVk3eOPPz6jW7duX0ApUZZWz5BdEy0CslAe4kS6HO360nDLyb8oXFAWEDtS/OSEhOFQJIZj4/cqNcYao9EPgb0Hwbnyhi4LiYXkLFxDYPAo8+mzsZBrmFJIvH/YBg4cOMlOCXE74HPPPTcRDZQy4j3sagQvENi5c2etu+++e+J3333XwYthhLuuWbOmJT9paWlR6PShcEfVsEgjEHCpvSx8d2zwWx9ZUNdz4g/Q20V207RJXw5OX766k1Eixo8cNCZ6UK+JtHDouoAvM5SYMn3qo7nP6hpDddKNAE6FZI5Tl0KgwBD466+/6rdo0eJnfykidgs1d+nS5esCW7iaOOAQCChlhKZCxEO8n3voVPnCHieS705b6daTuz67GIGoFYx6Ehj3EdGn7QJm7ei6rBYSEMpNYL0fXWOoTgoBhUChQ+DIkSMVHnnkkTknTpwo52/hH3zwwbkMavX3vGq+wEUgoJSRC7/82SLzm9+7FBn3jON958avRWhHHhyxADVdrjPisUCF35wK418cGtakxjbwkOgb0mohOdZ37HTWm9E3iOqlEFAIFCYE4FL8cPPmzTcVhMyPPfaYV1QHBSGzmtO3CASMMsKgzJSh46cgFTasKLlnHG8fScsyV//VYk/NdntTE3+8G+v2utIfgmKPVJw19n6MfV53lV+LSyxIS37wxSWZ23fX8+1jp0ZXCCgEChKBb775puPixYs7F4QMcM8sadSo0eaCmFvNGbgIBIwygpiFp7I2/V2vyLlnnNx7KiSI1TAdvWdEYsprE98w4vEIb1B7W/yMUQ9Z4kfsaNplxib2IFWLS3lmDCsiq8v3CJjgmgzYjDbfL1/NUFAIzJo1yyuXbNmyZVPhZjmGlF1p//Cdd975fUxMzJmCWruaNzARCIgXoZXcbDU20YiibBXJ9whc5vvQijWp/3fFOeN6hderucPbx+T45DlPn0DarzeVfsmLEjPs8XdQ+G6Yt/IESn/4x+NOnjxZ9vTp07Hbtm2rf/To0fjMzMwI/K1MRkZGCRAyZYAx8gTImvbWrl17Z/ny5VOKFSuWxb/hkyaxDhbsEfpdvfTSS2+NHTv2JYmxNfBAVElPT2cWgv1ln0Z85e/YLA5D9lTH8W1jbN26tSGIrW47ePBg1eHDh49v06bNGhlZGON1+PDhipQHzJyVf/vtt1uRmXGD/RhVq1Y90LZt2x/BypkUFRWVBlyPIXBXdzYZ7mM875l1DseU6Ty4Y+0ngUGeVHrIHGSVOfrYsWPlEcDZaO/evTVI6MVnoEGDBlsQ0LkuLi4uuVKlSslwg14twCQDjpu2lGHPnj3Vs7Kyiq9fv/6/uAct+Azauvz3v//9tUmTJhvj4+OTiZ8jXlh/LHCoiPa29bt63kx8fh0x+P3335sie+YbxIqUFV0SlI7zzz777MR27dqtAD6/0D3s2JdEaT/99NMdeL6q8blasmTJvU7GN2P9obb+aFvJ4Xl2thbL32rVqvWPLGkafuOh//77b20367SMzWezWrVqh0TxsLWzvldsz6Oz7rbx0zF+krvxgV9JPJNxyDKK3rJlS+OkpKQqZLzFs3GFDpvPKH9LIJRLwnPyG95RmfxNQbk7Kyu7rT1+szXxLDrWGXG8Dya+D63PY554ADu5Y0CQVwu/p+r8TfH3x/fpjTfeuC02NvaU9VlMcSVngaf20j2T1HPQSMQ7RBhSd0XvHSmIfozVQI2Xi5v21j/cZdAPcNs8HXNPu0RvRCnTt1fC+R/Xdzif+Asq/V6ldJcZkxk26dMXD4GS+GVk04YbZPoGWtvVq1e3Wrt2bes+ffq02bRp03/AIHnlpe9BVjNZJLE5bR81atTmevXqbevevfsiT+sjuROukp7a8fuwsDDpIJ/Zs2c/CnlGudiM80z75Zdf9sAfrsgM0/xdUBiad+zY8b4dO3aQYffKBR/+TBGZ2YabDpg5e4KX4qZ169a1wFh5FBDHcUCgNZh/u+GGG3a0bNny548//nhzz549F+IFmiY6p63djBkz+tut3757Pi4XzPMkGkyzNQKHxh2QuTte9DdhQ77Zxdx9rLL+A1nXoc8inOR/kpXTWXsqbwkJCX2Jmzs+D5v7hMrk7bffvgb3cSlYTL+2beCLFi3qPmDAgKmYw6PSa8VqtL08VOZkFBFYQU7NnTu3F3GA8uwSCuv9tDxvmGPm6NGjK2Kd7YcNGzbB1glyT7NXZPA8PwYZ88jnYgIzfsut8Z1UBfSVK1e2I8maG6wsivwtt9yyHopFF2DucrN0Jtc777wzwvZ8u3tGwD/0DL7Pl8bMZ2LVqlVtqMiDe6Uhn1HR9wfnw705DuXwN2C4pVevXgvq1KmzS+ZZxW+5xK233vo1fsOOrvl8Bxz8frfj2eyC8f/lHFD0ik+ZMuUZyH3rzz//3ALPlMsyAWzfoUOHHyDn7yC/mx6Qwcsn3p313HatlvmfqGbX9GeH1thMHMAd8goVNJkHyrEt0qPL72/z8K8cUy+u7LuzcqsUb2XxZh16++IHFvXZZ5/1wQ+Vhfv4ozLsw5cKT0OUDb7vxUaO7TBWLk7tNzpiAGsKdwOh9WAT68b+3HihVP3lrp+trTvMscGUBjfKe6Lze2qHtbzJMWXus8z6rRuARhy52XiSx9X3IOlawxRYGTnt2+KlXYzPI/5GK4vQvXPSjs+DRQYoWU+IjkOMHeWeMGHCUNH+bGdtr3f5GjdcPF9dsRkthyWksv1AVqVQCBf0/15WCCg/HwuuNZcWI5nxaVGggu1pfCqV9r9lPA/B+Hc93JsxnvrKfo8spc8hlztLUJ4l4vcXjUPXHpF5sNZ/yElDJUTmGXQ2NpSSkTzU2AtToJYRBErWPdD8gcvVeK/xi/EapktRJCF749KhY1WhULyKWjZSWroNQlbPzdy664m9DVpuDb5UxaTH9UV5cg4dLX8yYQFffB8UltvDF3bv3r3fBm9Ce1/IjAyEyRs2bLgFYz9Ak6kv5rAb09nJ1ymbqzM5YNLOZKAiNmJ3J0OhJVBZgYn+RWRfNBbqINCILirI1wmfF3F6XS7QhU2E18/GXH/Dhg29Wj8IulrBMrEEm9X9wFLKUsj02f79+4+HMvKA4PpcNTPhBPsrrAOdULBOGANY3/IxnGITiJGRhS4jmfaOba2WkK+wiS3BM5nHvQM8N9ICKUI9j9/0/1GxceYiciYfXUCwArYQlN1EKw3aCt9fuFGqOloYnc1Vs2bNvXgGt/E7ygSF/mVs5gME5ZJqRqWXH1pYYMla6alzcHCwcK0guGly4EKKnTZt2pMi1iB3c9NiBzdxIzyLj9ospAUWwIoTd9ixsVNeBT9GoS2C5+lGS39vdducTUjse/DuAT9BoWggPYa1AwNay7/71mBzhn62ZYu7ZsrCF5CGbFiNCr3rEelHlwx+9H/5ShGxyVDAaYkeTfM2OceMGTMSptsl+LdwH0eceQqiNQIuqi+NVERs8+CF1ICU+DwpcS6B+yy8lnHjxr1qpdsX7uNqflKkY+P8A89YSwEZLU14iuSp2ABFxDIezfeM62E8hqgMzto5U1Dcjffjjz/e6c18tr6Oiojt79ichWt2zZ8//35RWRAb1sCTC9F+LJ72qeyIjo/2T4u0JfU92zFYffDgwVN8pYjYy0KXms0yKCKjSBvEg9RGrNEKbxUR21x0R8INucqGeYEpI6lzlz6QMfc7pKOKvH9EoCo6bRjrgcq89Q53f+4bVurVu7Lo3nfPD+948wpv+EeydyXFZ27e0USvDP7qZ6W0Xob5vN543Ml80003McDxZ2sbX87lamzhUzFN4NjAdKeO8yWBU30CLBgv+vo+8qSEuSwvbaMuWCUMJ/Ni4KejedmZvHwecSqntcfoZ8QE5eZBUYwuXryYz+VbvXp1muWFrw8++GAQLUzCHSQbAtOl6CL0XMsoYoznkBRF+/7774UsqnQFC6ZGm+Fe+o5ywKJj7tu375UYJlnZZNvTiuvJ/ZqTkyOsfOFdEoK4EKF4OFFZyXMzdepUxnaBWKIALlK+nxj94TjlnnENPpU0pNlWPtL/lU/0MrbCXXOi7PD+Y82aN6zjYVrq1AUDAzl2hD55nN7flgn80vvY0wcvaibWO0cg9KOVgoXTrLEOfhGJFgSekgUtJH6RyXESPmOTJk0a5G5yKivIIFop4nrwwyLybfLFixeXSsfFmiNpYWLMBpUSup6YpWKU7MxcY6yDyHgImG5NRc9TW8Yisf6Np3aO3zOQVKQPcLhbpB0DdqOjo0/b2jKzzBprJtLd6zZPPfXUVHcxJHDT5MuK8npSyQGgNH3A+JsCUUZOTp/XF5TvZfXEMkius1A3p0KSufz3dslPjdLN+1GiddO1ER1bfq+XLp6xI+dX/3xrthcWGl/fBEZy45TiLI3Q0Knp34aZfLWhgwboYOPHjx9hDVLzq4Q0AXNuN5MKnaB9KfSnn376CF+eruagsoINu5IvZfBmbKaGIutLOhWUMRtUSuB6OgIr1kw+H4xNIBY8EOiViem6cCv8INIfbpfaSIt2ib1tDBl3jv28WGMnxyBbZ3J9/fXXXUXkBV7LaBGxteVarcU0Rbp73QaWjDJvvvnmq64GslpGjLbeycptQhzKAL8HsDL+YP/tDw0sspTvsrfBQ3u6bDISV92FujGPl+7bQzj90n7YuHHDhu1ffn97CxmajuKDpLA/PW8JA/BeN3h5hgyHDYzZAcIXXC1bkfu+leZqBqEyoI/8IykpKfEI0IphYBpOtVUdB+zateuXyJU/Zfd3X2+Mvh7fKWY8eSJFcKQwoAY3pMsGG8Js8DIcNHhoQ4bDs1Ft48aNLJuw23FAZk3ccccdQrEEhgijYxAEpG6Cq/FXb2Kr6CqyuYsQgHqwXLlyx3HiT77//vs/p8KO39UZGT4ZyLOW8TUiSpyVsM1ltWsqRlCWGGQufcFtUH///v3Xo6NLzhEGySOguaGnwfmewedPx3bAZx0ztHC19jQGSeVgmfIqloHWTfyeXg7U3xMxwDt8iN+VkVPTF/SDVaScXg4MTzevKH5PdxbcWhOQffQriNF2yq4x9Ibq/0QP6zkubcK8F/TF6IRoF/74u5XsvP5ozxcPUnibi85FHyozI9y5WkgKRmI0cBS0xY/kOevY9PfOAGfClansiapE55do55TITKK/rqYk5OrWrRt5IaRPS+QOgP9/GTlZOPn27dtvxMn5Tmze0nWYEHz6ImR5yhekY7qAceg0c+bM/vhTPtcCTszdZDg87Ifl5oVNahWJomz4wS3RUiRjQ2ZNPKnjd5DgjTJiPx8Vd5vybrNQYi2boVMubd68+a+MsYJi4pZTBxvlYSgzG9Hfo0WJc9AV5oqnBiRnNXEfOstgYt8WgZ/8za911Z9kgSLPdLNmzda74i1hWi+ztBx/Z8zWat++/XL8hrazqjeUuvPZ2dmhJIa7cOFC8T///PMmbtyya1u2bBndSlOc9JP+ncvOLdrer8oI4w52hjcdrqwiorfH2g7WjNxDaTEn3/+EPxKm2kpd3HjPrdnwfdqE+S/osY6YIkO1S3uTb4BVq0axmlWlgt+kBNXRGIyF7tgP84zYuXPnpcgK+crTNFamxCQoOitefvnlN0nswz6OLz+ydcKiEsMUWutLJVemFDs2nSSwvTpl3WWAHK587KmeZPf0PZk0kWq4m0yK11133T7KTpZHsiOyLwiYbgdz5j2exnH8Hi/wgQ888MDniEc4jzEtKVyMK8ALNPLzzz/vDdM0X4TCLz66AFBRdhb6CKdaepIZG/3PTz/99Ac333zzxtDQUAsLLAPoQETWzwVbqMshsZHkSxllnAJwfM2THI7fkwxq5MiRr+FZ+Bf4ZdgsCjb8YIX5z2uvvTYGAcnSp31XmTMkUWNgpczzKrMu4morwkfccTqfBqvJAneHAGapQdG4T2QepoSjndM4E7Da3so4F5FxnLVx5/LlPcE6uouMDWK/+XiOnTYlyy/jZGhdwm8yE0RgH/N5B7PqQXdsqlDQ52HcBU8++eR04NtIRA62wcGgvrO0aGvMiPDv0n4+lgTAb34O5YHrz2JJouKEIOD/Gzp06DuyMXx+VUaQQQPinxxdvBeioBfVdrRopCfM7A+F4C0oBAdk18nYkT1Num67uGn/jaYo+VChSymn4rKPHGNmT0ApIzgxRIuyqjKvXYanwLop0C3jlCHSyhzp+J0wHfxDDz00yx37JJQi2dvstj1TCkkhjfTnv/Eiy9MWL0XLv7HJtpGZFC+kkzh1kctkIxSOPF2t+KXhjx/BtL0O827F/xd+8eGl1gHtDVFGaBGjIor1OS6PZey/JZmbnRVMCAJa0OwpvqEs0HUjvD5OQpfUiBEjxgOrfEGldvithHK6ESmis0U3a08LoMUJ8g+45557EnnS99Tem++puPHz3nvvDYUS8bIrThnyqDCWRWQTowUKMjlVRt544w2XMRKi67A+L/kYl3H4iRdR1rkO0ua7mo/3FmniM+Eq3gtFZAatinj+PIpntRRuxL3rjGdPeB8g6zDLIGACR0p6qefVJiAVaGTBPEHXjxO5p0O+H0Ar8IUMkZz8ruQRLucNWJ32/O9bkB8vnEmkc6ai2y1IK6udSVzZWe8KYwb0nGTWzsl3p2UG9WqyT50WrmUhP4m+HvwRk4JdpDdNyY8++uhs+lBF0jNFxvSmDdIuw3T0l355sDYJXwqM7Kci4mpOWmNAty5VQA004SQC80iKRdIn2fRQpGY+rwOffF2YpePJIoaT3Nt0LcjMh9iCPO4nuPXukOnPk7ErRcRxHBaWw2Y+WFZGd88YFakvvviCp3y/xCbxJM8AWDK6OsuYwhrTcR/eFcEQcU11nGXVMJjWWrdHZBiXbVxl1VhLLHgcG5au1z1l3SF2ZC0PI3qo0akEWNllPcrCBqgVcz3dPEKNPTQCE+sumyLiqinle/7559+Wmc9vykjWvqTrz325srspUs/7V2ZJRbltiJaxdkN7vWm2Jdu3XG7SUJpFR1Vfkxamnd/+j2P9ggIHm4XgGDwnKgg3Jm4CePGx6uhh/P/PSLjFjZIbNl5mNYxMW/Qgl56qvdIbB9wkvUQUBgTuVpaJd6DbC6RFwtlFSGtcJZrCSdx4Qqb1QfTeOmtHGeke8DQGffsy9Xk4Hk6aeajNWfTO0zz238NlNNmZRcTNCz5pyJAhQpu1bQxPBGcIVN7NApJW2njpZ0tmvba2rFUDS9REZwRjiDFxaU2wn4tZNX///Xc+UkhmOumRybHPDz/80MExY4rxVF999ZWlxIKni24YT228/R6uGtYnErpnrBvDAnyOc8rwjNj6vvjii2NEgmF5AJDJ2vKbm+b8+s0tcLouwcJw6tKHAGM3QEJWH4pdDYywXXYUU3Bwdnib+r9krv77NnlXTbCWm3SiCi1cQeHFdFddlZVZpD3ZBuGCkGaJ5QnKkR0TcSA7atSo8S9elvsbN278PzIEOlY9FZFJsI3ZPu1PsI9UM3JDMHpfpBN97SLtbG1QfPBzT6c/+/EYS4L79IsMIykCiVmfx221U3cyIwNqkaiMiKHZL7N+Zy930f40cyNGRKqoGcdmnJKoK0NUFmuG2CtwG6x4++23X/BVHIm9PIwJgluG5IFz7f+OeJ4NUJxxLvAcH5OYmNgZCsJiW5AzLXuIhRGlf3cLD5UdZtWh0ZWMKRbatD6PbvtCAU60uiRFb4GlHStS03r0zz//1GOlXlq1cDAKdzKIxToKyyHrOklbSqWEctLYWnhQaBhklq0WcWtxML8pI8gGGalIzoTun9tG2buSK+ScSNXlLjGVjTlVvHXj1Zmr/wd3mSxnUTCCWI+wAJPfrGmiaOGEQIpl6cBeZ+PDf34DP/bf8TTPwEcR64KozP5qN3z48HHYXISmQ82TOkINrY3IVyHTnm2xAUtlg+HFzHshWrcmjziIZznNYF1RGaGE7sZGnyEa/Hjq1KkrRf6waYQgeyJCdC6WV6dbQrS9rV2tWrV2s3y8kyqrToeScQValdZ1TE8mj8Yff/xxCzh8WgIP4XXJrAdWnkmY6y9b3Rb2ZfAmLJXfiSgjdLciXoEEdJZ0ewT6NnEWWCwjk33bjz76iEFQVyo2A4tWIs8Gic1ELF5QnkohlqMRlSrGK+HQo1dUoX5nzpyJcmwoS3pGRatkyZLCHDVQOH8RVUb8srGQW+TSoZ2V9HBcCKF8rTRC7IY3bKo8QQTHRtvzZEghl3P2XECatZgGZ63mKrUe0cY8yTPlzpWvW3Qcg9pJnYS4eRk0b55h6Oe2ZhFJDR8bG3uKZc9FO8kWdbMfF/OcAPulcEYSX7JMpxSVzaGd1H1BXyHzuqMstC7hdyxc3EzPWqgcMJaBmz3o129BenY7ujP1jOWuD10HzqxxCHycJzqXvRUHcR5CNXsYNCwyPjdRmyuJisO3334rxLoqwrBKtzADkhk3Ihs4LSK7szYyiqmrOazWQwbpC134TZ0RaohGfrGMgDCrN4Mv1WUMAtln0qP1jhRWvhwqAcsHEZsiYRk5dtK3qrvORVldHS/DtRLuyx82fd14ObfAi+lhVxwHOpfgk27cjFFp0y2/gxcTy26+lqmQrpzuKY7BXiYXZmohsemekaE+B1a6q0oyOwIKK1O8hS7GaZAjxxP/huNgMOWXb9q06RWLjKfJZLB2HAvWG9KY88OgZ1oIHqLVhAoErWhYQxn8Hm4V4dxwJSfcQiOw4c+w55OBhWqvKCnYvHnzHsbYnzMgFliO8oQHvjejzMFkFmhEZlIXT+2tTK6fw2VTRYReHnKTvI0ZWk4vFstDAcvX4OoQkdWTeF5/j5gRGiSEFWP8ftNkXMsylc19bhlBHZqyF9b8ieJDKnDV6yfHOkBoqag078bCPqIjiNV85kJkTtqZUt7N7bveLOhG64XvZtA0npY81Sbx5fwyYzPtVqY9XzSi7ZFSXUqPokDyJqZji86jx/piG1snh4Lwi9lxDTKKDzdDknOJ4mBrh5iC/4iwlMqOK9qeVhNmZVHp/+STTx5evnx5e8SatLYVgxMdx9aOigy4KfJsDtzsYB2ZLzIWlKKazKqxplV77EKLD5UsUfp5Hj446OzZsx/zODgawJ3rjFjsSldw2vQXtcyIzGdAG9lDhWx7YRF9royc27ilOWIUmrPGibq8RAAKBLNhTBHF9JqSKYC3D5Pul7WXq/fYnadMWC/eZWAq3DZv4ZQiFLjpcWCHBggcGyaTPy87voHtpe51XFwcrGZiF33nPN2Ltb7aChtwHVFeGPaKj48/KjtHQbV3Rv3tShYGK4rWN7GNwdM/zPtShHTOqvYahQ+tGcjG+ZeuBrhLOsJq0kCPUoJnIl/wOflwWAPHk6xQZqowq2bhwoW9PLXl961atbIwq1rH9/i8gwG3FenfkV3jsZovU17r169PLh2nF7NzZNJxRdZjQJuAeZ/73E2T9vFCsFf6fBqxe4LN3JxhK1JIt5cz1ytdGHyHB2l0TQRanEto7bhDQZERQrwazkDJOXMWlg2sO0S+rpWpVPHzwdGlhIOXxG6K8a2sZtKXrNHpjREEWZfMonb011KbtKOE3IhJIoS/G0LIZTwC+kZs1KhRvjoa7kZCdkETfO+yRoizvkjVrSYjnWzAq8PYfn3RInDxJxk3IU/IsCqsFs12WrRoUVejArVl7oFoW3LY4Df3GDKYlohaKjg2FVT8J092IC0wVnp4T65hE2rVPA5LE3+Pbi8yweIZ38JGHB+K01+QN85dJ2bVgDPkDcS3xHsav2XLlmuonLlqN3HiRCneHLj9/gBXxwQGOzuMyfeXmSRmiOXJk43kScZA/t6nWgJqqdywr97/3REUJX2AMg4ziwJCV3COFlS59JnQumVSgsvFJJtiIk+FVahw0FSi+FkEdZ42XcwJuXTubEnz6bNlLu4/XMt8NjMqa8+B2qijE31ZmDCtoK075oxsLbRJzfXFrq9iqV2h58rJzNQVGU8lLqRSpG4lSI+s3vaxpuRys/wWvtr3aA4m8Q9YFMvxNEW6alKh41OZdMl44cSKzomgvvY4qX5ioz4X7RfI7eCr38eXHD5CyppsQTsoIlWRKj1ABgN3LJYy4/ijLTaP9TL4USbU8lmOQNEnUA9okav4EdLMwyXyKDYe1gwy9OI9ZC0hpmuKZIB4mpx8LVCYZskoI/hNOktf1ZCm+xXiOjp7mlO0xg6UkZX2sV733nvv16xE7Gl80VIBwDDRFf07nv1KYLsVrqHF+0KXErg6XIrHMT3JXpi+96kykjp78eOs+OrXyxoLwY2bmSdIJ86OHtT9o/C2zVaFxZU7Gla5QlJofNljnmQisVjm3zvrX0w5XuHC5h03nZv3Q9+Lu3ZWurweKCYFYjW5pEXc0ngteD50ByXmnE4T3nDzYpSrhVSv8I8n3AL1e2uAHCm3+UnDhycYC90zzd/MMISpt6foyZYMkFZGwzxBj6g3A8vxPiHOE9S1Ka0niNFXGCPY7CxOo0tFNgCbDK+++uobUPQeFeHyYPE7UWw4PtlGjdggfYWX47gk4COZl+gzxP60sjF1HGRaPcDu+SlPwbY4Gcbk4PRbCQrcCJz86+tZh7sAVmxmlTt27Ngdp/+R5KOBkeYtVvMVuZfuZDl79mxJGVnLly/v1F0iw2chMh9qv8y2T6ShAmik2wQF7n5wJQfYequL3kPyyAwaNGiSp6QfoxhVRbCza+Mza6PPlBGm8x66fwhSofwUuGqxgFzm4gqqHHU6vHOjH0u2ufWHmD73Mk0sV5aoy7rhb+J4eNl+W374gHGXTqWWTl+4vMe5b9Z2u/Dnzqbm9IxQS9E/pNz6/OL6oFyV6dtrpjaQAeTyF4OJD/ce2lbfPTFrxWpWYzVWn6YVyq/qag+m92KDj8UG+boMxbJ1w/sD93kjy4eLnITwAq+DSPR8vx9wQBwR3XCxAXUfPHjwe1iBS9OuEzx89jKglQen9EUyyggLfXEDxTXGmn2RT2Se7EFlPgQBxlJcMLyf7k6GAs+KxZwt0M7WRKat02GxqX8ro4zYBmFgND8smmaT2Qh+D3fpnKz9g+fYwqlD6wI/UAC34HQ/ldWX9ZD9MZi0SZMmIyUw15ia76w9rRjWYnIPyIznrC0VW0fWUKR9nzZqfAb1ulPiWEBOdA3A708EQ3vMzDp69GgF0TELQzuf7aLn1v7R9uKmXTX94dowp8MKkpGpRfRpNT8+ccI9Vb+d3rLa3Em9Svft8QmVCllFxPHG8SHjOGGV4pLLPv/YxOtWz7mt8tLJd8SM7vcaXUBQSnRlp8g8IFxf7OhBL3tjFTFj88xcvaW5xaojeZm1TK1Y/VrbML8t6EZyBN82Z8rjnDlzHqRPnYFvOKG+i2C/DtgI8xH9uJGEm5eQiwLBav8gWyOfYgafsbD1iG6hN99881XHOjkMmGOhLoMQk9pgcQpfCZbPv2Tm5ubbrl27lZC5K8zzN/PETRp3mur5N6Si/gFF5CWZMekvJxunTJ9AaIssjZUylPeOMkMBCacSYoQi4g4PWF3CaNVybEMGUG6sVObx36l8DmExacV7iufUqcWDHBwM6CYvCTbSTSKF7mzzknMGlhGXvDPAco4R9xUEa1T681zM2oHrZKkR41srTLscSobjAy5jsg57fA/BejLZANn5fpB6Rxgwp9MhfGIZoYtjb6P78PLxsVXEGg8SWrviwfhpox6KaNbwD282axmQUQWXmRrrYAGaSx6V9ITFz+YeSitrqb1jsKWEylZo7SpJsb07f6GNJOGgvuv8b5tbUqkwhUjWS7Jk8URoQeViLGXmA/FCgOod9imP2CCH8MNNDS+03dwQGWAGErB8VYdp7kRAakMU0esryhYIpWOXs9MLgxhlggxJqMa4Fbz4LUrM8ePHy8NX3hDWlWrYMCL87aagzx/p0Z8jK0mqkis3MVgxFpHbBBkwFrM7LUR6N1VSzdtXxA3EZ86VTKga+xI3ZpENpaDWBUX9bijD5dzNzyrP/LANFNS/QViXCstPJvhY6Oq0WJ2ysrKK43kNZzCznnsNhuAJ7iwK+L3u4m9YJgbFcU208LhSsJn9goMFDESXLUR6LgbGemIjhgtUON6OZHA4WD0EWaY7k4e09/iNDoeCn682jx75A6WPT5SRM8tW3Yv4iqq+DFw1p2choLRYZtl3B71Q+qk+0/ylhDjeuGI1qzLob8zFwykzT81c+FjqyDljNC2bshl2j80IcSgzYfwzmCvfRiozycm3E161FMrTccH1lYaYG5dkPjqGNKwLf5w40Q9zNiBfYvw4q4ciQ/3tODZewAw4zFejBy9PYcuIbUySKTkhVDLjhUR/3DQvgPJ4unI2NqxK74Nt8i7I1Fp2bhbakym252x8bhwDBw50y9cgK5c/20OJOkTWUtZM8ue8onPRKoLYIKnqzKLxDqIysB1TYeEOSoTi67IbsYS7bqU3ygjncOUKYvYLDit/eqOM3HXXXYlU4t2tHcyl+7De7aI0/rROQeEohRietUi5t6S3p6SkxO/evbsm3jETvf2Nydwnf7U13E1Dq0jq1AXPmbRo36yB1hC4RcKaVN9S5cfpreA2+aCgFBH7BcKFczR+5KA3r9s6v354m4brDHHdWNcaM+ixd2PuabfMG0Azt+668eKm/fV0uWiQSVOsfs3/hdev4zKH3hvZvO1LFkiczKVO8pxTpM6EM9noBnJ10mLdELzov/Z2TehvYsaOAeNID8GTKoJNh8vQtktP4qIDg/emT5/ubqPUpWAZJZ/oOHTXyFjIRMeVbecsgJV1X0SySGTnkm0PS2SCu1RY23hwAa6QHdu+Peuj2DO8Oo7lratGpEIvlKrDtKbKrIOMzyxDgYPPtyCBW4yic2uYylsUFRHiYrgykjp36UMgObvFJ7EiVrdM2XeHPHv9z/NuiWzacKPMzfVH2/AGtbdVXT79Tsg4yBJQq4Pp1CYn40SiB/V6P27csJe9lT3t6+8Rg4DED10upIta8Wb11wSC0ucMB/i+YY3y30Vfu31xL/uZWegLpegTjJCGRcoKilyNRQGRTvoI1uFPf7J52bJlnQwsSFigigtOt9NZg4SuKyOeB94LWAne1BNYaj8/eDmkrCIGyZ5nGGbvYLN9R2Rskqp58xx6iuHBZs/Dg67nnNlzVBhE1gFr3ySRdo5tcNBqwFgsPW4wgfl0rVtgXOkmhiojsIoUPz1h9qu+iBW5HKSao1X4YlwXWEMmB+rGaNHwEOxKi02FL95iEOJ5upSkLigwuempCMhtOw+KyIverhUupIqIaRloyfzRceVqJ7Tobh0tabCBduFH2oTxCv6SC1Urlzz88MOz3c2HlMTlNMl6KxMDXGGWreXFOF5txljHd1b3lj9eWGYGS4oSgHmBiZFdPeJLDKFU3sYsFS8nNvNegG58sjVmQ2g4x1gFZLvUsMazCPX3RSPWb5k6dapsZtVbemSBlXKJp360BNIt4qmds+9RMXyqaD9y5kCer0Tbi7SDoitcCFJkvIJsY6gycuztj0dc3LWnstFWEW7mYB49UHXDJ02ie3QwwgTuF8wh61fV1n/eFC6lv4UVEpv1Z/LLTyEjqI+3iggXeqT/KzMRXBurxypCJTCyTfu1obWv80n1V29vBNIT7/J2DNH+ZCECC2Y3keJmpJFmsS/RsV21+/DDDweSi8TbcfT2x6lyHmm+cfr7Xe8YnvrxlIxNsjYCYBd7auuH7z0qGLIy0BVBgj3GkZDXQqZmENqeJvkVslmu471giih4PGJEZXCk+IcseyZPnvwMTvS6iRNF53bWjutnLJJscHLPnj1Zq0ZaKUaArJASg/EX6FkXntkvRfvRVQQXZH+8F1aL9nHXjoGzUE4nGjFWIIxhmDICttV6OH0/A5IxQ9dlTr8ARaTCvgqfvdUdbpn/GTq4HwaD22Z7xVlje2MNe90qJNb4ELpm4r8af1+5gQ8La9zulnFuzYZW55ev+z9TlGQGjXVQs3ZOK9Xnrk+9JULyFdT9+vX7GIFeriPgDJqYKaqvvPLK66I4gHPj1Ny5c/t4u4nTTXPw4MGqXizD682VLilwonRhYKsXcjjtio12JE7qvbFJBoKy6zVW7vBhQCsyvAbBUnIrFRPi6YwPh24qkqcxaBNtb6ESbOPIQBBjBVjMokXvA9Jm8xE8wl3wEQrcdSD2ejZ40bkd29EiM2XKlKf19Ecs1kFYJRNl+hJHT1kutvEYYMqsHZnx6f4BvlK1k8jFg6J7D8vUMXIhkxnj9CZ7rozMTtoK0xl4OY/H7oYoI3TPHBs7ZSRO32X0nL5dScnNO6xJjS3V1sxpDkXEQkBWGC/GkVT5Zmo7ZKQk09LgeF12QWUzPuS9God/io/p2n6JEetE2nGNo0+Mmqs3g4bxLsWa1N9eolWzNUbI44sx8DI/xuJ4GNsE//xdJMqyFuuSPkU5ygeT6mJuBCBDC+GpXaZ0NsfiRoMN5b80r4v6lR1loEk7LS1NePOx74+UZcMsKoxTYKo0LRjEmDwreu8nXRY8nZNhFPC+TuZSvWO564e0U3ILSCkYZOP1hSy2MUksR0uJVTEZwqKOVhltm4KJCii5W/jMOCpp1ppIwiK6ySLZTewxUBCfT2ysn/kiYBkKxFIS4/E3RMuOu0BSd4tiLBbT5oUXjoaokfOlpywX23jM2kFG3iqZ8Vn5V085CM7F6stUzvS4c6moskglg2Jln28n6zNZfycyS/dJW0NSexG0+kDG3O+6B0UJWw89LuYyt0aFfbAq9BGhb/c4YAE3QFruflgpeh66d+ByZNqAPIjEYzka4zGKN7lta+nXBryKjJlEbdIrhkl6dNR7Y7J3JVU0RUXqGpOEbhG33vSjNX1Z1xj+7MRYDcy3HD/U6D179tQkf8f8+fP7kFVVJNuGwWh4wazgSw8nqoOwCGzly8YTLbOnNTICHpvOT7/99tttlAcMp/e560MFhKZc0EsvR72YPfabNbN1oGzxJeiWoTE3NzeYKYEgZsuv/XoS2M331uyHl6GUzE5KSqoKk3sbcLy0Y4Cdu2G5sXJzACnWBp5C+SLFCV1akrp16+7A+ldg/W4rV9vWj+ycM6KTECsEMy7NyMjwmP8OpSWyevXqHlPt0Y7Mm8FG8MWQHK93795dRNfDdiJMxHw+oSzMB9nWDajbFMd7yiq83sRi0epD1woLHVKRwBwyYjttixTdpbDodBRxk1KpxG/5O3dpw46TIKtmCd1pAvfKwrEC5eVHbxZF5Qzut7WwfrWaN2/eg+5q7JDnBe0/ZaovLT5QVi1Tk/2YcWxBQUG2w5dT5ZucRc64TvDM5wDXb5k2jDFYPdZ2cTz7sUwcQ+SZt8eEljknv1f7g6JtDpPUqcEZ8NhgWye17r/KFBlqMswqcpna3Vx1w5ybC6Nrxt0DihTbusxsYUG+0CoV9pRod+tPsJzoPmW6muvo6EmvnR754WhvFMTc9BPa9Vu/u5GuJm9+dIHUl2W8cRKwWAwQCJhVsmTJcxEREZn2BbT8Ia9VDtsp3Ey3DpkoRd1A/pBRdg4oXBVI/W7/QqNFhWuTHauotGc2DWusMDgXqZk/cmPWuza4I4cy3VO0P4MybaRlon0c21nrNtVHIHVtbFhxUIjynTiZPszYFMahNG7cePO1fL/14mzrB6UwmIU8ERdUwvaegnXrn8L8XhDFxCtlhG6ApE5P/pS9K6WqYUGrzCTJSNfiEsY8Ajp3Q6iARcEoKu1OJXzx+LG+4xK8KeZHFxn4UtaC+r51UcFFrUMh4G8E6M5iHSPOS4sWAg4/YEE1mc2FGxQsar08pag6ro1uS6u10N/LVvMpBKQR0K2MoOha3IHWD/+SvSu5uqFsowhYjR7We2zc64NHI5MkT0VU6dVdgx3SvviuR3KPYQu9KuBnzeipsmZGKyvt/TWIpFqyQsA7BBgT4EyBYBxDjx495jdv3vxX1N/ZGBoamgXrHN1OV0ztLMKIk3E4XSXICHkHCk1dGWnoFkPQcWdvOUlk5lRtFQLeIKBLGSFvxZEHR3yFomvN9GZpOBOacSJBlUserb5hUSPEibgsnuTNgotyX1pEjg+awCycUG9cZrSKRNxzyzdVFk7qZkRqcVHGXK1NIeAMAcYtoUR9IuIvWnhCiKm+MMXvsLazvJNZL8lTHI67cREgjJCcwkup7wkz9X3RQ0BaGaEicrDtY+tgEbneSIsIMzcsaa2J79+FQE4GIqpLEAFS8JPjJXXkJ6MRu6OTZfXqZIwVqZA47W7ch28ERVDNFAIKATsEbBkqBQiK9Lu9AGVVUysENKlsGrgAuu/7b88puYfSyxmqiOBGWKjPhz04tmTHNt+r+yKOAAJi6yf1HDQ2I3FVJwvHiy6696vzWawibVqsUYqI+D1QLRUC9giwEB2ynvKVrPcXSuAwuQOZJP6aTs2jEDAEASFlBPEh5U9OnzcguccLo5iSarQiQqtIUOXSx8oMevgDvXnohqBRiAahNST9x3XtD3d/bgrSdyt5kzVzZdm4D7i3WeXGDxmqNVWxw4XocVCiBhACCQkJ/QuqmBmL87FIXwDBoURRCAgh4FEZQepuy71Nuy3IOXQ03oiTtzOpaBUp8/qTb6HybT62QKFVXGONWIEX1pA3MxJX3BMUWRoKhD4eEUfYeB9iRvd7vailU19jj4dabgEiAKtISLNmzfoWhAhkImZxvoKYW82pEPAWAZd+RVhDypx4b9bQ9OmLByOwtJhhqbuOErOqbUjQherbl1aFMqKCVt3cUdyTcimvvv9Gxg+/dmOtGaODh5EKfL72yV9iVdCqtz8r1f9aRgBEVpWHDBky0Upu5/PYDRC7neVcyiJyLT91hX/t+SwjqDFT5/z6zc13x//fTJacZ4qozxQR4Gexikwe9rxSRFw/TOBzue7U9AV9d8ff8RJZWy/fEwNZq6kQ4oqbP7aHUkQK/49araBgESDdNyToyorSCxcuvH/GjBn9UP4drMvGX6QGHzp06AQRplXjZ1cjKgSMQ8CE2IOwrH1J1amAZP39b8OM73/rjBiEyl7xVIjKxxiF2IjTVb+d3rIosXyKLt9dO8aEgGa/9/nft9xy4ect7XFPqvjqnoCenu6Zl+NHDhprhOxqDIWAQuAqArCUVEJ16Y7Tpk0bYKVY99paQjZW0HgvQ7mA3bI1k9S9UQgEIgKmbVp5s0ljzEEIiOhx4o5EbSkvMzJEF8qKvBF9Ws+vNndSb9E+RbkdLCCVziSu7JyxdkP7c4lf32XSonx+T6iIRPRpOw/3oE9RxlatTSEQKAiQP4QF71gPxPqJQzHE2PT09Dwlz1muAPTxqaBXP8Hqs6xc26hRo816iy4GyvqVHAoBZwiY/olq5nV1U73Qks+i6poFLcHy+bPeMYpSv4wNfzXa1/Q/m4O1G43PWHICFNN4UYzwICoKt2Ehv6KEpVqLQqAwIMCAVxTmK8k6JNnZ2awynOcCO+vF2NjY03qqwxaG9SsZFQI2BDxm0/gMKrhowmrXORTRrOEGn81RyAYOr19ne3iTe7dd3LT/Rl+LblVEDlVaPKmDUkR8jbYaXyHgHAEoGZfwTarCRyFwrSMQVFAAsDx9ZPvmi3NDg1X9GetNQPBodkSbpmA99S0kVETAJ3K2wmdv3Rder6bhFYML6plS8yoEFAIKAYVA4USgwJQRZoWEt222RgVf5X1wwls0/o3EciSC88XFOJ2wJtW3V/vt86aKT8QXCKsxFQIKAYWAQkAWgYJRRi4zrqaFxZVLlhW4qLcvXq3KvtDaFZkaaOzF2j8IVg1rUmNrxTnjusMistPYCdRoCgGFgEJAIaAQ0IdAgSgj5owcLaR8mZSQmOhT+sQuur2Y4hxSvcJOYmTYZS1CiNo/46su+7idcs0YhqwaSCGgEFAIKAQMQKBAlBHKHVwuJjm0UtxhA9ZQ5IYIqVAOlhEDlBGLNSQLxHI5JJZ7ssKEES+ExpdVLLdF7olRC1IIKAQUAoUbgQLKpsnVsOEmKbZP5w9PSOXy3isjFmvIRbpltlWcNbaXIpUr3D9UJb1CQCGgECjKCBSQMmLWgiMjzhZlYL1ZW0iJkud097e6ZDQtTCuf8PIjMX3uXaCUPt1oqo4KAYWAQkAh4AcECkgZgQsiLDTLD+srlFMERZU4Iy24VQlBYHBq9PAH3iv9eM8E1PtJ0Qqkfqi09KqDQkAhoBBQCFzDCBSQMqJpphLFM65h3D0tXYwV16KA5Ghm7RwI5GokRz3Tc0xU+9bfW0jMRg7yNIf6XiGgEFAIKAQUAgGBQIEpI3BFKDeNi0cgJzPTdUleqwJymRgtDDEh1+2IGdDz3ZLtW34HS8jRgHiqlBAKAYWAQkAhoBCQQKDAlBEJGa+5pqaLOaF5Fm0lQDNnZOLPwVp4x5tXl2jbfFn4f27cZKnr0/eraw4jtWCFgEJAIaAQKDoIFJgycunc2VJFB0ZjVwJsos3aeU1LvzouSeKinuo2K+aRLjNDYqOPI0X3pLGzqtEUAgoBhYBCQCFQMAiEkB7c3xc3WvO5CyX9PW9hmS+sYvzB2NGDxgTHRp8MrVD+SPE61XeAqGyHNmGtpk0YUViWoeRUCCgEFAIKAYWAEAIh0YO6z7LY/jWNxVBsHwZQ2gdRmqyj8b+OH35l397W1iaA7d+cgyWy+ckoVvu6f4UkvAYble7bY+Y1uGy1ZIWAQkAhoBC4RhH4f5noqOJSlq9LAAAAAElFTkSuQmCC;" vertex="1" parent="E5_EzEregts5peD-AZ1d-156">
          <mxGeometry x="-10337" y="-4865" width="190" height="31.96" as="geometry" />
        </mxCell>
        <mxCell id="hISOZa--S4DMa_SKPuWB-50" value="" style="rounded=0;whiteSpace=wrap;html=1;fontFamily=IBM Plex Sans;fontSource=fonts%2FIBMPlexSans-Regular.woff;fontSize=14;fillColor=none;spacingBottom=-28;spacingTop=0;labelPosition=-100;verticalLabelPosition=top;align=center;verticalAlign=bottom;spacingLeft=9;spacing=0;expand=0;recursiveResize=0;spacingRight=0;container=1;collapsible=0;strokeColor=#FF3333;strokeWidth=2;opacity=30;dashed=1;" vertex="1" parent="E5_EzEregts5peD-AZ1d-156">
          <mxGeometry x="-9710" y="-4420" width="474" height="110" as="geometry">
            <mxRectangle width="670" as="alternateBounds" />
          </mxGeometry>
        </mxCell>
        <mxCell id="hISOZa--S4DMa_SKPuWB-51" value="" style="rounded=0;whiteSpace=wrap;html=1;strokeColor=none;fillColor=#FA4D56;" vertex="1" parent="hISOZa--S4DMa_SKPuWB-50">
          <mxGeometry width="7" height="37" as="geometry" />
        </mxCell>
        <mxCell id="hISOZa--S4DMa_SKPuWB-52" value="&lt;font style=&quot;font-size: 12px;&quot;&gt;Security Group&lt;/font&gt;" style="text;html=1;strokeColor=none;fillColor=none;align=left;verticalAlign=middle;whiteSpace=wrap;rounded=0;fontFamily=IBM Plex Sans;fontSource=fonts%2FIBMPlexSans-Regular.woff;fontSize=14;" vertex="1" parent="hISOZa--S4DMa_SKPuWB-50">
          <mxGeometry x="31" y="-1" width="170" height="20" as="geometry" />
        </mxCell>
        <mxCell id="hISOZa--S4DMa_SKPuWB-53" value="" style="shape=image;aspect=fixed;image=data:image/svg+xml,PD94bWwgdmVyc2lvbj0iMS4wIiBlbmNvZGluZz0iVVRGLTgiPz4KPHN2ZyB3aWR0aD0iMjhweCIgaGVpZ2h0PSIyOHB4IiB2aWV3Qm94PSIwIDAgMjggMjgiIHZlcnNpb249IjEuMSIgeG1sbnM9Imh0dHA6Ly93d3cudzMub3JnLzIwMDAvc3ZnIiB4bWxuczp4bGluaz0iaHR0cDovL3d3dy53My5vcmcvMTk5OS94bGluayI+CiAgICA8IS0tIEdlbmVyYXRvcjogU2tldGNoIDUzICg3MjUyMCkgLSBodHRwczovL3NrZXRjaGFwcC5jb20gLS0+CiAgICA8dGl0bGU+U2VjdXJpdHkgR3JvdXAgQmxhY2s8L3RpdGxlPgogICAgPGRlc2M+Q3JlYXRlZCB3aXRoIFNrZXRjaC48L2Rlc2M+CiAgICA8ZGVmcz4KICAgICAgICA8cG9seWdvbiBpZD0icGF0aC0xIiBwb2ludHM9IjAgMC4wMDA0IDI0IDAuMDAwNCAyNCAyOCAwIDI4Ij48L3BvbHlnb24+CiAgICA8L2RlZnM+CiAgICA8ZyBpZD0iUGFnZS0xIiBzdHJva2U9Im5vbmUiIHN0cm9rZS13aWR0aD0iMSIgZmlsbD0ibm9uZSIgZmlsbC1ydWxlPSJldmVub2RkIj4KICAgICAgICA8ZyBpZD0iU2VjdXJpdHktR3JvdXAtQmxhY2siPgogICAgICAgICAgICA8cGF0aCBkPSJNOSwxOSBMNywxOSBMNywxNyBDNy4wMDIsMTUuMzQ0IDguMzQ0LDE0LjAwMiAxMCwxNCBMMTYsMTQgTDE2LDE2IEwxMCwxNiBDOS40NDgsMTYgOS4wMDEsMTYuNDQ4IDksMTcgTDksMTkgWiIgaWQ9IkZpbGwtMSIgZmlsbD0iIzAwMDAwMCI+PC9wYXRoPgogICAgICAgICAgICA8cGF0aCBkPSJNMTMsNyBDMTEuODk2LDcgMTEsNy44OTYgMTEsOSBDMTEsMTAuMTA0IDExLjg5NiwxMSAxMywxMSBDMTQuMTA0LDExIDE1LDEwLjEwNCAxNSw5IEMxNC45OTksNy44OTYgMTQuMTA0LDcuMDAxIDEzLDcgTTEzLDEzIEMxMC43OTEsMTMgOSwxMS4yMDkgOSw5IEM5LDYuNzkxIDEwLjc5MSw1IDEzLDUgQzE1LjIwOSw1IDE3LDYuNzkxIDE3LDkgQzE2Ljk5NywxMS4yMDggMTUuMjA4LDEyLjk5OCAxMywxMyIgaWQ9IkZpbGwtMyIgZmlsbD0iIzAwMDAwMCI+PC9wYXRoPgogICAgICAgICAgICA8cGF0aCBkPSJNMjIsMTQgQzIwLjg5NiwxNCAyMCwxNC44OTYgMjAsMTYgQzIwLDE3LjEwNCAyMC44OTYsMTggMjIsMTggQzIzLjEwNCwxOCAyNCwxNy4xMDQgMjQsMTYgQzIzLjk5OSwxNC44OTYgMjMuMTA0LDE0LjAwMSAyMiwxNCBNMjIsMjAgQzE5Ljc5MSwyMCAxOCwxOC4yMDkgMTgsMTYgQzE4LDEzLjc5MSAxOS43OTEsMTIgMjIsMTIgQzI0LjIwOSwxMiAyNiwxMy43OTEgMjYsMTYgQzI1Ljk5NywxOC4yMDggMjQuMjA4LDE5Ljk5OCAyMiwyMCIgaWQ9IkZpbGwtNSIgZmlsbD0iIzAwMDAwMCI+PC9wYXRoPgogICAgICAgICAgICA8cGF0aCBkPSJNMjgsMjYgTDI2LDI2IEwyNiwyNCBDMjUuOTk5LDIzLjQ0OCAyNS41NTIsMjMgMjUsMjMgTDE5LDIzIEMxOC40NDgsMjMgMTguMDAxLDIzLjQ0OCAxOCwyNCBMMTgsMjYgTDE2LDI2IEwxNiwyNCBDMTYuMDAyLDIyLjM0NCAxNy4zNDQsMjEuMDAyIDE5LDIxIEwyNSwyMSBDMjYuNjU2LDIxLjAwMiAyNy45OTgsMjIuMzQ0IDI4LDI0IEwyOCwyNiBaIiBpZD0iRmlsbC03IiBmaWxsPSIjMDAwMDAwIj48L3BhdGg+CiAgICAgICAgICAgIDxnIGlkPSJHcm91cC0xMSI+CiAgICAgICAgICAgICAgICA8bWFzayBpZD0ibWFzay0yIiBmaWxsPSJ3aGl0ZSI+CiAgICAgICAgICAgICAgICAgICAgPHVzZSB4bGluazpocmVmPSIjcGF0aC0xIj48L3VzZT4KICAgICAgICAgICAgICAgIDwvbWFzaz4KICAgICAgICAgICAgICAgIDxnIGlkPSJDbGlwLTEwIj48L2c+CiAgICAgICAgICAgICAgICA8cGF0aCBkPSJNMTIsMjUuNzMzNCBMNi43NjYsMjIuOTQyNCBDMy44MywyMS4zODA0IDEuOTk2LDE4LjMyNTQgMiwxNS4wMDA0IEwyLDIuMDAwNCBMMjIsMi4wMDA0IEwyMiw4LjAwMDQgTDI0LDguMDAwNCBMMjQsMi4wMDA0IEMyMy45OTksMC44OTY0IDIzLjEwNCwwLjAwMTQgMjIsMC4wMDA0IEwyLDAuMDAwNCBDMC44OTYsMC4wMDE0IDAuMDAxLDAuODk2NCAwLDIuMDAwNCBMMCwxNS4wMDA0IEMtMC4wMDUsMTkuMDY0NCAyLjIzNiwyMi43OTg0IDUuODI0LDI0LjcwNzQgTDEyLDI4LjAwMDQgTDEyLDI1LjczMzQgWiIgaWQ9IkZpbGwtOSIgZmlsbD0iIzAwMDAwMCIgbWFzaz0idXJsKCNtYXNrLTIpIj48L3BhdGg+CiAgICAgICAgICAgIDwvZz4KICAgICAgICA8L2c+CiAgICA8L2c+Cjwvc3ZnPg==;" vertex="1" parent="hISOZa--S4DMa_SKPuWB-50">
          <mxGeometry x="11" y="5" width="20" height="20" as="geometry" />
        </mxCell>
        <mxCell id="hISOZa--S4DMa_SKPuWB-60" value="" style="image;html=1;image=img/lib/clip_art/computers/Server_Rack_128x128.png" vertex="1" parent="E5_EzEregts5peD-AZ1d-156">
          <mxGeometry x="-10484" y="-4823" width="80" height="80" as="geometry" />
        </mxCell>
        <mxCell id="hISOZa--S4DMa_SKPuWB-61" value="" style="image;points=[];aspect=fixed;html=1;align=center;shadow=0;dashed=0;image=img/lib/allied_telesis/computer_and_terminals/Personal_Computer.svg;" vertex="1" parent="E5_EzEregts5peD-AZ1d-156">
          <mxGeometry x="-10467" y="-4994" width="45.6" height="61.800000000000004" as="geometry" />
        </mxCell>
        <mxCell id="hISOZa--S4DMa_SKPuWB-62" value="Clients" style="text;html=1;align=center;verticalAlign=middle;resizable=0;points=[];autosize=1;strokeColor=none;fillColor=none;" vertex="1" parent="E5_EzEregts5peD-AZ1d-156">
          <mxGeometry x="-10471.7" y="-4924" width="55" height="26" as="geometry" />
        </mxCell>
        <mxCell id="hISOZa--S4DMa_SKPuWB-63" value="Servers" style="text;html=1;align=center;verticalAlign=middle;resizable=0;points=[];autosize=1;strokeColor=none;fillColor=none;" vertex="1" parent="E5_EzEregts5peD-AZ1d-156">
          <mxGeometry x="-10473.7" y="-4728" width="59" height="26" as="geometry" />
        </mxCell>
        <mxCell id="hISOZa--S4DMa_SKPuWB-66" value="" style="endArrow=classic;startArrow=classic;html=1;rounded=0;exitX=1;exitY=0.5;exitDx=0;exitDy=0;" edge="1" parent="E5_EzEregts5peD-AZ1d-156" source="KKKXftk5tRnuejTm1d72-2" target="hISOZa--S4DMa_SKPuWB-46">
          <mxGeometry width="50" height="50" relative="1" as="geometry">
            <mxPoint x="-10198" y="-4327" as="sourcePoint" />
            <mxPoint x="-10148" y="-4377" as="targetPoint" />
          </mxGeometry>
        </mxCell>
        <mxCell id="hISOZa--S4DMa_SKPuWB-67" value="" style="endArrow=classic;startArrow=classic;html=1;rounded=0;entryX=0;entryY=0.5;entryDx=0;entryDy=0;" edge="1" parent="E5_EzEregts5peD-AZ1d-156" source="hISOZa--S4DMa_SKPuWB-46" target="E5_EzEregts5peD-AZ1d-138">
          <mxGeometry width="50" height="50" relative="1" as="geometry">
            <mxPoint x="-9950" y="-4563" as="sourcePoint" />
            <mxPoint x="-9900" y="-4613" as="targetPoint" />
          </mxGeometry>
        </mxCell>
        <mxCell id="hISOZa--S4DMa_SKPuWB-68" value="Site-toSite VPN Connection" style="text;html=1;align=center;verticalAlign=middle;resizable=0;points=[];autosize=1;strokeColor=none;fillColor=none;" vertex="1" parent="E5_EzEregts5peD-AZ1d-156">
          <mxGeometry x="-10034.5" y="-4796" width="165" height="26" as="geometry" />
        </mxCell>
        <mxCell id="E5_EzEregts5peD-AZ1d-220" value="Workload Security" parent="0" />
        <mxCell id="E5_EzEregts5peD-AZ1d-225" value="" style="rounded=0;whiteSpace=wrap;html=1;fontFamily=IBM Plex Sans;fontSource=fonts%2FIBMPlexSans-Regular.woff;fontSize=14;fillColor=none;spacingBottom=-28;spacingTop=0;labelPosition=-100;verticalLabelPosition=top;align=center;verticalAlign=bottom;spacingLeft=9;spacing=0;expand=0;recursiveResize=0;spacingRight=0;container=1;collapsible=0;strokeColor=#FA4D56;strokeWidth=1;" parent="E5_EzEregts5peD-AZ1d-220" vertex="1">
          <mxGeometry x="-9736" y="-4640" width="516" height="350" as="geometry">
            <mxRectangle width="670" as="alternateBounds" />
          </mxGeometry>
        </mxCell>
        <mxCell id="E5_EzEregts5peD-AZ1d-226" value="" style="rounded=0;whiteSpace=wrap;html=1;strokeColor=none;fillColor=#FA4D56;fontFamily=IBM Plex Sans;fontSource=fonts%2FIBMPlexSans-Regular.woff;fontSize=14;" parent="E5_EzEregts5peD-AZ1d-225" vertex="1">
          <mxGeometry width="7" height="37" as="geometry" />
        </mxCell>
        <mxCell id="E5_EzEregts5peD-AZ1d-227" value="&lt;font style=&quot;font-size: 12px;&quot;&gt;Network ACL&lt;/font&gt;" style="text;html=1;strokeColor=none;fillColor=none;align=left;verticalAlign=middle;whiteSpace=wrap;rounded=0;fontFamily=IBM Plex Sans;fontSource=fonts%2FIBMPlexSans-Regular.woff;fontSize=14;" parent="E5_EzEregts5peD-AZ1d-225" vertex="1">
          <mxGeometry x="25" y="-1" width="170" height="20" as="geometry" />
        </mxCell>
        <mxCell id="E5_EzEregts5peD-AZ1d-228" value="" style="shape=image;aspect=fixed;image=data:image/svg+xml,PHN2ZyBpZD0iaWNvbiIgeG1sbnM9Imh0dHA6Ly93d3cudzMub3JnLzIwMDAvc3ZnIiB2aWV3Qm94PSIwIDAgMzIgMzIiPjxkZWZzPjxzdHlsZT4uY2xzLTF7ZmlsbDpub25lO308L3N0eWxlPjwvZGVmcz48dGl0bGU+bG9ja2VkPC90aXRsZT48cGF0aCBkPSJNMjQsMTRIMjJWOEE2LDYsMCwwLDAsMTAsOHY2SDhhMiwyLDAsMCwwLTIsMlYyOGEyLDIsMCwwLDAsMiwySDI0YTIsMiwwLDAsMCwyLTJWMTZBMiwyLDAsMCwwLDI0LDE0Wk0xMiw4YTQsNCwwLDAsMSw4LDB2NkgxMlpNMjQsMjhIOFYxNkgyNFoiLz48cmVjdCBpZD0iX1RyYW5zcGFyZW50X1JlY3RhbmdsZV8iIGRhdGEtbmFtZT0iJmx0O1RyYW5zcGFyZW50IFJlY3RhbmdsZSZndDsiIGNsYXNzPSJjbHMtMSIgd2lkdGg9IjMyIiBoZWlnaHQ9IjMyIi8+PC9zdmc+;" parent="E5_EzEregts5peD-AZ1d-225" vertex="1">
          <mxGeometry x="7" width="23" height="23" as="geometry" />
        </mxCell>
        <mxCell id="E5_EzEregts5peD-AZ1d-230" value="" style="rounded=0;whiteSpace=wrap;html=1;fontFamily=IBM Plex Sans;fontSource=fonts%2FIBMPlexSans-Regular.woff;fontSize=14;fillColor=none;spacingBottom=-28;spacingTop=0;labelPosition=-100;verticalLabelPosition=top;align=center;verticalAlign=bottom;spacingLeft=9;spacing=0;expand=0;recursiveResize=0;spacingRight=0;container=1;collapsible=0;strokeColor=#FF3333;strokeWidth=2;opacity=30;dashed=1;" parent="E5_EzEregts5peD-AZ1d-220" vertex="1">
          <mxGeometry x="-9720" y="-4587" width="474" height="107" as="geometry">
            <mxRectangle width="670" as="alternateBounds" />
          </mxGeometry>
        </mxCell>
        <mxCell id="E5_EzEregts5peD-AZ1d-231" value="" style="rounded=0;whiteSpace=wrap;html=1;strokeColor=none;fillColor=#FA4D56;" parent="E5_EzEregts5peD-AZ1d-230" vertex="1">
          <mxGeometry width="7" height="37" as="geometry" />
        </mxCell>
        <mxCell id="E5_EzEregts5peD-AZ1d-232" value="&lt;font style=&quot;font-size: 12px;&quot;&gt;Security Group&lt;/font&gt;" style="text;html=1;strokeColor=none;fillColor=none;align=left;verticalAlign=middle;whiteSpace=wrap;rounded=0;fontFamily=IBM Plex Sans;fontSource=fonts%2FIBMPlexSans-Regular.woff;fontSize=14;" parent="E5_EzEregts5peD-AZ1d-230" vertex="1">
          <mxGeometry x="33" y="2" width="170" height="20" as="geometry" />
        </mxCell>
        <mxCell id="E5_EzEregts5peD-AZ1d-233" value="" style="shape=image;aspect=fixed;image=data:image/svg+xml,PD94bWwgdmVyc2lvbj0iMS4wIiBlbmNvZGluZz0iVVRGLTgiPz4KPHN2ZyB3aWR0aD0iMjhweCIgaGVpZ2h0PSIyOHB4IiB2aWV3Qm94PSIwIDAgMjggMjgiIHZlcnNpb249IjEuMSIgeG1sbnM9Imh0dHA6Ly93d3cudzMub3JnLzIwMDAvc3ZnIiB4bWxuczp4bGluaz0iaHR0cDovL3d3dy53My5vcmcvMTk5OS94bGluayI+CiAgICA8IS0tIEdlbmVyYXRvcjogU2tldGNoIDUzICg3MjUyMCkgLSBodHRwczovL3NrZXRjaGFwcC5jb20gLS0+CiAgICA8dGl0bGU+U2VjdXJpdHkgR3JvdXAgQmxhY2s8L3RpdGxlPgogICAgPGRlc2M+Q3JlYXRlZCB3aXRoIFNrZXRjaC48L2Rlc2M+CiAgICA8ZGVmcz4KICAgICAgICA8cG9seWdvbiBpZD0icGF0aC0xIiBwb2ludHM9IjAgMC4wMDA0IDI0IDAuMDAwNCAyNCAyOCAwIDI4Ij48L3BvbHlnb24+CiAgICA8L2RlZnM+CiAgICA8ZyBpZD0iUGFnZS0xIiBzdHJva2U9Im5vbmUiIHN0cm9rZS13aWR0aD0iMSIgZmlsbD0ibm9uZSIgZmlsbC1ydWxlPSJldmVub2RkIj4KICAgICAgICA8ZyBpZD0iU2VjdXJpdHktR3JvdXAtQmxhY2siPgogICAgICAgICAgICA8cGF0aCBkPSJNOSwxOSBMNywxOSBMNywxNyBDNy4wMDIsMTUuMzQ0IDguMzQ0LDE0LjAwMiAxMCwxNCBMMTYsMTQgTDE2LDE2IEwxMCwxNiBDOS40NDgsMTYgOS4wMDEsMTYuNDQ4IDksMTcgTDksMTkgWiIgaWQ9IkZpbGwtMSIgZmlsbD0iIzAwMDAwMCI+PC9wYXRoPgogICAgICAgICAgICA8cGF0aCBkPSJNMTMsNyBDMTEuODk2LDcgMTEsNy44OTYgMTEsOSBDMTEsMTAuMTA0IDExLjg5NiwxMSAxMywxMSBDMTQuMTA0LDExIDE1LDEwLjEwNCAxNSw5IEMxNC45OTksNy44OTYgMTQuMTA0LDcuMDAxIDEzLDcgTTEzLDEzIEMxMC43OTEsMTMgOSwxMS4yMDkgOSw5IEM5LDYuNzkxIDEwLjc5MSw1IDEzLDUgQzE1LjIwOSw1IDE3LDYuNzkxIDE3LDkgQzE2Ljk5NywxMS4yMDggMTUuMjA4LDEyLjk5OCAxMywxMyIgaWQ9IkZpbGwtMyIgZmlsbD0iIzAwMDAwMCI+PC9wYXRoPgogICAgICAgICAgICA8cGF0aCBkPSJNMjIsMTQgQzIwLjg5NiwxNCAyMCwxNC44OTYgMjAsMTYgQzIwLDE3LjEwNCAyMC44OTYsMTggMjIsMTggQzIzLjEwNCwxOCAyNCwxNy4xMDQgMjQsMTYgQzIzLjk5OSwxNC44OTYgMjMuMTA0LDE0LjAwMSAyMiwxNCBNMjIsMjAgQzE5Ljc5MSwyMCAxOCwxOC4yMDkgMTgsMTYgQzE4LDEzLjc5MSAxOS43OTEsMTIgMjIsMTIgQzI0LjIwOSwxMiAyNiwxMy43OTEgMjYsMTYgQzI1Ljk5NywxOC4yMDggMjQuMjA4LDE5Ljk5OCAyMiwyMCIgaWQ9IkZpbGwtNSIgZmlsbD0iIzAwMDAwMCI+PC9wYXRoPgogICAgICAgICAgICA8cGF0aCBkPSJNMjgsMjYgTDI2LDI2IEwyNiwyNCBDMjUuOTk5LDIzLjQ0OCAyNS41NTIsMjMgMjUsMjMgTDE5LDIzIEMxOC40NDgsMjMgMTguMDAxLDIzLjQ0OCAxOCwyNCBMMTgsMjYgTDE2LDI2IEwxNiwyNCBDMTYuMDAyLDIyLjM0NCAxNy4zNDQsMjEuMDAyIDE5LDIxIEwyNSwyMSBDMjYuNjU2LDIxLjAwMiAyNy45OTgsMjIuMzQ0IDI4LDI0IEwyOCwyNiBaIiBpZD0iRmlsbC03IiBmaWxsPSIjMDAwMDAwIj48L3BhdGg+CiAgICAgICAgICAgIDxnIGlkPSJHcm91cC0xMSI+CiAgICAgICAgICAgICAgICA8bWFzayBpZD0ibWFzay0yIiBmaWxsPSJ3aGl0ZSI+CiAgICAgICAgICAgICAgICAgICAgPHVzZSB4bGluazpocmVmPSIjcGF0aC0xIj48L3VzZT4KICAgICAgICAgICAgICAgIDwvbWFzaz4KICAgICAgICAgICAgICAgIDxnIGlkPSJDbGlwLTEwIj48L2c+CiAgICAgICAgICAgICAgICA8cGF0aCBkPSJNMTIsMjUuNzMzNCBMNi43NjYsMjIuOTQyNCBDMy44MywyMS4zODA0IDEuOTk2LDE4LjMyNTQgMiwxNS4wMDA0IEwyLDIuMDAwNCBMMjIsMi4wMDA0IEwyMiw4LjAwMDQgTDI0LDguMDAwNCBMMjQsMi4wMDA0IEMyMy45OTksMC44OTY0IDIzLjEwNCwwLjAwMTQgMjIsMC4wMDA0IEwyLDAuMDAwNCBDMC44OTYsMC4wMDE0IDAuMDAxLDAuODk2NCAwLDIuMDAwNCBMMCwxNS4wMDA0IEMtMC4wMDUsMTkuMDY0NCAyLjIzNiwyMi43OTg0IDUuODI0LDI0LjcwNzQgTDEyLDI4LjAwMDQgTDEyLDI1LjczMzQgWiIgaWQ9IkZpbGwtOSIgZmlsbD0iIzAwMDAwMCIgbWFzaz0idXJsKCNtYXNrLTIpIj48L3BhdGg+CiAgICAgICAgICAgIDwvZz4KICAgICAgICA8L2c+CiAgICA8L2c+Cjwvc3ZnPg==;" parent="E5_EzEregts5peD-AZ1d-230" vertex="1">
          <mxGeometry x="10" y="6" width="20" height="20" as="geometry" />
        </mxCell>
      </root>
    </mxGraphModel>
  </diagram>
</mxfile>
